<?xml version="1.0" encoding="utf-8"?>
<!-- Generator: Adobe Illustrator 24.2.1, SVG Export Plug-In . SVG Version: 6.00 Build 0)  -->
<svg version="1.1" xmlns="http://www.w3.org/2000/svg" xmlns:xlink="http://www.w3.org/1999/xlink" x="0px" y="0px"
	 viewBox="0 0 800 800" style="enable-background:new 0 0 800 800;" xml:space="preserve">
<style type="text/css">
	.st0{fill-rule:evenodd;clip-rule:evenodd;fill:#FAF7FD;}
	.st1{fill-rule:evenodd;clip-rule:evenodd;fill:#FFFFFF;}
	.st2{fill:#4B2C70;}
	.st3{fill:#A978E6;}
	.st4{fill:#B082E8;}
	.st5{fill:#DCC8F5;}
	.st6{fill:#C8A8EF;}
	.st7{fill:#A36EE4;}
	.st8{fill:#AC7DE7;}
	.st9{fill:#CFB4F1;}
	.st10{fill:#E9DCF8;}
	.st11{fill:#9558E0;}
	.st12{fill:#B387E9;}
	.st13{fill:#EBDFF9;}
	.st14{fill:#C7A6EF;}
</style>
<g id="_x36_7">
	<rect x="18.93" y="18.93" class="st0" width="762.14" height="762.14"/>
	<g>
		<path class="st1" d="M132.86,551.46l29.38-14.62l70.14-34.89c13.31-6.62,30.91,1.35,39.03,17.67l0,0
			c8.16,16.4,3.86,35.17-9.44,41.79l-68.02,33.84c-13.37,6.65-17.57,25.47-9.44,41.79l0,0c8.16,16.4,25.66,24.33,39.03,17.67
			l507.69-252.56c13.37-6.65,17.61-25.38,9.45-41.79l0,0c-8.12-16.33-25.66-24.33-39.03-17.68l-80.75,40.17
			c-13.37,6.65-30.87-1.27-39.03-17.68l0,0c-8.12-16.32-3.93-35.14,9.45-41.79l88.46-44.01l8.03-4l8.94-4.45
			c13.31-6.62,17.61-25.39,9.45-41.79l0,0c-8.12-16.32-25.72-24.3-39.03-17.68l-65.9,32.78l-6.36,3.17
			c-13.37,6.65-30.87-1.27-39.03-17.68l0,0c-8.12-16.33-3.93-35.14,9.45-41.79l6.36-3.17l15.75-7.84
			c13.31-6.62,17.61-25.39,9.44-41.79l0,0c-8.12-16.32-25.72-24.3-39.03-17.68L95.15,347.66c-13.31,6.62-17.57,25.47-9.45,41.79l0,0
			c8.16,16.41,25.72,24.3,39.03,17.68l24.24-12.06l10.61-5.28c13.37-6.65,30.91,1.35,39.03,17.68l0,0
			c8.16,16.4,3.93,35.14-9.44,41.79l-56.51,28.11l-29.38,14.62c-13.31,6.62-17.57,25.47-9.44,41.79l0,0
			C101.99,550.19,119.55,558.08,132.86,551.46L132.86,551.46z"/>
	</g>
	<g>
		<path class="st2" d="M598.79,172.05c-0.47,0-0.92-0.22-1.2-0.6c-1.88-2.53-5.14-3.98-8.96-3.98h-0.02c-2.28,0-4.55,0.53-6.58,1.53
			c0,0-0.01,0-0.01,0.01c-0.73,0.36-1.65,0.04-2.01-0.69c-0.18-0.36-0.2-0.76-0.07-1.14c0.12-0.38,0.39-0.69,0.75-0.87
			c2.45-1.2,5.19-1.84,7.94-1.84c3.75,0,7.17,1.19,9.65,3.34c2.46-4.82,7.41-7.34,14.38-7.25c0.76,0,1.52,0.03,2.27,0.08
			c0.4,0.02,0.77,0.2,1.03,0.51c0.27,0.3,0.4,0.68,0.37,1.08c-0.05,0.82-0.77,1.46-1.59,1.4c-0.72-0.05-1.42-0.07-2.08-0.07
			c-7.06,0.1-10.67,2.26-12.44,7.45c-0.17,0.53-0.64,0.93-1.18,1.02C598.96,172.04,598.87,172.05,598.79,172.05z"/>
	</g>
	<g>
		<path class="st2" d="M678.48,180.54c-0.47,0-0.92-0.23-1.2-0.6c-1.46-1.98-4.03-3.11-7.04-3.11c-1.82,0-3.62,0.42-5.22,1.21
			c-0.01,0-0.01,0-0.01,0c-0.73,0.36-1.66,0.04-2.01-0.68c-0.18-0.36-0.21-0.77-0.08-1.15c0.13-0.38,0.4-0.68,0.76-0.86
			c2.02-1,4.29-1.52,6.56-1.52c2.97,0,5.71,0.9,7.74,2.55c1-1.81,2.45-3.21,4.33-4.19c2.05-1.06,4.56-1.58,7.43-1.54
			c0.61,0,1.24,0.03,1.86,0.07c0.4,0.02,0.76,0.2,1.03,0.5c0.26,0.31,0.39,0.69,0.37,1.09c-0.06,0.82-0.79,1.46-1.6,1.4
			c-0.56-0.04-1.12-0.06-1.66-0.06c-6.51,0.12-8.64,2.42-9.83,5.85c-0.17,0.54-0.62,0.93-1.18,1.02
			C678.65,180.53,678.57,180.54,678.48,180.54z"/>
	</g>
	<g>
		<path class="st2" d="M529.24,130.82c-0.47,0-0.92-0.23-1.2-0.61c-2.99-4.02-8.16-6.33-14.19-6.33c-3.58,0-7.16,0.84-10.34,2.41
			c-0.73,0.36-1.65,0.04-2.01-0.69c-0.17-0.36-0.2-0.76-0.07-1.14c0.13-0.38,0.4-0.69,0.76-0.86c3.59-1.78,7.62-2.71,11.66-2.71
			c5.93,0,11.21,1.97,14.87,5.56c1.63-3.66,4.19-6.49,7.6-8.42c3.68-2.08,8.36-3.11,13.92-3.06c1.11,0,2.26,0.03,3.39,0.11
			c0.4,0.02,0.77,0.2,1.03,0.51c0.26,0.3,0.39,0.68,0.37,1.08c-0.06,0.82-0.79,1.45-1.6,1.4c-1.1-0.07-2.18-0.11-3.19-0.11
			c-10.98,0.1-16.84,3.63-19.57,11.82c-0.17,0.53-0.63,0.93-1.18,1.02C529.41,130.81,529.32,130.82,529.24,130.82z"/>
	</g>
	<g>
		<path class="st2" d="M317.3,117.41c-0.47,0-0.92-0.22-1.21-0.6c-1.86-2.52-5.13-3.97-8.95-3.98c-2.29,0-4.58,0.53-6.61,1.54
			c-0.73,0.36-1.65,0.04-2.01-0.68c-0.37-0.75-0.06-1.65,0.68-2.01c2.45-1.21,5.19-1.84,7.94-1.85c3.74,0,7.17,1.19,9.65,3.34
			c2.46-4.82,7.42-7.33,14.38-7.25c0.73,0,1.5,0.03,2.27,0.08c0.83,0.05,1.45,0.77,1.4,1.6c-0.05,0.81-0.77,1.45-1.59,1.39
			c-0.71-0.04-1.41-0.07-2.08-0.07c-7.06,0.1-10.67,2.26-12.44,7.46c-0.18,0.53-0.63,0.92-1.19,1.02
			C317.46,117.41,317.39,117.41,317.3,117.41z"/>
	</g>
	<g>
		<path class="st2" d="M404.6,147.16c-0.48,0-0.93-0.22-1.21-0.6c-1.17-1.59-3.24-2.5-5.69-2.5c-1.47,0-2.99,0.35-4.28,0.98
			c0,0.01-0.01,0.01-0.01,0.01c-0.73,0.35-1.65,0.03-2.01-0.69c-0.17-0.36-0.2-0.77-0.07-1.14c0.13-0.38,0.4-0.69,0.76-0.87
			c1.73-0.84,3.67-1.29,5.61-1.29c2.42,0,4.69,0.71,6.4,2.01c1.85-3.09,5.36-4.77,9.97-4.67c0.48,0,1,0.01,1.52,0.05
			c0.4,0.02,0.77,0.2,1.03,0.5c0.27,0.3,0.4,0.69,0.38,1.09c-0.06,0.82-0.77,1.45-1.59,1.4c-0.44-0.03-0.89-0.04-1.34-0.04
			c-5.34,0.11-7.04,1.89-8.05,4.73c-0.17,0.53-0.63,0.92-1.18,1.02C404.76,147.16,404.68,147.16,404.6,147.16z"/>
	</g>
	<g>
		<g>
			<g>
				<rect x="247.4" y="426.11" class="st3" width="102.9" height="103.93"/>
			</g>
			<g>
				<rect x="432.72" y="426.11" class="st4" width="102.9" height="103.93"/>
			</g>
			<g>
				<rect x="350.3" y="405.04" class="st5" width="82.42" height="125"/>
			</g>
			<g>
				<rect x="350.3" y="384.23" class="st5" width="82.42" height="20.81"/>
			</g>
			<g>
				<rect x="350.3" y="389.33" class="st6" width="82.42" height="15.71"/>
			</g>
			<g>
				<path class="st7" d="M446.46,352.42c0,12.3-5.18,23.56-13.74,32.07v-0.26H350.3v0.26c-8.55-8.5-13.73-19.76-13.73-32.07
					c0-18.84,24.11-45.28,50.67-69.24v0.13h8.55v-0.39C423.26,306.61,446.46,333.57,446.46,352.42L446.46,352.42z"/>
			</g>
			<g>
				<path class="st4" d="M415.75,384.23h-0.26H350.3h-0.26c-8.16-8.38-13.22-19.24-13.34-31.15l-0.13-0.66
					c0-18.59,23.45-44.63,49.63-68.46c22.03,23.43,40.56,49.87,40.56,68.46C426.76,364.59,422.61,375.72,415.75,384.23
					L415.75,384.23z"/>
			</g>
			<g>
				<rect x="387.23" y="271.01" class="st7" width="8.55" height="12.3"/>
			</g>
			<g>
				<rect x="389.31" y="264.85" class="st8" width="4.41" height="6.15"/>
			</g>
			<g>
				<rect x="247.4" y="416.29" class="st7" width="102.9" height="9.82"/>
			</g>
			<g>
				<rect x="432.72" y="416.29" class="st4" width="102.9" height="9.82"/>
			</g>
			<g>
				<rect x="452.68" y="405.3" class="st4" width="52.87" height="10.99"/>
			</g>
			<g>
				<path class="st9" d="M514.11,384.88c0,7.85-3.24,14.92-8.68,20.42h-52.61c-5.45-5.5-8.68-12.57-8.68-20.42
					c0-12.04,15.29-28.93,32.27-44.24l5.45-0.13C499.33,355.56,514.11,372.71,514.11,384.88L514.11,384.88z"/>
			</g>
			<g>
				<rect x="474.84" y="334.36" class="st4" width="8.55" height="6.15"/>
			</g>
			<g>
				<rect x="276.17" y="405.3" class="st10" width="52.87" height="10.99"/>
			</g>
			<g>
				<path class="st7" d="M337.6,384.88c0,7.85-3.24,14.92-8.68,20.42H276.3c-5.44-5.5-8.68-12.57-8.68-20.42
					c0-12.04,15.29-28.93,32.27-44.24l5.44-0.13C322.83,355.56,337.6,372.71,337.6,384.88L337.6,384.88z"/>
			</g>
			<g>
				<rect x="298.33" y="334.36" class="st3" width="8.55" height="6.15"/>
			</g>
			<g>
				<rect x="143.47" y="530.04" class="st5" width="515.78" height="20.81"/>
			</g>
			<g>
				<rect x="350.3" y="389.33" class="st11" width="10.37" height="15.71"/>
			</g>
			<g>
				<rect x="360.67" y="389.33" class="st3" width="10.24" height="15.71"/>
			</g>
			<g>
				<rect x="370.91" y="389.33" class="st5" width="10.37" height="15.71"/>
			</g>
			<g>
				<rect x="381.27" y="389.33" class="st7" width="10.24" height="15.71"/>
			</g>
			<g>
				<rect x="391.51" y="389.33" class="st7" width="10.24" height="15.71"/>
			</g>
			<g>
				<rect x="401.75" y="389.33" class="st5" width="10.37" height="15.71"/>
			</g>
			<g>
				<rect x="412.12" y="389.33" class="st11" width="10.24" height="15.71"/>
			</g>
			<g>
				<rect x="350.3" y="405.04" class="st4" width="82.42" height="7.07"/>
			</g>
			<g>
				<rect x="360.67" y="426.11" class="st12" width="61.68" height="103.93"/>
			</g>
			<g>
				<path class="st13" d="M391.51,436.45L391.51,436.45c11.27,0,20.6,9.43,20.6,20.81v72.77h-41.21v-72.77
					C370.91,445.88,380.24,436.45,391.51,436.45L391.51,436.45z"/>
			</g>
			<g>
				<rect x="360.67" y="426.11" class="st11" width="61.68" height="41.49"/>
			</g>
			<g>
				<path class="st8" d="M391.51,478.08L391.51,478.08c5.7,0,10.24,4.71,10.24,10.34v41.62h-20.47v-41.62
					C381.27,482.79,385.81,478.08,391.51,478.08L391.51,478.08z"/>
			</g>
			<g>
				<rect x="494.67" y="426.11" class="st9" width="40.96" height="103.93"/>
			</g>
			<g>
				<rect x="247.4" y="426.11" class="st5" width="40.95" height="103.93"/>
			</g>
			<g>
				<path class="st13" d="M463.44,436.06L463.44,436.06c8.55,0,15.55,7.07,15.55,15.71v26.31h-30.97v-26.31
					C448.02,443.13,454.88,436.06,463.44,436.06L463.44,436.06z"/>
			</g>
			<g>
				<path class="st12" d="M463.44,488.16L463.44,488.16c8.55,0,15.55,6.93,15.55,15.57v26.31h-30.97v-26.31
					C448.02,495.09,454.88,488.16,463.44,488.16L463.44,488.16z"/>
			</g>
			<g>
				<path class="st11" d="M515.14,436.06L515.14,436.06c4.79,0,8.81,4.06,8.81,8.9v33.11h-17.49v-33.11
					C506.46,440.12,510.35,436.06,515.14,436.06L515.14,436.06z"/>
			</g>
			<g>
				<path class="st7" d="M515.14,488.16L515.14,488.16c4.79,0,8.81,3.92,8.81,8.77v33.11h-17.49v-33.11
					C506.46,492.08,510.35,488.16,515.14,488.16L515.14,488.16z"/>
			</g>
			<g>
				<path class="st11" d="M318.55,436.06L318.55,436.06c-8.55,0-15.55,7.07-15.55,15.71v26.31h31.1v-26.31
					C334.1,443.13,327.11,436.06,318.55,436.06L318.55,436.06z"/>
			</g>
			<g>
				<path class="st5" d="M318.55,488.16L318.55,488.16c-8.55,0-15.55,6.93-15.55,15.57v26.31h31.1v-26.31
					C334.1,495.09,327.11,488.16,318.55,488.16L318.55,488.16z"/>
			</g>
			<g>
				<path class="st6" d="M266.84,436.06L266.84,436.06c-4.79,0-8.68,4.06-8.68,8.9v33.11h17.37v-33.11
					C275.52,440.12,271.64,436.06,266.84,436.06L266.84,436.06z"/>
			</g>
			<g>
				<path class="st8" d="M266.84,488.16L266.84,488.16c-4.79,0-8.68,3.92-8.68,8.77v33.11h17.37v-33.11
					C275.52,492.08,271.64,488.16,266.84,488.16L266.84,488.16z"/>
			</g>
			<g>
				<polygon class="st10" points="153.58,461.32 184.55,461.32 188.57,530.04 149.56,530.04 				"/>
			</g>
			<g>
				<path class="st13" d="M150.73,461.32h36.55c2.07,0,3.63-1.57,3.63-3.67l0,0c0-1.96-1.55-3.54-3.63-3.54h-36.55
					c-1.94,0-3.5,1.57-3.5,3.54l0,0C147.23,459.75,148.78,461.32,150.73,461.32L150.73,461.32z"/>
			</g>
			<g>
				<polygon class="st13" points="156.94,385.01 181.05,385.01 184.29,454.12 153.84,454.12 				"/>
			</g>
			<g>
				<path class="st8" d="M153.97,385.01h30.19c1.94,0,3.5-1.7,3.5-3.66l0,0c0-1.96-1.56-3.67-3.5-3.67h-30.19
					c-1.95,0-3.5,1.7-3.5,3.67l0,0C150.47,383.31,152.02,385.01,153.97,385.01L153.97,385.01z"/>
			</g>
			<g>
				<polygon class="st11" points="158.37,308.7 179.75,308.7 182.48,377.68 155.65,377.68 				"/>
			</g>
			<g>
				<path class="st4" d="M155.91,308.7h26.18c2.07,0,3.63-1.57,3.63-3.53l0,0c0-1.96-1.55-3.67-3.63-3.67h-26.18
					c-1.94,0-3.5,1.7-3.5,3.67l0,0C152.41,307.13,153.97,308.7,155.91,308.7L155.91,308.7z"/>
			</g>
			<g>
				<rect x="159.02" y="280.17" class="st11" width="20.09" height="21.34"/>
			</g>
			<g>
				<path class="st6" d="M181.96,272.71c0,2.88-1.3,5.5-3.24,7.46h-19.31c-1.94-1.96-3.24-4.58-3.24-7.46
					c0-4.45,6.09-10.6,12.31-16.23h1.04C175.87,261.97,181.96,268.25,181.96,272.71L181.96,272.71z"/>
			</g>
			<g>
				<polygon class="st6" points="209.43,482.53 230.82,482.53 233.66,530.04 206.71,530.04 				"/>
			</g>
			<g>
				<path class="st13" d="M207.49,482.53h25.27c1.42,0,2.59-1.18,2.59-2.49l0,0c0-1.44-1.17-2.62-2.59-2.62h-25.27
					c-1.29,0-2.46,1.17-2.46,2.62l0,0C205.02,481.35,206.19,482.53,207.49,482.53L207.49,482.53z"/>
			</g>
			<g>
				<polygon class="st5" points="211.77,429.65 228.48,429.65 230.69,477.42 209.69,477.42 				"/>
			</g>
			<g>
				<path class="st6" d="M209.69,429.65h20.87c1.42,0,2.46-1.18,2.46-2.49l0,0c0-1.44-1.04-2.49-2.46-2.49h-20.87
					c-1.3,0-2.46,1.04-2.46,2.49l0,0C207.23,428.47,208.39,429.65,209.69,429.65L209.69,429.65z"/>
			</g>
			<g>
				<polygon class="st7" points="212.8,376.9 227.58,376.9 229.39,424.67 210.86,424.67 				"/>
			</g>
			<g>
				<path class="st5" d="M211.12,376.9h18.14c1.3,0,2.46-1.18,2.46-2.49l0,0c0-1.44-1.17-2.49-2.46-2.49h-18.14
					c-1.43,0-2.46,1.04-2.46,2.49l0,0C208.65,375.72,209.69,376.9,211.12,376.9L211.12,376.9z"/>
			</g>
			<g>
				<rect x="213.19" y="357.13" class="st12" width="13.87" height="14.79"/>
			</g>
			<g>
				<path class="st12" d="M229,351.9c0,1.96-0.78,3.79-2.2,5.24h-13.35c-1.29-1.44-2.2-3.27-2.2-5.24c0-3.01,4.28-7.33,8.55-11.26
					h0.65C224.85,344.43,229,348.89,229,351.9L229,351.9z"/>
			</g>
			<g>
				<polygon class="st11" points="649.92,461.32 619.08,461.32 615.06,530.04 653.94,530.04 				"/>
			</g>
			<g>
				<path class="st5" d="M652.77,461.32h-36.55c-1.94,0-3.62-1.57-3.62-3.67l0,0c0-1.96,1.68-3.54,3.62-3.54h36.55
					c1.94,0,3.63,1.57,3.63,3.54l0,0C656.4,459.75,654.71,461.32,652.77,461.32L652.77,461.32z"/>
			</g>
			<g>
				<polygon class="st8" points="646.55,385.01 622.45,385.01 619.33,454.12 649.66,454.12 				"/>
			</g>
			<g>
				<path class="st14" d="M649.53,385.01h-30.06c-1.94,0-3.63-1.7-3.63-3.66l0,0c0-1.96,1.69-3.67,3.63-3.67h30.06
					c1.95,0,3.63,1.7,3.63,3.67l0,0C653.16,383.31,651.48,385.01,649.53,385.01L649.53,385.01z"/>
			</g>
			<g>
				<polygon class="st14" points="645.12,308.7 623.87,308.7 621.02,377.68 647.98,377.68 				"/>
			</g>
			<g>
				<path class="st10" d="M647.59,308.7h-26.18c-1.94,0-3.62-1.57-3.62-3.53l0,0c0-1.96,1.68-3.67,3.62-3.67h26.18
					c1.94,0,3.63,1.7,3.63,3.67l0,0C651.22,307.13,649.53,308.7,647.59,308.7L647.59,308.7z"/>
			</g>
			<g>
				<rect x="624.52" y="280.04" class="st7" width="19.96" height="21.46"/>
			</g>
			<g>
				<path class="st13" d="M621.67,272.44c0,3.01,1.17,5.63,3.24,7.6h19.18c2.07-1.96,3.24-4.58,3.24-7.6
					c0-4.45-6.1-10.6-12.32-16.36h-1.03C627.63,261.71,621.67,268,621.67,272.44L621.67,272.44z"/>
			</g>
			<g>
				<polygon class="st11" points="594.07,482.53 572.68,482.53 569.96,530.04 596.92,530.04 				"/>
			</g>
			<g>
				<path class="st4" d="M596.01,482.53h-25.27c-1.42,0-2.46-1.18-2.46-2.49l0,0c0-1.44,1.04-2.62,2.46-2.62h25.27
					c1.43,0,2.47,1.17,2.47,2.62l0,0C598.47,481.35,597.43,482.53,596.01,482.53L596.01,482.53z"/>
			</g>
			<g>
				<polygon class="st6" points="591.73,429.65 575.02,429.65 572.81,477.42 593.94,477.42 				"/>
			</g>
			<g>
				<path class="st12" d="M593.81,429.65h-20.87c-1.29,0-2.46-1.18-2.46-2.49l0,0c0-1.44,1.16-2.49,2.46-2.49h20.87
					c1.43,0,2.46,1.04,2.46,2.49l0,0C596.27,428.47,595.23,429.65,593.81,429.65L593.81,429.65z"/>
			</g>
			<g>
				<polygon class="st6" points="590.82,376.9 576.05,376.9 574.11,424.67 592.64,424.67 				"/>
			</g>
			<g>
				<path class="st10" d="M592.51,376.9h-18.14c-1.43,0-2.46-1.18-2.46-2.49l0,0c0-1.44,1.03-2.49,2.46-2.49h18.14
					c1.3,0,2.46,1.04,2.46,2.49l0,0C594.97,375.72,593.81,376.9,592.51,376.9L592.51,376.9z"/>
			</g>
			<g>
				<rect x="576.44" y="357.13" class="st4" width="13.87" height="14.79"/>
			</g>
			<g>
				<path class="st3" d="M574.5,351.9c0,1.96,0.77,3.79,2.2,5.24h13.35c1.42-1.44,2.2-3.27,2.2-5.24c0-3.01-4.14-7.33-8.55-11.26
					h-0.65C578.64,344.43,574.5,348.89,574.5,351.9L574.5,351.9z"/>
			</g>
			<g>
				<rect x="130.77" y="550.85" class="st8" width="541.18" height="10.34"/>
			</g>
		</g>
	</g>
	<path class="st2" d="M257.12,531.54c-0.83,0-1.5-0.67-1.5-1.5c0-0.83,0.67-1.5,1.5-1.5h91.68v-45.32c0-0.83,0.67-1.5,1.5-1.5
		c0.83,0,1.5,0.67,1.5,1.5v46.82c0,0.4-0.16,0.77-0.44,1.06c-0.28,0.28-0.66,0.44-1.06,0.44H257.12z M247.4,531.25
		c-0.82,0-1.5-0.67-1.5-1.49c0-0.83,0.68-1.5,1.5-1.5c0.83,0,1.5,0.67,1.5,1.5C248.9,530.58,248.23,531.25,247.4,531.25z
		 M247.4,521.26c-0.82,0-1.5-0.68-1.5-1.5v-93.65c0-0.4,0.16-0.78,0.44-1.06c0.28-0.28,0.67-0.44,1.06-0.44h102.9
		c0.39,0,0.78,0.16,1.06,0.44c0.28,0.28,0.44,0.67,0.44,1.06v37.11c0,0.82-0.67,1.5-1.5,1.5c-0.83,0-1.5-0.68-1.5-1.5v-35.61h-99.9
		v92.15C248.9,520.58,248.23,521.26,247.4,521.26z M350.3,474.71c-0.83,0-1.5-0.67-1.5-1.49c0-0.83,0.67-1.5,1.5-1.5
		c0.83,0,1.5,0.67,1.5,1.5C351.8,474.04,351.13,474.71,350.3,474.71z"/>
	<path class="st2" d="M535.62,531.54h-93.17c-0.83,0-1.5-0.67-1.5-1.5c0-0.83,0.67-1.5,1.5-1.5h91.67v-45.33
		c0-0.83,0.67-1.5,1.5-1.5c0.83,0,1.5,0.67,1.5,1.5v46.83c0,0.4-0.16,0.78-0.44,1.06C536.4,531.38,536.02,531.54,535.62,531.54z
		 M432.72,531.27c-0.83,0-1.5-0.68-1.5-1.5c0-0.83,0.67-1.5,1.5-1.5c0.83,0,1.5,0.67,1.5,1.5
		C434.22,530.59,433.55,531.27,432.72,531.27z M432.72,521.27c-0.83,0-1.5-0.67-1.5-1.5v-93.66c0-0.39,0.16-0.78,0.44-1.06
		c0.28-0.28,0.66-0.44,1.06-0.44h102.9c0.4,0,0.78,0.16,1.06,0.44c0.28,0.29,0.44,0.66,0.44,1.06v37.1c0,0.83-0.67,1.5-1.5,1.5
		c-0.83,0-1.5-0.67-1.5-1.5v-35.6h-99.9v92.14c0,0.01,0,0.01,0,0.02C434.22,520.6,433.55,521.27,432.72,521.27z M535.62,474.71
		c-0.83,0-1.5-0.67-1.5-1.5c0-0.83,0.67-1.5,1.5-1.5c0.83,0,1.5,0.67,1.5,1.5C537.12,474.04,536.45,474.71,535.62,474.71z"/>
	<path class="st2" d="M432.72,531.54H350.3c-0.4,0-0.78-0.16-1.06-0.44c-0.29-0.29-0.44-0.66-0.44-1.06V435.2
		c0-0.83,0.67-1.5,1.5-1.5c0.83,0,1.5,0.67,1.5,1.5v93.34h79.42v-56.08c0-0.83,0.67-1.5,1.5-1.5c0.83,0,1.5,0.67,1.5,1.5v57.58
		c0,0.4-0.16,0.77-0.44,1.06C433.5,531.38,433.12,531.54,432.72,531.54z M432.72,463.96c-0.83,0-1.5-0.68-1.5-1.5
		c0-0.83,0.67-1.5,1.5-1.5c0.83,0,1.5,0.67,1.5,1.5C434.22,463.28,433.55,463.96,432.72,463.96z M432.72,453.96
		c-0.83,0-1.5-0.68-1.5-1.5v-45.92H351.8v8.66c0,0.82-0.67,1.5-1.5,1.5c-0.83,0-1.5-0.68-1.5-1.5v-10.16c0-0.4,0.16-0.78,0.44-1.06
		c0.28-0.28,0.66-0.44,1.06-0.44h82.42c0.4,0,0.78,0.15,1.06,0.44c0.28,0.28,0.44,0.66,0.44,1.06v47.42
		C434.22,453.28,433.55,453.96,432.72,453.96z M350.3,426.7c-0.83,0-1.5-0.68-1.5-1.5c0-0.83,0.67-1.5,1.5-1.5
		c0.83,0,1.5,0.67,1.5,1.5C351.8,426.02,351.13,426.7,350.3,426.7z"/>
	<path class="st2" d="M432.72,406.54H350.3c-0.4,0-0.78-0.16-1.06-0.44c-0.29-0.28-0.44-0.66-0.44-1.06v-20.81
		c0-0.4,0.16-0.78,0.44-1.06c0.28-0.28,0.66-0.44,1.06-0.44h25.65c0.83,0,1.5,0.67,1.5,1.5c0,0.01,0,0.03,0,0.04
		c-0.02,0.82-0.68,1.46-1.5,1.46H351.8v17.81h79.42v-17.81h-35.27c-0.83,0-1.5-0.67-1.5-1.5c0-0.83,0.67-1.5,1.5-1.5h36.77
		c0.4,0,0.77,0.15,1.06,0.44c0.28,0.28,0.44,0.66,0.44,1.06v20.81c0,0.4-0.16,0.78-0.44,1.06
		C433.5,406.38,433.12,406.54,432.72,406.54z M385.95,385.73c-0.83,0-1.5-0.67-1.5-1.5c0-0.83,0.67-1.5,1.5-1.5
		c0.82,0,1.5,0.67,1.5,1.5C387.45,385.06,386.77,385.73,385.95,385.73z"/>
	<path class="st2" d="M432.72,406.54H350.3c-0.4,0-0.78-0.16-1.06-0.44c-0.29-0.28-0.44-0.66-0.44-1.06v-15.71
		c0-0.39,0.16-0.78,0.44-1.06c0.28-0.28,0.66-0.44,1.06-0.44h20.55c0.82,0,1.5,0.67,1.5,1.5c0,0.83-0.68,1.5-1.5,1.5H351.8v12.71
		h79.42v-12.71h-40.37c-0.83,0-1.5-0.67-1.5-1.5c0-0.83,0.67-1.5,1.5-1.5h41.87c0.4,0,0.78,0.16,1.06,0.44
		c0.28,0.28,0.44,0.66,0.44,1.06v15.71c0,0.4-0.16,0.78-0.44,1.06C433.5,406.38,433.12,406.54,432.72,406.54z M380.85,390.83
		c-0.83,0-1.5-0.67-1.5-1.5c0-0.83,0.67-1.5,1.5-1.5c0.82,0,1.5,0.67,1.5,1.5C382.35,390.16,381.67,390.83,380.85,390.83z"/>
	<path class="st2" d="M350.3,385.99c-0.4,0-0.78-0.16-1.06-0.44c-5.28-5.26-9.32-11.59-11.67-18.33c-0.13-0.38-0.11-0.79,0.07-1.15
		c0.17-0.36,0.48-0.63,0.86-0.76c0.76-0.27,1.64,0.16,1.91,0.92c2.12,6.1,5.57,11.65,10.26,16.5h81.68
		c8.13-8.42,12.6-19.18,12.61-30.31c0-5-1.76-10.89-5.24-17.5c0,0,0,0,0-0.01c-0.11-0.21-0.17-0.43-0.17-0.67
		c-0.01-0.56,0.3-1.08,0.8-1.34c0.71-0.37,1.65-0.08,2.02,0.62c0.01,0,0.01,0,0.01,0.01c0.01,0.02,0.02,0.05,0.04,0.07
		c3.72,7.11,5.53,13.26,5.54,18.82c0,12.28-5.04,24.04-14.19,33.13c-0.42,0.42-1.08,0.55-1.63,0.32c-0.09-0.04-0.18-0.08-0.26-0.14
		h-80.74c-0.08,0.06-0.17,0.1-0.27,0.14C350.69,385.95,350.5,385.99,350.3,385.99z M336.8,358.49c-0.77,0-1.4-0.57-1.49-1.34
		c-0.04-0.4,0.08-0.79,0.33-1.1c0.25-0.31,0.61-0.51,1.01-0.55c0.82-0.08,1.56,0.52,1.65,1.33c0.04,0.4-0.08,0.79-0.33,1.11
		c-0.25,0.31-0.61,0.5-1.01,0.54C336.91,358.49,336.86,358.49,336.8,358.49z M337.16,348.55c-0.11,0-0.21-0.01-0.31-0.03
		c-0.7-0.15-1.2-0.77-1.19-1.48c0-0.1,0.01-0.2,0.03-0.3c0.98-4.57,3.08-9.64,6.23-15.08c2.89-4.99,6.76-10.45,11.51-16.21
		c8.07-9.81,18.8-20.73,32.8-33.39c0.43-0.39,1.08-0.49,1.61-0.25c0.01,0,0.01,0,0.01,0h6.93c0.11-0.11,0.24-0.19,0.38-0.26
		c0.53-0.24,1.17-0.15,1.61,0.23c13.94,12.02,25.82,24.09,34.37,34.9c0.51,0.65,0.4,1.59-0.25,2.1c-0.63,0.5-1.61,0.39-2.1-0.24
		c-8.25-10.43-19.69-22.09-33.11-33.73h-8.02c-13.28,11.98-24.09,23.02-32.12,32.82c-9.57,11.67-15.26,21.68-16.92,29.73
		C338.48,348.05,337.86,348.55,337.16,348.55z M435.89,327.17c-0.5,0-0.97-0.25-1.25-0.66c-0.22-0.34-0.3-0.74-0.23-1.13
		c0.08-0.39,0.31-0.73,0.64-0.96c0.66-0.44,1.63-0.25,2.08,0.41c0.46,0.68,0.28,1.61-0.4,2.08
		C436.48,327.08,436.19,327.17,435.89,327.17z"/>
	<path class="st2" d="M415.75,385.73h-65.71c-0.41,0-0.79-0.16-1.08-0.45c-4.26-4.38-7.61-9.3-9.95-14.65
		c-2.45-5.56-3.73-11.42-3.81-17.41l-0.13-0.8c0.03-9.49,5.6-21.05,17.01-35.34c0.5-0.63,1.48-0.74,2.1-0.23
		c0.65,0.51,0.75,1.46,0.24,2.1c-10.68,13.29-16.33,24.81-16.36,33.32l0.13,0.78c0.12,10.78,4.55,21.32,12.49,29.68h65.07h0.01
		c0.11,0,0.23,0.02,0.34,0.04c-0.28-0.5-0.25-1.13,0.09-1.6c5.93-8.29,9.07-18.23,9.07-28.75c0.05-8.2-3.81-18.66-11.48-31.09
		c-6.71-10.89-16.28-23.08-27.66-35.26c-6.93,6.34-13.17,12.39-18.54,18c-0.56,0.58-1.54,0.6-2.12,0.05
		c-0.3-0.29-0.47-0.68-0.47-1.09c0.01-0.39,0.15-0.76,0.42-1.04c5.71-5.95,12.36-12.39,19.78-19.14c0.59-0.53,1.56-0.49,2.1,0.08
		c12.15,12.97,21.81,25.18,28.73,36.28c8.07,12.95,12.19,24.13,12.24,33.21c0,5.61-0.86,11.13-2.55,16.38
		c-1.64,5.09-4.02,9.84-7.08,14.11c-0.35,0.49-0.99,0.73-1.57,0.59c0.12,0.22,0.18,0.47,0.18,0.73
		C417.24,385.06,416.57,385.73,415.75,385.73z M359.7,311.88c-0.36,0-0.72-0.13-0.99-0.38c-0.3-0.26-0.48-0.63-0.5-1.03
		c-0.03-0.4,0.11-0.79,0.37-1.08c0.53-0.6,1.53-0.66,2.12-0.13c0.3,0.26,0.48,0.63,0.5,1.03c0.03,0.4-0.11,0.79-0.37,1.09
		C360.54,311.7,360.13,311.88,359.7,311.88z"/>
	<path class="st2" d="M395.79,284.81h-8.56c-0.39,0-0.78-0.16-1.06-0.44c-0.28-0.28-0.44-0.67-0.44-1.06v-12.3
		c0-0.4,0.16-0.78,0.44-1.06c0.28-0.28,0.67-0.44,1.06-0.44h8.56c0.4,0,0.78,0.16,1.06,0.44c0.28,0.27,0.44,0.66,0.44,1.06v12.3
		c0,0.4-0.16,0.78-0.44,1.06C396.56,284.65,396.19,284.81,395.79,284.81z M388.73,281.81h5.56v-9.31h-5.56V281.81z"/>
	<path class="st2" d="M393.71,272.51h-4.41c-0.39,0-0.78-0.16-1.06-0.44c-0.28-0.28-0.44-0.67-0.44-1.06v-6.16
		c0-0.39,0.16-0.78,0.44-1.06c0.28-0.28,0.67-0.44,1.06-0.44h4.41c0.4,0,0.78,0.16,1.06,0.44c0.28,0.28,0.44,0.67,0.44,1.06v6.16
		c0,0.4-0.15,0.77-0.44,1.06C394.49,272.35,394.11,272.51,393.71,272.51z M390.81,266.35v3.16l1.4-0.01v-3.15H390.81z"/>
	<path class="st2" d="M350.3,427.61H247.4c-0.4,0-0.77-0.15-1.06-0.44c-0.28-0.28-0.44-0.66-0.44-1.06v-9.82
		c0-0.39,0.16-0.78,0.44-1.06c0.28-0.28,0.67-0.44,1.06-0.44h55.61c0.83,0,1.5,0.68,1.5,1.5c0,0.82-0.64,1.48-1.46,1.5
		c-0.01,0-0.02,0-0.04,0H248.9v6.82h99.9v-6.82h-25.79c-0.82,0-1.5-0.67-1.5-1.5c0-0.82,0.68-1.5,1.5-1.5h27.29
		c0.39,0,0.78,0.16,1.06,0.44c0.28,0.28,0.44,0.67,0.44,1.06v9.82c0,0.4-0.16,0.78-0.44,1.06
		C351.07,427.46,350.7,427.61,350.3,427.61z M313.01,417.79c-0.82,0-1.5-0.67-1.5-1.5c0-0.82,0.68-1.5,1.5-1.5
		c0.83,0,1.5,0.68,1.5,1.5C314.51,417.12,313.84,417.79,313.01,417.79z"/>
	<path class="st2" d="M535.62,427.61h-102.9c-0.4,0-0.78-0.15-1.06-0.44c-0.28-0.28-0.44-0.66-0.44-1.06v-9.82
		c0-0.39,0.16-0.78,0.44-1.06c0.28-0.28,0.66-0.44,1.06-0.44h55.62c0.83,0,1.5,0.68,1.5,1.5c0,0.83-0.67,1.5-1.5,1.5h-54.12v6.82
		h99.9v-6.82h-25.78c-0.83,0-1.5-0.67-1.5-1.5c0-0.82,0.67-1.5,1.5-1.5h27.28c0.4,0,0.78,0.16,1.06,0.44
		c0.29,0.29,0.44,0.67,0.44,1.06v9.82c0,0.4-0.16,0.78-0.44,1.06C536.4,427.46,536.02,427.61,535.62,427.61z M498.34,417.79
		c-0.83,0-1.5-0.67-1.5-1.5c0-0.82,0.67-1.5,1.5-1.5c0.83,0,1.5,0.68,1.5,1.5C499.84,417.12,499.17,417.79,498.34,417.79z"/>
	<path class="st2" d="M505.55,417.79h-52.87c-0.4,0-0.78-0.15-1.06-0.44c-0.28-0.28-0.44-0.66-0.44-1.06V405.3
		c0-0.39,0.16-0.78,0.44-1.06c0.28-0.28,0.67-0.44,1.06-0.44h52.87c0.4,0,0.78,0.16,1.06,0.44c0.28,0.28,0.44,0.66,0.44,1.06v10.99
		c0,0.41-0.16,0.78-0.44,1.06C506.33,417.64,505.95,417.79,505.55,417.79z M454.18,414.79h49.87v-7.99h-49.87V414.79z"/>
	<path class="st2" d="M505.42,406.8h-52.61c-0.4,0-0.79-0.16-1.06-0.44c-2.9-2.92-5.15-6.21-6.7-9.79
		c-1.61-3.71-2.42-7.64-2.42-11.69c0.05-4.93,2.21-10.51,6.6-17.04c3.63-5.4,8.83-11.48,15.88-18.59c0.57-0.56,1.55-0.56,2.12,0
		c0.58,0.59,0.58,1.54,0,2.13c-14.03,13.93-21.7,25.82-21.6,33.5c0,7.01,2.7,13.55,7.82,18.92h51.34
		c5.11-5.37,7.81-11.91,7.82-18.92c0.02-5.24-3.14-12.17-9.15-20.03c-5.34-7.03-13.03-14.94-22.24-22.89
		c-0.33-0.29-0.52-0.7-0.52-1.14c0-0.36,0.13-0.7,0.37-0.98c0.52-0.6,1.51-0.67,2.11-0.15c9.5,8.21,17.12,16.06,22.67,23.34
		c6.53,8.62,9.73,15.77,9.75,21.85c0.01,4.04-0.81,7.98-2.42,11.69c-1.55,3.58-3.8,6.87-6.69,9.79
		C506.2,406.64,505.82,406.8,505.42,406.8z M473.39,344.89c-0.42,0-0.82-0.18-1.11-0.48c-0.27-0.3-0.41-0.68-0.39-1.08
		c0.01-0.4,0.18-0.77,0.47-1.04c0.01-0.01,0.01-0.01,0.01-0.01c0.59-0.54,1.58-0.49,2.12,0.09c0.55,0.6,0.52,1.55-0.08,2.11
		c0,0,0,0.01-0.01,0.01C474.13,344.75,473.76,344.89,473.39,344.89z"/>
	<path class="st2" d="M483.39,342.01h-8.55c-0.4,0-0.78-0.16-1.06-0.44c-0.28-0.28-0.44-0.66-0.44-1.06v-6.15
		c0-0.4,0.16-0.78,0.44-1.06c0.28-0.28,0.66-0.44,1.06-0.44h8.55c0.4,0,0.78,0.16,1.06,0.44c0.28,0.28,0.44,0.66,0.44,1.06v6.15
		c0,0.4-0.16,0.78-0.44,1.06C484.17,341.85,483.79,342.01,483.39,342.01z M476.34,339.01h5.55v-3.15h-5.55V339.01z"/>
	<path class="st2" d="M329.05,417.79h-52.88c-0.4,0-0.78-0.15-1.06-0.44c-0.28-0.28-0.44-0.66-0.44-1.06V405.3
		c0-0.39,0.16-0.78,0.44-1.06c0.28-0.28,0.67-0.44,1.06-0.44h52.88c0.39,0,0.78,0.16,1.06,0.44c0.28,0.28,0.44,0.66,0.44,1.06v10.99
		c0,0.4-0.16,0.78-0.44,1.06C329.82,417.64,329.45,417.79,329.05,417.79z M277.67,414.79h49.88v-7.99h-49.88V414.79z"/>
	<path class="st2" d="M328.92,406.8H276.3c-0.39,0-0.78-0.16-1.06-0.44c-2.89-2.92-5.14-6.21-6.7-9.79
		c-1.61-3.71-2.42-7.65-2.42-11.69c0.05-4.93,2.21-10.51,6.6-17.04c3.63-5.41,8.83-11.48,15.88-18.59c0.57-0.56,1.56-0.56,2.12,0
		c0.29,0.29,0.44,0.66,0.44,1.06c0,0.41-0.15,0.78-0.44,1.07c-14.03,13.92-21.7,25.82-21.6,33.5c0,7.01,2.71,13.55,7.82,18.92h51.34
		c5.11-5.37,7.82-11.91,7.82-18.92c0.03-5.24-3.13-12.17-9.14-20.03c-5.34-7.02-13.04-14.94-22.25-22.89
		c-0.33-0.28-0.51-0.7-0.52-1.13c0-0.37,0.13-0.71,0.37-0.99c0.52-0.6,1.51-0.67,2.12-0.15c9.5,8.21,17.12,16.06,22.66,23.34
		c6.54,8.62,9.73,15.77,9.76,21.85c0,4.04-0.81,7.98-2.42,11.69c-1.56,3.58-3.81,6.87-6.7,9.79
		C329.7,406.64,329.31,406.8,328.92,406.8z M296.88,344.89c-0.42,0-0.82-0.18-1.1-0.48c-0.28-0.29-0.42-0.68-0.4-1.08
		c0.01-0.4,0.18-0.77,0.48-1.04c0,0,0-0.01,0.01-0.01c0.58-0.53,1.57-0.49,2.11,0.09c0.27,0.3,0.41,0.68,0.4,1.08
		c-0.02,0.4-0.19,0.77-0.48,1.04C297.62,344.75,297.26,344.89,296.88,344.89z"/>
	<path class="st2" d="M306.89,342.01h-8.55c-0.4,0-0.79-0.16-1.07-0.44c-0.28-0.28-0.44-0.67-0.44-1.06v-6.15
		c0-0.4,0.16-0.78,0.44-1.06c0.28-0.28,0.67-0.44,1.07-0.44h8.55c0.39,0,0.78,0.16,1.06,0.44c0.27,0.28,0.43,0.66,0.43,1.06v6.15
		c0,0.4-0.15,0.78-0.43,1.06C307.66,341.85,307.29,342.01,306.89,342.01z M299.83,339.01h5.55v-3.15h-5.55V339.01z"/>
	<path class="st2" d="M623.47,552.35c-0.83,0-1.5-0.67-1.5-1.5c0-0.83,0.67-1.5,1.5-1.5h34.28v-17.81h-81.91
		c-0.83,0-1.5-0.68-1.5-1.5c0-0.83,0.67-1.5,1.5-1.5h83.41c0.4,0,0.77,0.15,1.06,0.44c0.28,0.28,0.44,0.66,0.44,1.06v20.81
		c0,0.4-0.16,0.78-0.44,1.06c-0.29,0.29-0.66,0.44-1.06,0.44H623.47L623.47,552.35z M613.47,552.35c-0.83,0-1.5-0.67-1.5-1.5
		c0-0.83,0.67-1.5,1.5-1.5c0.83,0,1.5,0.67,1.5,1.5C614.97,551.68,614.3,552.35,613.47,552.35z M603.47,552.35h-140
		c-0.83,0-1.5-0.67-1.5-1.5c0-0.83,0.67-1.5,1.5-1.5h140c0.83,0,1.5,0.67,1.5,1.5C604.97,551.68,604.3,552.35,603.47,552.35z
		 M453.47,552.35c-0.83,0-1.5-0.67-1.5-1.5c0-0.83,0.67-1.5,1.5-1.5c0.83,0,1.5,0.67,1.5,1.5
		C454.97,551.68,454.3,552.35,453.47,552.35z M443.47,552.35h-140c-0.83,0-1.5-0.67-1.5-1.5c0-0.83,0.67-1.5,1.5-1.5h140
		c0.83,0,1.5,0.67,1.5,1.5C444.97,551.68,444.3,552.35,443.47,552.35z M293.47,552.35c-0.83,0-1.5-0.67-1.5-1.5
		c0-0.83,0.67-1.5,1.5-1.5s1.5,0.67,1.5,1.5C294.97,551.68,294.3,552.35,293.47,552.35z M283.47,552.35h-140
		c-0.4,0-0.78-0.15-1.06-0.44c-0.28-0.28-0.44-0.66-0.44-1.06v-20.81c0-0.4,0.16-0.78,0.44-1.06c0.28-0.28,0.66-0.44,1.06-0.44
		h92.37c0.83,0,1.5,0.67,1.5,1.5c0,0.82-0.67,1.5-1.5,1.5h-90.87v17.81h138.5c0.83,0,1.5,0.68,1.5,1.5
		C284.97,551.68,284.3,552.35,283.47,552.35z M565.84,531.54c-0.83,0-1.5-0.68-1.5-1.5c0-0.83,0.67-1.5,1.5-1.5
		c0.83,0,1.5,0.67,1.5,1.5C567.34,530.86,566.67,531.54,565.84,531.54z M555.84,531.54h-140c-0.83,0-1.5-0.68-1.5-1.5
		c0-0.83,0.67-1.5,1.5-1.5h140c0.83,0,1.5,0.67,1.5,1.5C557.34,530.86,556.67,531.54,555.84,531.54z M405.84,531.54
		c-0.83,0-1.5-0.68-1.5-1.5c0-0.83,0.67-1.5,1.5-1.5c0.83,0,1.5,0.67,1.5,1.5C407.34,530.86,406.67,531.54,405.84,531.54z
		 M395.84,531.54h-140c-0.83,0-1.5-0.68-1.5-1.5c0-0.83,0.67-1.5,1.5-1.5h140c0.83,0,1.5,0.67,1.5,1.5
		C397.34,530.86,396.67,531.54,395.84,531.54z M245.84,531.54c-0.83,0-1.5-0.68-1.5-1.5c0-0.83,0.67-1.5,1.5-1.5
		c0.83,0,1.5,0.67,1.5,1.5C247.34,530.86,246.67,531.54,245.84,531.54z"/>
	<path class="st2" d="M360.67,406.54H350.3c-0.4,0-0.78-0.16-1.06-0.44c-0.28-0.29-0.44-0.66-0.44-1.06v-15.71
		c0-0.39,0.16-0.78,0.44-1.06c0.28-0.28,0.66-0.44,1.06-0.44h10.37c0.39,0,0.78,0.16,1.06,0.44c0.28,0.28,0.44,0.66,0.44,1.06v15.71
		c0,0.4-0.16,0.77-0.44,1.06C361.45,406.38,361.07,406.54,360.67,406.54z M351.8,403.54h7.37v-12.71h-7.37V403.54z"/>
	<path class="st2" d="M370.91,406.54h-10.24c-0.4,0-0.78-0.16-1.06-0.44c-0.28-0.29-0.44-0.66-0.44-1.06v-15.71
		c0-0.39,0.16-0.78,0.44-1.06c0.28-0.28,0.67-0.44,1.06-0.44h10.24c0.39,0,0.78,0.16,1.06,0.44c0.28,0.28,0.44,0.67,0.44,1.06v15.71
		c0,0.4-0.16,0.77-0.44,1.06C371.69,406.38,371.31,406.54,370.91,406.54z M362.17,403.54h7.24v-12.71h-7.24V403.54z"/>
	<path class="st2" d="M381.27,406.54h-10.36c-0.4,0-0.78-0.16-1.06-0.44c-0.29-0.29-0.44-0.66-0.44-1.06v-15.71
		c0-0.39,0.16-0.78,0.44-1.06c0.28-0.28,0.67-0.44,1.06-0.44h10.36c0.4,0,0.78,0.16,1.06,0.44c0.28,0.28,0.44,0.67,0.44,1.06v15.71
		c0,0.4-0.15,0.77-0.44,1.06C382.05,406.38,381.68,406.54,381.27,406.54z M372.41,403.54h7.36v-12.71h-7.36V403.54z"/>
	<path class="st2" d="M391.51,406.54h-10.24c-0.4,0-0.77-0.16-1.06-0.44c-0.28-0.29-0.44-0.66-0.44-1.06v-15.71
		c0-0.39,0.16-0.78,0.44-1.06c0.28-0.28,0.67-0.44,1.06-0.44h10.24c0.4,0,0.78,0.16,1.06,0.44c0.28,0.28,0.44,0.67,0.44,1.06v15.71
		c0,0.4-0.15,0.77-0.44,1.06C392.29,406.38,391.91,406.54,391.51,406.54z M382.77,403.54h7.24v-12.71h-7.24V403.54z"/>
	<path class="st2" d="M401.75,406.54h-10.24c-0.4,0-0.78-0.16-1.06-0.44c-0.28-0.29-0.44-0.66-0.44-1.06v-15.71
		c0-0.39,0.16-0.78,0.44-1.06c0.28-0.28,0.67-0.44,1.06-0.44h10.24c0.4,0,0.77,0.16,1.06,0.44c0.28,0.28,0.44,0.66,0.44,1.06v15.71
		c0,0.4-0.16,0.77-0.44,1.06C402.53,406.38,402.15,406.54,401.75,406.54z M393.01,403.54h7.24v-12.71h-7.24V403.54z"/>
	<path class="st2" d="M412.12,406.54h-10.37c-0.4,0-0.78-0.16-1.06-0.44c-0.29-0.28-0.44-0.66-0.44-1.06v-15.71
		c0-0.39,0.16-0.78,0.44-1.06c0.28-0.28,0.66-0.44,1.06-0.44h10.37c0.4,0,0.77,0.16,1.06,0.44c0.28,0.28,0.43,0.66,0.43,1.06v15.71
		c0,0.4-0.15,0.78-0.44,1.06C412.89,406.38,412.52,406.54,412.12,406.54z M403.25,403.54h7.36v-12.71h-7.36V403.54z"/>
	<path class="st2" d="M422.35,406.54h-10.24c-0.4,0-0.77-0.16-1.06-0.44c-0.28-0.29-0.44-0.66-0.44-1.06v-15.71
		c0-0.39,0.16-0.78,0.44-1.06c0.28-0.28,0.67-0.44,1.06-0.44h10.24c0.4,0,0.78,0.16,1.06,0.44c0.29,0.29,0.44,0.66,0.44,1.06v15.71
		c0,0.4-0.15,0.78-0.44,1.06C423.13,406.38,422.75,406.54,422.35,406.54z M413.61,403.54h7.24v-12.71h-7.24V403.54z"/>
	<path class="st2" d="M432.72,413.6H350.3c-0.4,0-0.78-0.15-1.06-0.43c-0.29-0.29-0.44-0.66-0.44-1.06v-7.07
		c0-0.4,0.16-0.78,0.44-1.06c0.28-0.28,0.66-0.44,1.06-0.44h11.91c0.82,0,1.5,0.67,1.5,1.5c0,0.82-0.65,1.48-1.46,1.5H351.8v4.06
		h79.42v-4.06h-49.01c-0.83,0-1.5-0.68-1.5-1.5c0-0.83,0.67-1.5,1.5-1.5h50.51c0.4,0,0.78,0.15,1.06,0.44
		c0.28,0.28,0.44,0.66,0.44,1.06v7.07c0,0.4-0.16,0.77-0.44,1.06C433.5,413.45,433.12,413.6,432.72,413.6z M372.21,406.54
		c-0.83,0-1.5-0.68-1.5-1.5c0-0.83,0.67-1.5,1.5-1.5c0.82,0,1.5,0.67,1.5,1.5C373.71,405.86,373.03,406.54,372.21,406.54z"/>
	<path class="st2" d="M422.35,531.54h-61.68c-0.4,0-0.78-0.16-1.06-0.44c-0.28-0.29-0.44-0.66-0.44-1.06v-11.22
		c0-0.82,0.67-1.5,1.5-1.5s1.5,0.68,1.5,1.5v9.72h58.68v-76.82c0-0.83,0.67-1.5,1.5-1.5c0.83,0,1.5,0.67,1.5,1.5v78.32
		c0,0.4-0.16,0.77-0.44,1.06C423.13,531.38,422.75,531.54,422.35,531.54z M360.67,510.32c-0.83,0-1.5-0.67-1.5-1.5
		c0-0.82,0.67-1.5,1.5-1.5s1.5,0.68,1.5,1.5C362.17,509.65,361.5,510.32,360.67,510.32z M360.67,500.32c-0.83,0-1.5-0.67-1.5-1.5
		v-72.71c0-0.39,0.16-0.78,0.44-1.06c0.28-0.28,0.66-0.44,1.06-0.44h61.68c0.4,0,0.78,0.16,1.06,0.44c0.28,0.28,0.44,0.66,0.44,1.06
		v5.59c0,0.01,0,0.01,0,0.02c0,0.83-0.67,1.5-1.5,1.5c-0.83,0-1.5-0.67-1.5-1.5v-4.11h-58.68v71.21
		C362.17,499.65,361.5,500.32,360.67,500.32z M422.35,443.22c-0.83,0-1.5-0.67-1.5-1.5s0.67-1.5,1.5-1.5c0.83,0,1.5,0.67,1.5,1.5
		S423.18,443.22,422.35,443.22z"/>
	<path class="st2" d="M377.38,531.54c-0.82,0-1.5-0.67-1.5-1.5c0-0.83,0.68-1.5,1.5-1.5h33.24v-71.27
		c-0.02-10.63-8.6-19.3-19.11-19.32c-10.51,0.02-19.08,8.69-19.1,19.32v59.23c0,0.01,0,0.01,0,0.02c0,0.82-0.68,1.5-1.5,1.5
		c-0.83,0-1.5-0.68-1.5-1.5v-59.25c0-5.92,2.31-11.5,6.51-15.74c4.19-4.24,9.73-6.57,15.59-6.58c5.86,0.01,11.4,2.34,15.6,6.58
		c4.19,4.24,6.5,9.82,6.5,15.74v72.77c0,0.4-0.15,0.78-0.44,1.06c-0.28,0.28-0.65,0.44-1.05,0.44H377.38z M370.91,528.01
		c-0.83,0-1.5-0.67-1.5-1.5c0-0.82,0.67-1.5,1.5-1.5c0.82,0,1.5,0.68,1.5,1.5C372.41,527.34,371.73,528.01,370.91,528.01z"/>
	<path class="st2" d="M422.35,469.11h-61.68c-0.4,0-0.78-0.16-1.06-0.44c-0.28-0.29-0.44-0.66-0.44-1.06v-41.5
		c0-0.39,0.16-0.78,0.44-1.06c0.28-0.28,0.67-0.44,1.06-0.44h4.86c0.82,0,1.5,0.67,1.5,1.5c0,0.83-0.68,1.5-1.5,1.5h-3.36v38.5
		h58.68v-38.5h-35.32c-0.83,0-1.5-0.67-1.5-1.5c0-0.83,0.67-1.5,1.5-1.5h36.82c0.4,0,0.78,0.16,1.06,0.44
		c0.28,0.29,0.44,0.66,0.44,1.06v41.5c0,0.4-0.16,0.77-0.44,1.06C423.13,468.95,422.75,469.11,422.35,469.11z M375.53,427.61
		c-0.83,0-1.5-0.67-1.5-1.5c0-0.83,0.67-1.5,1.5-1.5c0.82,0,1.5,0.67,1.5,1.5C377.03,426.94,376.35,427.61,375.53,427.61z"/>
	<path class="st2" d="M401.75,531.54h-20.48c-0.4,0-0.77-0.16-1.06-0.44c-0.28-0.29-0.44-0.66-0.44-1.06v-41.62
		c0.01-6.52,5.27-11.84,11.74-11.85l0,0l0,0l0,0l0,0l0,0l0,0c6.47,0.01,11.74,5.33,11.74,11.85v41.62c0,0.4-0.16,0.77-0.44,1.06
		C402.52,531.38,402.15,531.54,401.75,531.54z M382.77,528.54h17.48v-40.12c-0.01-4.87-3.93-8.84-8.74-8.85
		c-4.81,0.01-8.73,3.98-8.74,8.85V528.54z"/>
	<path class="st2" d="M535.62,531.54h-40.95c-0.4,0-0.78-0.16-1.06-0.44c-0.29-0.29-0.44-0.66-0.44-1.06V426.11
		c0-0.39,0.16-0.78,0.44-1.06c0.28-0.28,0.66-0.44,1.06-0.44h25.83c0.83,0,1.5,0.68,1.5,1.5c0,0.82-0.64,1.48-1.46,1.5h-0.04h-24.34
		v100.93h37.96v-97.55c0-0.82,0.67-1.5,1.5-1.5c0.83,0,1.5,0.68,1.5,1.5v99.05c0,0.4-0.16,0.77-0.44,1.06
		C536.4,531.38,536.02,531.54,535.62,531.54z M530.5,427.61c-0.83,0-1.5-0.67-1.5-1.5c0-0.82,0.67-1.5,1.5-1.5
		c0.83,0,1.5,0.68,1.5,1.5C532,426.94,531.33,427.61,530.5,427.61z"/>
	<path class="st2" d="M288.36,531.54H247.4c-0.4,0-0.78-0.16-1.06-0.44c-0.28-0.29-0.44-0.66-0.44-1.06V426.11
		c0-0.39,0.16-0.78,0.44-1.06c0.28-0.28,0.66-0.44,1.06-0.44h25.83c0.83,0,1.5,0.68,1.5,1.5c0,0.83-0.67,1.5-1.5,1.5H248.9v100.93
		h37.96v-97.55c0-0.83,0.67-1.5,1.5-1.5c0.82,0,1.5,0.67,1.5,1.5v99.05c0,0.4-0.16,0.77-0.44,1.06
		C289.13,531.38,288.76,531.54,288.36,531.54z M283.24,427.61c-0.83,0-1.5-0.67-1.5-1.5c0-0.82,0.67-1.5,1.5-1.5
		c0.82,0,1.49,0.68,1.49,1.5C284.73,426.94,284.06,427.61,283.24,427.61z"/>
	<path class="st2" d="M478.98,479.57h-30.96c-0.4,0-0.78-0.15-1.07-0.43c-0.28-0.29-0.43-0.67-0.43-1.06v-26.31
		c0-4.59,1.76-8.9,4.93-12.15c3.2-3.26,7.45-5.06,11.99-5.06l0,0l0,0l0,0c9.39,0.01,17.04,7.73,17.04,17.21v26.31
		c0,0.4-0.15,0.77-0.44,1.05C479.76,479.42,479.38,479.57,478.98,479.57z M449.51,476.58h27.97v-24.81
		c-0.01-7.82-6.31-14.2-14.04-14.21c-7.68,0.01-13.92,6.39-13.93,14.21V476.58z"/>
	<path class="st2" d="M478.98,531.54h-30.96c-0.41,0-0.78-0.16-1.06-0.44c-0.29-0.29-0.44-0.66-0.44-1.06v-26.31
		c0-4.58,1.76-8.86,4.94-12.08c3.19-3.21,7.44-4.99,11.98-4.99l0,0l0,0c9.4,0,17.04,7.65,17.04,17.07v26.31
		c0,0.4-0.15,0.77-0.44,1.06C479.76,531.38,479.39,531.54,478.98,531.54z M449.51,528.54h27.97v-24.81
		c-0.01-7.75-6.31-14.06-14.04-14.07c-7.67,0-13.92,6.31-13.93,14.07V528.54z"/>
	<path class="st2" d="M523.95,479.57h-17.49c-0.4,0-0.78-0.15-1.06-0.43c-0.28-0.29-0.44-0.66-0.44-1.07v-33.11
		c0-5.72,4.57-10.39,10.18-10.4l0,0l0,0l0,0c2.73,0.01,5.32,1.1,7.27,3.08c1.95,1.97,3.03,4.57,3.04,7.32v33.11
		c0,0.41-0.15,0.78-0.44,1.07C524.73,479.42,524.35,479.57,523.95,479.57z M507.96,476.57h14.49v-31.61c0-4-3.35-7.4-7.31-7.4
		c-3.88,0-7.17,3.4-7.18,7.4V476.57z"/>
	<path class="st2" d="M523.95,531.54h-17.49c-0.4,0-0.78-0.16-1.06-0.44c-0.28-0.29-0.44-0.66-0.44-1.06v-33.12
		c0.01-5.66,4.58-10.26,10.18-10.26l0,0l0,0c5.67,0,10.3,4.61,10.31,10.26v33.12c0,0.4-0.15,0.77-0.44,1.06
		C524.73,531.38,524.35,531.54,523.95,531.54z M507.96,528.54h14.49v-31.62c-0.01-4-3.29-7.26-7.31-7.26
		c-3.96,0-7.18,3.26-7.18,7.26V528.54z"/>
	<path class="st2" d="M334.1,479.57H303c-0.4,0-0.78-0.15-1.06-0.43c-0.28-0.29-0.44-0.66-0.44-1.07v-26.3
		c0-9.49,7.65-17.2,17.05-17.21l0,0l0,0l0,0c9.4,0.01,17.05,7.72,17.05,17.21v26.3c0,0.41-0.16,0.78-0.44,1.07
		C334.88,479.42,334.5,479.57,334.1,479.57z M304.5,476.57h28.1v-24.8c-0.01-7.82-6.32-14.2-14.05-14.21
		c-7.73,0.01-14.04,6.39-14.05,14.21V476.57z"/>
	<path class="st2" d="M334.1,531.54H303c-0.4,0-0.78-0.16-1.06-0.44c-0.28-0.29-0.44-0.66-0.44-1.06v-26.31
		c0-9.42,7.65-17.07,17.05-17.07c9.4,0,17.05,7.65,17.05,17.07v26.31c0,0.4-0.16,0.77-0.44,1.06
		C334.88,531.38,334.5,531.54,334.1,531.54z M304.5,528.54h28.1v-24.81c-0.01-7.75-6.32-14.06-14.05-14.07
		c-7.73,0.01-14.04,6.32-14.05,14.07V528.54z"/>
	<path class="st2" d="M275.52,479.57h-17.36c-0.4,0-0.78-0.15-1.06-0.43c-0.29-0.29-0.44-0.66-0.44-1.07v-33.11
		c0-5.72,4.57-10.39,10.18-10.4l0,0l0,0l0,0l0,0c5.61,0.01,10.18,4.68,10.19,10.4v33.11c0,0.41-0.16,0.78-0.44,1.07
		C276.3,479.42,275.93,479.57,275.52,479.57z M259.66,476.57h14.36v-31.61c0-4.01-3.29-7.4-7.18-7.4c-3.89,0-7.18,3.39-7.18,7.4
		V476.57z"/>
	<path class="st2" d="M275.53,531.54h-17.37c-0.4,0-0.78-0.16-1.06-0.44c-0.29-0.29-0.44-0.66-0.44-1.06v-33.12
		c0.01-5.66,4.58-10.26,10.18-10.26c5.61,0,10.18,4.6,10.19,10.26v33.12c0,0.4-0.16,0.77-0.45,1.06
		C276.3,531.38,275.93,531.54,275.53,531.54z M259.66,528.54h14.36v-31.62c0-4-3.22-7.26-7.18-7.26c-3.96,0-7.18,3.26-7.18,7.26
		V528.54z"/>
	<path class="st2" d="M188.57,531.54h-39.01c-0.41,0-0.81-0.17-1.09-0.47c-0.28-0.3-0.43-0.71-0.41-1.12l0.07-1.19
		c0.05-0.82,0.75-1.47,1.59-1.41c0.67,0.04,1.24,0.53,1.38,1.19h35.88l-3.85-65.72h-28.14l-2.7,46.15
		c-0.04,0.82-0.76,1.46-1.58,1.41c-0.8-0.04-1.42-0.71-1.41-1.51c0-0.02,0-0.05,0-0.07l2.78-47.56c0.05-0.8,0.7-1.42,1.5-1.42h30.97
		c0.79,0,1.45,0.62,1.5,1.42l4.02,68.71c0.02,0.41-0.13,0.82-0.41,1.12C189.38,531.37,188.98,531.54,188.57,531.54z M150.22,520.37
		c-0.03,0-0.06,0-0.09-0.01c-0.4-0.02-0.77-0.2-1.04-0.5c-0.26-0.3-0.4-0.68-0.38-1.08c0.05-0.82,0.76-1.46,1.59-1.41
		c0.83,0.05,1.46,0.76,1.41,1.58C151.66,519.75,151.01,520.37,150.22,520.37z"/>
	<path class="st2" d="M187.29,462.82h-36.56c-2.76,0-5-2.32-5-5.16c0-2.77,2.24-5.03,5-5.04h36.54c2.82,0.01,5.12,2.27,5.13,5.04
		c0,1.41-0.52,2.71-1.47,3.67C190,462.28,188.67,462.82,187.29,462.82z M150.73,459.82h36.54c1.3-0.03,2.09-0.84,2.13-2.16
		c-0.02-1.2-0.88-2.01-2.13-2.04h-36.54c-1.12,0.01-2,0.9-2,2.04C148.75,458.92,149.57,459.81,150.73,459.82L150.73,459.82z"/>
	<path class="st2" d="M184.29,455.62h-30.45c-0.42,0-0.8-0.16-1.09-0.46c-0.28-0.3-0.43-0.69-0.41-1.1l0.73-16.24
		c0.03-0.83,0.73-1.46,1.56-1.43c0.83,0.03,1.47,0.74,1.43,1.56l-0.66,14.67h27.32l-3.1-66.11h-21.24l-1.42,31.46
		c-0.03,0.83-0.74,1.47-1.56,1.43c-0.8-0.03-1.43-0.69-1.44-1.49c0-0.02,0-0.05,0.01-0.07l1.48-32.9c0.03-0.8,0.69-1.43,1.49-1.43
		h24.11c0.8,0,1.46,0.63,1.5,1.43l3.24,69.11c0.02,0.42-0.13,0.81-0.41,1.11C185.09,455.46,184.7,455.62,184.29,455.62z
		 M155.02,429.39c-0.02,0-0.05,0-0.07,0c-0.4-0.01-0.77-0.19-1.04-0.48c-0.27-0.3-0.41-0.68-0.39-1.08
		c0.04-0.83,0.76-1.47,1.56-1.43c0.83,0.03,1.47,0.74,1.43,1.56C156.48,428.77,155.82,429.39,155.02,429.39z"/>
	<path class="st2" d="M184.16,386.51L184.16,386.51h-30.19c-2.75-0.02-5-2.34-5-5.16c0-2.83,2.25-5.14,5-5.17h30.19
		c2.75,0.03,4.99,2.35,5,5.17C189.15,384.17,186.91,386.48,184.16,386.51z M153.97,383.51h30.19c1.06,0,2-1.01,2-2.16
		c0-1.15-0.94-2.17-2-2.17h-30.19c-1.07,0-2,1.02-2,2.17C151.97,382.5,152.9,383.51,153.97,383.51L153.97,383.51z"/>
	<path class="st2" d="M182.48,379.18h-26.83c-0.4,0-0.8-0.16-1.08-0.46c-0.28-0.29-0.44-0.69-0.42-1.1l0.9-22.73
		c0.03-0.83,0.73-1.49,1.56-1.45c0.4,0.02,0.77,0.19,1.04,0.48c0.27,0.3,0.41,0.68,0.4,1.08l-0.84,21.18h23.71l-2.61-65.98h-18.49
		l-0.98,24.82c-0.04,0.83-0.72,1.47-1.56,1.44c-0.8-0.03-1.44-0.69-1.44-1.48c0-0.03,0-0.05,0-0.08l1.03-26.26
		c0.04-0.81,0.69-1.44,1.5-1.44h21.39c0.8,0,1.46,0.63,1.49,1.44l2.73,68.98c0.01,0.41-0.14,0.81-0.42,1.1
		C183.28,379.01,182.88,379.18,182.48,379.18z M156.94,346.45c-0.02,0-0.04,0-0.06,0c-0.82-0.03-1.47-0.73-1.44-1.56
		c0.04-0.83,0.72-1.47,1.56-1.44c0.4,0.02,0.77,0.19,1.04,0.48c0.28,0.3,0.42,0.68,0.4,1.08
		C158.41,345.82,157.75,346.45,156.94,346.45z"/>
	<path class="st2" d="M182.09,310.2L182.09,310.2h-26.18c-2.75,0-5-2.26-5-5.03c0.01-2.82,2.25-5.14,5-5.17h26.18
		c2.82,0.01,5.12,2.32,5.12,5.17C187.21,307.94,184.91,310.2,182.09,310.2z M155.91,307.2h26.18c1.25-0.02,2.1-0.84,2.13-2.03
		c-0.01-1.21-0.95-2.17-2.13-2.17h-26.18c-1.06,0-2,1.02-2,2.17C153.92,306.3,154.8,307.2,155.91,307.2L155.91,307.2z"/>
	<path class="st2" d="M179.11,303h-20.09c-0.39,0-0.78-0.16-1.06-0.44c-0.28-0.27-0.44-0.66-0.44-1.06v-21.33
		c0-0.4,0.16-0.78,0.44-1.06c0.28-0.28,0.67-0.44,1.06-0.44h20.09c0.39,0,0.78,0.16,1.06,0.44c0.28,0.27,0.44,0.66,0.44,1.06v21.33
		c0,0.4-0.16,0.78-0.44,1.06C179.88,302.85,179.51,303,179.11,303z M160.52,281.67V300h17.09v-18.33H160.52z"/>
	<path class="st2" d="M178.72,281.66h-19.31c-0.4,0-0.79-0.16-1.07-0.44c-2.37-2.39-3.67-5.42-3.67-8.51
		c0.05-3.14,2.13-6.12,4.16-8.63c2.56-3.1,5.96-6.29,8.65-8.71c0.27-0.25,0.63-0.39,1-0.39h1.04c0.36,0,0.71,0.13,0.98,0.36
		c3.81,3.31,6.68,6.15,8.78,8.69c2.04,2.51,4.13,5.51,4.18,8.68c0,3.1-1.31,6.12-3.67,8.51
		C179.5,281.51,179.12,281.66,178.72,281.66z M160.06,278.67h18.01c1.54-1.75,2.39-3.87,2.39-5.96c0.04-1.57-1.27-4.1-3.5-6.77
		c-1.87-2.28-4.55-4.94-7.95-7.92c-3.57,3.25-6.06,5.78-7.86,7.97c-2.22,2.66-3.53,5.17-3.48,6.72
		C157.67,274.8,158.52,276.92,160.06,278.67z"/>
	<path class="st2" d="M233.67,531.54h-26.96c-0.41,0-0.81-0.17-1.09-0.47c-0.28-0.3-0.43-0.71-0.41-1.12l2.52-43.99
		c0.05-0.82,0.74-1.46,1.58-1.41c0.83,0.04,1.46,0.75,1.42,1.58l-2.43,42.41h23.77l-2.66-44.52h-19.97c0,0.01-0.01,0.01-0.01,0.01
		c-0.83,0-1.5-0.68-1.5-1.5c0-0.83,0.67-1.5,1.5-1.5h21.39c0.79,0,1.45,0.62,1.49,1.41l2.85,47.51c0.03,0.41-0.12,0.82-0.4,1.12
		C234.47,531.37,234.08,531.54,233.67,531.54z"/>
	<path class="st2" d="M232.76,484.03L232.76,484.03h-25.27c-2.21-0.06-3.91-1.77-3.97-3.99c0.03-2.27,1.77-4.08,3.97-4.12h25.27
		c2.25,0.01,4.09,1.86,4.09,4.12C236.82,482.25,235.02,484,232.76,484.03z M207.48,478.92c-0.21,0-0.44,0.12-0.63,0.31
		c-0.21,0.22-0.33,0.51-0.33,0.81c0,0.22,0.12,0.48,0.31,0.68c0.19,0.18,0.44,0.3,0.65,0.3h0.01h25.27l0,0
		c0.29,0,0.57-0.11,0.78-0.32c0.2-0.19,0.32-0.44,0.31-0.66c0-0.6-0.5-1.12-1.09-1.12H207.48z"/>
	<path class="st2" d="M230.69,478.92h-21c-0.42,0-0.8-0.16-1.08-0.46c-0.29-0.3-0.44-0.69-0.42-1.1l2.08-47.78
		c0.03-0.8,0.69-1.43,1.5-1.43h16.71c0.8,0,1.46,0.63,1.5,1.43l2.21,47.77c0.02,0.42-0.13,0.81-0.42,1.11
		C231.49,478.76,231.1,478.92,230.69,478.92z M211.26,475.92h17.86l-2.07-44.77H213.2L211.26,475.92z"/>
	<path class="st2" d="M230.56,431.15L230.56,431.15h-20.87c-2.2-0.06-3.91-1.77-3.96-3.99c0-2.19,1.78-3.98,3.96-3.98h20.89
		c1.07,0,2.09,0.41,2.81,1.14c0.72,0.73,1.13,1.76,1.13,2.84C234.51,429.35,232.74,431.14,230.56,431.15z M209.69,426.17
		c-0.46,0.01-0.96,0.36-0.96,0.99c0,0.22,0.12,0.49,0.31,0.68c0.18,0.19,0.44,0.31,0.64,0.31h20.88c0.53,0,0.95-0.44,0.96-0.99
		c-0.05-0.68-0.3-0.93-0.97-0.99H209.69z"/>
	<path class="st2" d="M229.39,426.17h-18.53c-0.41,0-0.8-0.16-1.08-0.46c-0.28-0.29-0.44-0.69-0.42-1.1l1.94-47.77
		c0.03-0.81,0.69-1.44,1.5-1.44h14.78c0.8,0,1.46,0.63,1.5,1.44l1.81,47.78c0.01,0.4-0.14,0.8-0.42,1.09
		C230.19,426.01,229.79,426.17,229.39,426.17z M212.42,423.18h15.41l-1.7-44.78h-11.89L212.42,423.18z"/>
	<path class="st2" d="M229.26,378.4h-18.14c-2.18-0.01-3.96-1.8-3.97-3.99c0-1.08,0.41-2.11,1.13-2.84
		c0.72-0.73,1.75-1.14,2.82-1.14h0.02h18.14c2.18,0,3.96,1.79,3.96,3.98C233.17,376.63,231.47,378.34,229.26,378.4L229.26,378.4z
		 M211.12,375.4h18.14l0,0c0.17,0,0.43-0.08,0.65-0.31c0.19-0.19,0.32-0.46,0.31-0.68c0-0.63-0.5-0.98-0.96-0.99h-18.14
		c-0.67,0.06-0.91,0.31-0.97,0.99C210.16,374.96,210.59,375.4,211.12,375.4L211.12,375.4z"/>
	<path class="st2" d="M227.06,373.43h-13.87c-0.4,0-0.78-0.16-1.06-0.45c-0.28-0.27-0.44-0.66-0.44-1.05v-14.8
		c0-0.39,0.16-0.78,0.44-1.06c0.28-0.28,0.67-0.44,1.06-0.44h13.87c0.39,0,0.78,0.16,1.06,0.44c0.28,0.28,0.44,0.67,0.44,1.06v14.8
		c0,0.39-0.16,0.77-0.44,1.05C227.83,373.27,227.46,373.43,227.06,373.43z M214.69,370.42h10.87v-11.79h-10.87V370.42z"/>
	<path class="st2" d="M226.8,358.63h-13.35c-0.43,0-0.83-0.18-1.12-0.5c-1.17-1.31-2.58-3.45-2.58-6.23
		c0.05-2.14,1.24-4.04,3.01-6.24c1.76-2.14,4.03-4.3,6.02-6.12c0.28-0.26,0.64-0.4,1.02-0.4h0.65c0.36,0,0.71,0.13,0.98,0.36
		c2.56,2.21,4.61,4.27,6.11,6.12c1.51,1.9,2.91,3.98,2.96,6.27c0,2.34-0.93,4.58-2.63,6.3C227.58,358.47,227.19,358.63,226.8,358.63
		z M214.15,355.63h11.98c0.91-1.09,1.37-2.35,1.37-3.73c0.04-0.74-0.66-2.42-2.29-4.39c-1.23-1.52-2.98-3.3-5.07-5.15
		c-2.27,2.12-3.88,3.77-5.06,5.2c-1.43,1.69-2.38,3.47-2.33,4.33C212.74,353.14,213.23,354.43,214.15,355.63z"/>
	<path class="st2" d="M653.94,531.54h-38.88c-0.41,0-0.81-0.17-1.09-0.47c-0.29-0.3-0.44-0.71-0.41-1.12l4.02-68.71
		c0.04-0.8,0.7-1.42,1.5-1.42h30.84c0.79,0,1.45,0.62,1.49,1.42l2.77,47.3c0,0.02,0,0.05,0,0.08c0.01,0.79-0.61,1.46-1.41,1.5
		c-0.82,0.06-1.54-0.59-1.58-1.41l-2.69-45.89h-28.01l-3.84,65.72h35.7c0.03-0.77,0.64-1.4,1.41-1.44c0.83-0.05,1.54,0.58,1.59,1.41
		l0.08,1.44c0.03,0.41-0.12,0.82-0.4,1.12C654.75,531.37,654.35,531.54,653.94,531.54z M653.27,520.11c-0.8,0-1.45-0.62-1.5-1.41
		c-0.02-0.4,0.11-0.79,0.38-1.09c0.26-0.3,0.63-0.48,1.03-0.5c0.85-0.05,1.54,0.59,1.59,1.41c0.02,0.4-0.11,0.79-0.38,1.08
		c-0.27,0.3-0.63,0.48-1.04,0.51C653.32,520.11,653.3,520.11,653.27,520.11z"/>
	<path class="st2" d="M652.77,462.82L652.77,462.82h-36.55c-2.82,0-5.12-2.32-5.12-5.16c0.02-2.77,2.32-5.03,5.12-5.04h36.55
		c2.81,0.01,5.11,2.27,5.13,5.04C657.9,460.5,655.6,462.82,652.77,462.82z M616.22,455.62c-1.13,0-2.12,0.96-2.12,2.04
		c0,1.21,0.93,2.16,2.12,2.16h36.55c1.19,0,2.13-0.95,2.13-2.16c0-1.08-1-2.04-2.13-2.04H616.22z"/>
	<path class="st2" d="M649.66,455.62h-30.33c-0.41,0-0.8-0.16-1.08-0.46c-0.29-0.3-0.44-0.69-0.42-1.1l3.12-69.12
		c0.03-0.8,0.69-1.43,1.5-1.43h24.1c0.8,0,1.46,0.63,1.5,1.43l1.47,32.76c0,0.03,0,0.05,0,0.08c0,0.8-0.63,1.45-1.43,1.49
		c-0.61,0.03-1.12-0.29-1.4-0.8v-0.01l-0.01-0.03l-0.01-0.01l0.04-0.04l-0.05,0.02c0,0,0-0.01-0.01-0.01l-0.01-0.04
		c0,0-0.01-0.01-0.01-0.02c0-0.01-0.01-0.02-0.01-0.02l-0.01-0.03c0,0,0-0.01,0-0.02c-0.01,0-0.01-0.01-0.01-0.02c0,0,0,0,0-0.01
		l-0.01-0.02c0-0.01,0-0.01-0.01-0.01c-0.01-0.04-0.02-0.09-0.03-0.14v-0.01v-0.02c-0.01,0-0.01-0.01-0.01-0.01v-0.03v-0.01
		c-0.01-0.04-0.01-0.09-0.02-0.14l-1.41-31.33h-21.23l-2.98,66.11h27.19l-0.67-14.8c-0.02-0.4,0.12-0.79,0.39-1.08
		c0.27-0.3,0.64-0.47,1.04-0.49c0.83-0.04,1.53,0.61,1.57,1.43l0.74,16.38c0.02,0.41-0.13,0.8-0.42,1.1
		C650.46,455.46,650.07,455.62,649.66,455.62z M648.47,429.26c-0.8,0-1.46-0.63-1.5-1.43c-0.02-0.4,0.12-0.79,0.39-1.08
		c0.28-0.3,0.64-0.47,1.04-0.49c0.84-0.03,1.53,0.61,1.57,1.43c0.02,0.4-0.12,0.79-0.39,1.08c-0.27,0.3-0.64,0.47-1.04,0.49
		C648.52,429.26,648.49,429.26,648.47,429.26z"/>
	<path class="st2" d="M649.53,386.51L649.53,386.51h-30.06c-2.8-0.04-5.1-2.35-5.13-5.16c0.03-2.81,2.33-5.13,5.12-5.17h30.07
		c2.8,0.04,5.1,2.36,5.13,5.17C654.63,384.16,652.33,386.47,649.53,386.51z M649.53,383.51L649.53,383.51v0.05V383.51
		c0.53,0,1.07-0.24,1.48-0.65c0.42-0.42,0.65-0.97,0.65-1.51c0-0.54-0.24-1.1-0.65-1.52c-0.41-0.41-0.95-0.65-1.47-0.65h-30.07
		c-0.54,0-1.07,0.24-1.48,0.65c-0.42,0.42-0.66,0.98-0.66,1.52c0,0.54,0.24,1.09,0.66,1.51c0.41,0.41,0.94,0.65,1.47,0.65H649.53z"
		/>
	<path class="st2" d="M647.98,379.18h-26.96c-0.41,0-0.8-0.17-1.09-0.46c-0.28-0.29-0.43-0.69-0.41-1.1l2.85-68.98
		c0.04-0.81,0.69-1.44,1.5-1.44h21.25c0.81,0,1.47,0.63,1.5,1.44l1.09,26.27c0,0.02,0,0.05,0,0.08c-0.01,0.79-0.64,1.45-1.44,1.48
		c-0.84,0.04-1.53-0.61-1.56-1.44l-1.03-24.83h-18.37l-2.73,65.98h23.83l-0.87-21.17c-0.02-0.39,0.12-0.78,0.39-1.07
		c0.27-0.3,0.64-0.47,1.04-0.49c0.84-0.03,1.53,0.61,1.56,1.44l0.94,22.73c0.02,0.41-0.13,0.81-0.41,1.1
		C648.78,379.01,648.38,379.18,647.98,379.18z M646.62,346.46c-0.81,0-1.46-0.63-1.5-1.44c-0.01-0.4,0.13-0.78,0.4-1.07
		c0.27-0.3,0.64-0.47,1.04-0.49c0.84-0.02,1.53,0.61,1.56,1.44c0.02,0.4-0.12,0.78-0.39,1.08c-0.28,0.29-0.65,0.46-1.05,0.48
		C646.66,346.46,646.64,346.46,646.62,346.46z"/>
	<path class="st2" d="M647.59,310.2L647.59,310.2h-26.18c-2.81-0.01-5.11-2.26-5.13-5.03c0.03-2.81,2.33-5.13,5.12-5.17h26.19
		c2.79,0.04,5.09,2.36,5.13,5.17C652.69,307.94,650.39,310.19,647.59,310.2z M621.4,303c-0.53,0-1.06,0.24-1.47,0.65
		c-0.41,0.42-0.65,0.98-0.65,1.52c0.01,1.08,1,2.03,2.13,2.03h26.18c1.13,0,2.12-0.95,2.13-2.03c0-0.54-0.24-1.1-0.66-1.51
		c-0.41-0.42-0.94-0.66-1.47-0.66H621.4z"/>
	<path class="st2" d="M644.47,303h-19.95c-0.39,0-0.78-0.16-1.06-0.44c-0.28-0.28-0.44-0.66-0.44-1.06v-21.46
		c0-0.4,0.16-0.78,0.44-1.06c0.28-0.28,0.66-0.44,1.06-0.44h19.95c0.4,0,0.78,0.15,1.06,0.44c0.29,0.28,0.44,0.66,0.44,1.06v21.46
		c0,0.4-0.15,0.78-0.44,1.06C645.25,302.85,644.88,303,644.47,303z M626.02,300h16.95v-18.46h-16.95V300z"/>
	<path class="st2" d="M644.09,281.54h-19.18c-0.39,0-0.75-0.15-1.03-0.41c-2.4-2.27-3.72-5.35-3.71-8.69
		c0.04-3.15,2.1-6.16,4.1-8.68c2.07-2.56,4.92-5.44,8.71-8.8c0.28-0.24,0.63-0.38,1-0.38h1.03c0.38,0,0.74,0.15,1.02,0.4
		c2.89,2.68,6.18,5.82,8.64,8.83c2.03,2.52,4.11,5.51,4.16,8.63c0.01,3.34-1.31,6.42-3.71,8.69
		C644.84,281.39,644.47,281.54,644.09,281.54z M625.53,278.54h17.93c1.56-1.68,2.36-3.73,2.37-6.1c0.04-1.54-1.26-4.05-3.49-6.73
		c-2.27-2.78-5.38-5.77-7.85-8.07c-3.39,3.03-6.04,5.72-7.88,8.01c-2.2,2.68-3.49,5.22-3.44,6.79
		C623.17,274.81,623.97,276.86,625.53,278.54z"/>
	<path class="st2" d="M596.92,531.54h-26.96c-0.41,0-0.81-0.17-1.09-0.47c-0.28-0.3-0.43-0.71-0.41-1.12l2.72-47.51
		c0.05-0.79,0.7-1.41,1.5-1.41h21.39h0.01c0.82,0.01,1.48,0.67,1.48,1.5c0,0.82-0.67,1.49-1.49,1.49H574.1l-2.55,44.52h23.77
		l-2.54-42.4c-0.02-0.4,0.11-0.79,0.37-1.09c0.27-0.3,0.64-0.48,1.04-0.5c0.81-0.06,1.53,0.59,1.58,1.41l2.64,43.99
		c0.03,0.41-0.12,0.82-0.4,1.12C597.73,531.36,597.33,531.54,596.92,531.54z"/>
	<path class="st2" d="M596.01,484.03L596.01,484.03h-25.27c-2.18-0.01-3.96-1.8-3.97-3.99c0.01-2.27,1.79-4.11,3.97-4.12h25.27
		c2.18,0.01,3.96,1.85,3.96,4.12C599.97,482.23,598.19,484.02,596.01,484.03z M570.74,478.92c-0.58,0.01-0.94,0.43-0.97,1.12
		c0.01,0.54,0.44,0.98,0.97,0.99h25.27c0.53-0.01,0.95-0.44,0.96-0.99c-0.03-0.69-0.39-1.11-0.97-1.12H570.74z"/>
	<path class="st2" d="M593.94,478.92h-21.13c-0.41,0-0.8-0.16-1.08-0.46c-0.29-0.3-0.44-0.69-0.42-1.11l2.21-47.77
		c0.03-0.8,0.69-1.43,1.5-1.43h16.71c0.8,0,1.46,0.63,1.5,1.43l2.2,47.77c0.02,0.42-0.12,0.81-0.41,1.11
		C594.73,478.76,594.35,478.92,593.94,478.92z M574.38,475.92h17.98l-2.06-44.77h-13.85L574.38,475.92z"/>
	<path class="st2" d="M593.81,431.15L593.81,431.15h-20.87c-2.21-0.06-3.91-1.77-3.96-3.99c0-2.19,1.78-3.98,3.96-3.99h20.88
		c1.07,0,2.1,0.42,2.82,1.15c0.72,0.73,1.13,1.76,1.13,2.84C597.76,429.35,595.98,431.14,593.81,431.15z M572.94,426.17
		c-0.47,0.01-0.96,0.38-0.96,0.99c0,0.22,0.12,0.49,0.31,0.68c0.18,0.19,0.43,0.31,0.64,0.31h0.01h20.87c0.52,0,0.95-0.44,0.96-0.99
		c-0.06-0.68-0.3-0.93-0.97-0.99H572.94z"/>
	<path class="st2" d="M592.64,426.17h-18.53c-0.41,0-0.8-0.16-1.08-0.46c-0.28-0.29-0.44-0.69-0.42-1.1l1.94-47.77
		c0.03-0.81,0.69-1.44,1.5-1.44h14.77c0.81,0,1.47,0.63,1.5,1.44l1.82,47.78c0.01,0.4-0.14,0.8-0.42,1.1
		C593.44,426.01,593.04,426.17,592.64,426.17z M575.67,423.17h15.41l-1.7-44.77h-11.89L575.67,423.17z"/>
	<path class="st2" d="M592.51,378.4h-18.14c-2.18-0.01-3.96-1.8-3.97-3.99c0-1.08,0.41-2.12,1.13-2.84
		c0.72-0.73,1.75-1.14,2.82-1.14h18.16c2.18,0,3.96,1.78,3.96,3.98C596.42,376.63,594.71,378.34,592.51,378.4L592.51,378.4z
		 M592.51,373.42h-18.14c-0.67,0.06-0.91,0.31-0.97,0.99c0.01,0.55,0.44,0.99,0.97,0.99h18.14l0,0v0.05l0.01-0.05
		c0.21,0,0.46-0.12,0.64-0.31c0.19-0.19,0.32-0.46,0.31-0.68C593.47,373.8,592.98,373.43,592.51,373.42z"/>
	<path class="st2" d="M590.31,373.42h-13.87c-0.4,0-0.78-0.16-1.06-0.44c-0.28-0.27-0.44-0.66-0.44-1.05v-14.8
		c0-0.39,0.16-0.78,0.44-1.06c0.28-0.28,0.67-0.44,1.06-0.44h13.87c0.39,0,0.77,0.16,1.05,0.44c0.29,0.29,0.44,0.66,0.44,1.06v14.8
		c0,0.4-0.15,0.77-0.44,1.05C591.08,373.27,590.7,373.42,590.31,373.42z M577.94,370.43h10.86v-11.8h-10.86V370.43z"/>
	<path class="st2" d="M590.05,358.63H576.7c-0.4,0-0.79-0.16-1.07-0.44c-1.7-1.72-2.64-3.95-2.63-6.29c0.05-2.3,1.45-4.38,2.95-6.28
		c1.5-1.85,3.56-3.91,6.12-6.12c0.27-0.23,0.62-0.36,0.98-0.36h0.65c0.36,0,0.72,0.14,0.99,0.38c2.7,2.4,4.64,4.35,6.1,6.14
		c1.51,1.89,2.91,3.96,2.96,6.23c0,2.35-0.93,4.58-2.63,6.3C590.83,358.47,590.44,358.63,590.05,358.63z M577.36,355.63h12.02
		c0.9-1.09,1.36-2.35,1.37-3.73c0.04-0.75-0.65-2.38-2.29-4.34c-1.2-1.47-2.91-3.22-5.1-5.2c-2.09,1.85-3.85,3.63-5.07,5.15
		c-1.63,1.96-2.33,3.65-2.29,4.38C576,353.28,576.46,354.54,577.36,355.63z"/>
	<path class="st2" d="M671.95,562.69h-61.18c-0.83,0-1.5-0.67-1.5-1.5c0-0.82,0.67-1.5,1.5-1.5h59.68v-7.34h-66.98
		c-0.82,0-1.49-0.67-1.49-1.5c0-0.82,0.67-1.5,1.49-1.5h68.48c0.4,0,0.78,0.16,1.06,0.44c0.28,0.28,0.44,0.66,0.44,1.06v10.34
		c0,0.4-0.16,0.78-0.44,1.06C672.73,562.54,672.35,562.69,671.95,562.69z M600.77,562.69c-0.83,0-1.5-0.67-1.5-1.5
		c0-0.82,0.67-1.5,1.5-1.5c0.82,0,1.5,0.68,1.5,1.5C602.27,562.02,601.59,562.69,600.77,562.69z M590.77,562.69h-140
		c-0.83,0-1.5-0.67-1.5-1.5c0-0.82,0.67-1.5,1.5-1.5h140c0.82,0,1.5,0.68,1.5,1.5C592.27,562.02,591.59,562.69,590.77,562.69z
		 M440.77,562.69c-0.83,0-1.5-0.67-1.5-1.5c0-0.82,0.67-1.5,1.5-1.5c0.82,0,1.5,0.68,1.5,1.5
		C442.27,562.02,441.59,562.69,440.77,562.69z M430.77,562.69h-140c-0.83,0-1.5-0.67-1.5-1.5c0-0.82,0.67-1.5,1.5-1.5h140
		c0.82,0,1.5,0.68,1.5,1.5C432.27,562.02,431.59,562.69,430.77,562.69z M280.77,562.69c-0.83,0-1.5-0.67-1.5-1.5
		c0-0.82,0.67-1.5,1.5-1.5c0.83,0,1.5,0.68,1.5,1.5C282.27,562.02,281.6,562.69,280.77,562.69z M270.77,562.69h-140
		c-0.83,0-1.5-0.67-1.5-1.5c0-0.82,0.67-1.5,1.5-1.5h140c0.83,0,1.5,0.68,1.5,1.5C272.27,562.02,271.6,562.69,270.77,562.69z
		 M130.77,559.65c-0.83,0-1.5-0.68-1.5-1.5v-7.3c0-0.39,0.16-0.78,0.44-1.06c0.28-0.28,0.66-0.44,1.06-0.44h132.7
		c0.83,0,1.5,0.68,1.5,1.5c0,0.8-0.62,1.46-1.42,1.5c-0.02,0-0.05,0-0.08,0h-131.2v5.8C132.27,558.97,131.6,559.65,130.77,559.65z
		 M593.48,552.35c-0.83,0-1.51-0.67-1.51-1.5c0-0.82,0.68-1.5,1.51-1.5c0.82,0,1.49,0.68,1.49,1.5
		C594.97,551.68,594.3,552.35,593.48,552.35z M583.47,552.35H443.48c-0.83,0-1.51-0.67-1.51-1.5c0-0.82,0.68-1.5,1.51-1.5h139.99
		c0.83,0,1.51,0.68,1.51,1.5C584.98,551.68,584.3,552.35,583.47,552.35z M433.47,552.35c-0.82,0-1.49-0.67-1.49-1.5
		c0-0.82,0.67-1.5,1.49-1.5c0.83,0,1.51,0.68,1.51,1.5C434.98,551.68,434.3,552.35,433.47,552.35z M423.48,552.35H283.47
		c-0.82,0-1.49-0.67-1.49-1.5c0-0.82,0.67-1.5,1.49-1.5h140.01c0.82,0,1.49,0.68,1.49,1.5C424.97,551.68,424.3,552.35,423.48,552.35
		z M273.48,552.35c-0.83,0-1.51-0.67-1.51-1.5c0-0.82,0.68-1.5,1.51-1.5c0.82,0,1.49,0.68,1.49,1.5
		C274.97,551.68,274.3,552.35,273.48,552.35z"/>
	<g>
		<path class="st2" d="M391.38,266.22c-0.83,0-1.5-0.67-1.5-1.5v-25.91c0-0.83,0.67-1.5,1.5-1.5c0.83,0,1.5,0.67,1.5,1.5v25.91
			C392.88,265.55,392.21,266.22,391.38,266.22z"/>
	</g>
	<g>
		<path class="st2" d="M479.12,335.72c-0.83,0-1.5-0.67-1.5-1.49v-14.01c0-0.83,0.67-1.5,1.5-1.5c0.82,0,1.49,0.67,1.49,1.5v14.01
			C480.61,335.05,479.94,335.72,479.12,335.72z"/>
	</g>
	<g>
		<path class="st2" d="M302.61,335.73c-0.82,0-1.5-0.68-1.5-1.5v-14.01c0-0.83,0.68-1.5,1.5-1.5c0.83,0,1.5,0.67,1.5,1.5v14.01
			C304.11,335.05,303.44,335.73,302.61,335.73z"/>
	</g>
	<g>
		<path class="st2" d="M350.3,344.36h-11.92c-0.83,0-1.5-0.67-1.5-1.5c0-0.82,0.67-1.5,1.5-1.5h11.92c0.83,0,1.5,0.68,1.5,1.5
			C351.8,343.69,351.13,344.36,350.3,344.36z"/>
	</g>
	<g>
		<path class="st2" d="M370.78,323.42H350.3c-0.83,0-1.5-0.67-1.5-1.5c0-0.83,0.67-1.5,1.5-1.5h20.48c0.82,0,1.5,0.67,1.5,1.5
			C372.28,322.75,371.6,323.42,370.78,323.42z"/>
	</g>
	<g>
		<path class="st2" d="M411.86,365.18h-20.48c-0.83,0-1.5-0.68-1.5-1.5c0-0.83,0.67-1.5,1.5-1.5h20.48c0.82,0,1.5,0.67,1.5,1.5
			C413.36,364.5,412.68,365.18,411.86,365.18z"/>
	</g>
	<g>
		<path class="st2" d="M359.11,365.83h-20.86c-0.83,0-1.5-0.67-1.5-1.5c0-0.83,0.67-1.5,1.5-1.5h20.86c0.83,0,1.5,0.67,1.5,1.5
			C360.61,365.16,359.94,365.83,359.11,365.83z"/>
	</g>
	<g>
		<path class="st2" d="M371.81,373.55h-20.47c-0.83,0-1.5-0.67-1.5-1.5c0-0.82,0.67-1.5,1.5-1.5h20.47c0.83,0,1.5,0.68,1.5,1.5
			C373.31,372.88,372.64,373.55,371.81,373.55z"/>
	</g>
	<g>
		<path class="st2" d="M335.92,406.8h-66.48c-0.83,0-1.5-0.67-1.5-1.5s0.67-1.5,1.5-1.5h66.48c0.82,0,1.49,0.67,1.49,1.5
			S336.74,406.8,335.92,406.8z"/>
	</g>
	<g>
		<path class="st2" d="M512.29,406.8h-66.48c-0.83,0-1.5-0.67-1.5-1.5s0.67-1.5,1.5-1.5h66.48c0.83,0,1.5,0.67,1.5,1.5
			S513.12,406.8,512.29,406.8z"/>
	</g>
	<g>
		<path class="st2" d="M535.62,433.76c-0.83,0-1.5-0.67-1.5-1.5v-37.3c0-0.82,0.67-1.5,1.5-1.5c0.83,0,1.5,0.68,1.5,1.5v37.3
			C537.12,433.09,536.45,433.76,535.62,433.76z"/>
	</g>
	<g>
		<path class="st2" d="M515.01,417.79c-0.82,0-1.5-0.67-1.5-1.5v-14.92c0-0.83,0.68-1.5,1.5-1.5c0.83,0,1.5,0.67,1.5,1.5v14.92
			C516.51,417.12,515.84,417.79,515.01,417.79z"/>
	</g>
	<g>
		<path class="st2" d="M247.4,433.63c-0.82,0-1.5-0.67-1.5-1.5v-37.3c0-0.83,0.68-1.5,1.5-1.5c0.83,0,1.5,0.67,1.5,1.5v37.3
			C248.9,432.96,248.23,433.63,247.4,433.63z"/>
	</g>
	<g>
		<path class="st2" d="M266.71,417.79c-0.82,0-1.5-0.67-1.5-1.5v-13.61c0-0.83,0.68-1.5,1.5-1.5c0.83,0,1.5,0.67,1.5,1.5v13.61
			C268.21,417.12,267.54,417.79,266.71,417.79z"/>
	</g>
	<g>
		<path class="st2" d="M483.39,479.57h-51.06c-0.83,0-1.5-0.67-1.5-1.49c0-0.83,0.67-1.51,1.5-1.51h51.06c0.83,0,1.5,0.68,1.5,1.51
			C484.89,478.9,484.22,479.57,483.39,479.57z"/>
	</g>
	<g>
		<path class="st2" d="M535.62,479.57h-33.18c-0.83,0-1.5-0.67-1.5-1.5c0-0.82,0.67-1.5,1.5-1.5h33.18c0.83,0,1.5,0.68,1.5,1.5
			C537.12,478.9,536.45,479.57,535.62,479.57z"/>
	</g>
	<g>
		<path class="st2" d="M349.65,479.57h-51.06c-0.82,0-1.5-0.67-1.5-1.5c0-0.82,0.68-1.5,1.5-1.5h51.06c0.83,0,1.5,0.68,1.5,1.5
			C351.15,478.9,350.48,479.57,349.65,479.57z"/>
	</g>
	<g>
		<path class="st2" d="M279.54,479.57h-33.17c-0.83,0-1.5-0.67-1.5-1.5c0-0.82,0.67-1.5,1.5-1.5h33.17c0.83,0,1.5,0.68,1.5,1.5
			C281.04,478.9,280.37,479.57,279.54,479.57z"/>
	</g>
	<g>
		<path class="st2" d="M169,257.59c-0.83,0-1.5-0.68-1.5-1.5v-14.67c0-0.82,0.67-1.5,1.5-1.5c0.83,0,1.5,0.68,1.5,1.5v14.67
			C170.5,256.91,169.83,257.59,169,257.59z"/>
	</g>
	<g>
		<path class="st2" d="M183,281.66h-27.87c-0.83,0-1.5-0.67-1.5-1.49c0-0.83,0.67-1.5,1.5-1.5H183c0.82,0,1.5,0.67,1.5,1.5
			C184.5,280.99,183.82,281.66,183,281.66z"/>
	</g>
	<g>
		<path class="st2" d="M159.67,515.57c-0.02,0-0.05,0-0.08,0c-0.4-0.02-0.76-0.2-1.03-0.49c-0.27-0.3-0.41-0.68-0.39-1.08
			l2.07-41.63c0.04-0.82,0.72-1.46,1.57-1.42c0.83,0.04,1.47,0.75,1.43,1.57l-2.07,41.62C161.13,514.94,160.47,515.57,159.67,515.57
			z"/>
	</g>
	<g>
		<path class="st2" d="M220.19,341.88c-0.83,0-1.5-0.68-1.5-1.5V330.3c0-0.83,0.67-1.5,1.5-1.5c0.82,0,1.5,0.67,1.5,1.5v10.08
			C221.69,341.2,221.01,341.88,220.19,341.88z"/>
	</g>
	<g>
		<path class="st2" d="M229.78,358.63h-19.31c-0.83,0-1.5-0.67-1.5-1.5c0-0.82,0.67-1.5,1.5-1.5h19.31c0.82,0,1.5,0.68,1.5,1.5
			C231.28,357.96,230.6,358.63,229.78,358.63z"/>
	</g>
	<g>
		<path class="st2" d="M213.58,520.55c-0.03,0-0.06,0-0.08-0.01c-0.4-0.02-0.77-0.19-1.04-0.49c-0.27-0.3-0.4-0.68-0.38-1.08
			l1.56-28.93c0.04-0.83,0.74-1.48,1.57-1.42c0.83,0.04,1.47,0.75,1.42,1.58l-1.55,28.93C215.03,519.92,214.38,520.55,213.58,520.55
			z"/>
	</g>
	<g>
		<path class="st2" d="M634.5,257.59c-0.83,0-1.5-0.68-1.5-1.51v-14.66c0-0.82,0.67-1.5,1.5-1.5c0.82,0,1.5,0.68,1.5,1.5v14.66
			C636,256.91,635.32,257.59,634.5,257.59z"/>
	</g>
	<g>
		<path class="st2" d="M648.49,281.54H620.5c-0.83,0-1.5-0.68-1.5-1.5c0-0.83,0.67-1.5,1.5-1.5h27.99c0.83,0,1.5,0.67,1.5,1.5
			C649.99,280.86,649.32,281.54,648.49,281.54z"/>
	</g>
	<g>
		<path class="st2" d="M643.96,515.57c-0.8,0-1.46-0.63-1.5-1.42l-2.2-41.62c-0.05-0.83,0.59-1.53,1.42-1.58
			c0.85-0.06,1.53,0.6,1.57,1.42l2.21,41.62c0.02,0.4-0.12,0.78-0.39,1.08c-0.26,0.3-0.63,0.48-1.03,0.5
			C644.01,515.57,643.98,515.57,643.96,515.57z"/>
	</g>
	<g>
		<path class="st2" d="M583.44,341.88c-0.83,0-1.5-0.68-1.5-1.5V330.3c0-0.83,0.67-1.5,1.5-1.5c0.83,0,1.5,0.67,1.5,1.5v10.08
			C584.94,341.2,584.27,341.88,583.44,341.88z"/>
	</g>
	<g>
		<path class="st2" d="M593.03,358.63h-19.31c-0.83,0-1.5-0.67-1.5-1.5c0-0.82,0.67-1.5,1.5-1.5h19.31c0.83,0,1.5,0.68,1.5,1.5
			C594.53,357.96,593.86,358.63,593.03,358.63z"/>
	</g>
	<g>
		<path class="st2" d="M589.91,520.55c-0.79,0-1.45-0.63-1.49-1.42l-1.55-28.93c-0.02-0.4,0.11-0.79,0.38-1.08
			c0.27-0.3,0.63-0.48,1.03-0.5c0.82-0.06,1.54,0.59,1.58,1.42l1.55,28.93c0.03,0.4-0.11,0.78-0.38,1.08
			c-0.26,0.3-0.63,0.47-1.03,0.49C589.97,520.55,589.94,520.55,589.91,520.55z"/>
	</g>
	<g>
		<path class="st2" d="M278.25,385.99c0,0,0,0-0.01,0c-0.09,0-0.19-0.01-0.28-0.03c-0.81-0.16-1.35-0.95-1.19-1.76
			c3.23-16.65,10.94-21.72,11.02-21.77c0.66-0.44,1.63-0.25,2.07,0.42c0.46,0.68,0.27,1.61-0.41,2.07c0,0.01-0.01,0.01-0.02,0.02
			c-0.02,0.01-0.08,0.05-0.2,0.15c-0.24,0.2-0.5,0.42-0.76,0.67c-0.61,0.6-1.57,1.63-2.64,3.18c-2.77,4.03-4.88,9.51-6.11,15.83
			C279.58,385.48,278.96,385.99,278.25,385.99z"/>
	</g>
	<g>
		<path class="st2" d="M503.48,379.71c-0.76,0-1.4-0.57-1.49-1.32c-0.39-3.81-5.28-9.77-7.81-12.39c-0.79-0.85-1.3-1.34-1.33-1.37
			c-0.01-0.01-0.01-0.01-0.01-0.02c-0.59-0.57-0.6-1.52-0.03-2.11c0.55-0.57,1.54-0.59,2.12-0.03c0.02,0.01,2.28,2.19,4.64,5.17
			c2.24,2.86,4.88,6.63,5.4,10.38c0.1,0.82-0.48,1.57-1.31,1.67C503.6,379.7,503.54,379.71,503.48,379.71z"/>
	</g>
</g>
<g id="Layer_1">
</g>
</svg>
