<?xml version="1.0" encoding="utf-8"?>
<!-- Generator: Adobe Illustrator 24.2.1, SVG Export Plug-In . SVG Version: 6.00 Build 0)  -->
<svg version="1.1" id="Layer_2" xmlns="http://www.w3.org/2000/svg" xmlns:xlink="http://www.w3.org/1999/xlink" x="0px" y="0px"
	 viewBox="0 0 1244.16 902.88" style="enable-background:new 0 0 1244.16 902.88;" xml:space="preserve">
<style type="text/css">
	.st0{fill:#F7FAE9;}
	.st1{fill:#EB9F49;}
	.st2{fill:#7D2B2B;}
	.st3{fill:#B8B8B8;}
	.st4{fill:#D4D4D4;}
	.st5{fill:#FFFFFF;}
	.st6{fill:#E0E0E0;}
	.st7{fill:#453939;}
	.st8{fill:#CFCFCF;}
</style>
<g>
	<g>
		<ellipse class="st0" cx="630.36" cy="768.78" rx="507.34" ry="64.26"/>
	</g>
	<g>
		<path class="st1" d="M1137.7,586.44c0,123.57-119.68,209.87-507.91,209.87c-362.79,0-507.91-86.3-507.91-209.87
			S188.95,362.7,629.79,362.7C1076.99,362.7,1137.7,462.87,1137.7,586.44z"/>
	</g>
	<g>
		<path class="st2" d="M224.22,421.63c-85.57,32.99-100.6,116-75.16,131.16c25.44,15.15,84.41-30.19,98.29-3.47
			c13.88,26.72-26.59,82.22,6.94,105.35c33.53,23.13,70.53-30.06,85.57-18.5c15.03,11.56-0.63,72.85,55.76,84.41
			c56.4,11.56,58.44-38.16,87.48-31.22c29.04,6.94,20.66-56.66,46.82-61.28c26.16-4.63,27.32,65.91,65.48,69.38
			c38.16,3.47,63.6-23.13,71.69-40.47c8.09-17.34,19.66-18.5,48.56,23.13c28.91,41.63,78.63,4.63,95.97-20.81
			c17.34-25.44,63.6-37,92.5-15.03c28.91,21.97,39.31,75.16,68.22,31.22c37,2.31,75.16-23.13,71.69-55.5
			c-3.47-32.38,24.28-32.38,49.72-25.44c25.44,6.94,43.07-42.76,13.88-75.16c-15.9-28.33,16.03-17.9-1.14-44.41
			c-27.77-42.89-87.61-68.04-172.31-93.73c-100.6,25.98-662.85,8.95-674.12,14.28C248.79,400.85,224.22,421.63,224.22,421.63z"/>
	</g>
	<g>
		<path class="st3" d="M834.75,461.26c19.66-80.64,3.47-101-25.44-163.09c-28.91-62.09-24.28-160.37,46.25-196.22
			c70.53-35.84,128.35-45.09,163.04-3.47c34.69,41.63,16.19,101.75-17.34,123.72c-12.72-24.28-26.59-50.88-26.59-69.38
			c-57.81,12.72-77.47,49.1-80.94,103.18c-3.47,54.08,28.91,140.51-10.41,197.89C844,511.28,834.75,461.26,834.75,461.26z"/>
	</g>
	<g>
		<path class="st4" d="M338.23,470.22c63.19,60.07,263.08,89.34,362.38,90.2c91.77,0.8,175.18-5.2,182.35-26.21
			c0.12-5.14-4.1-9.95-11.99-12.02L338.23,470.22z"/>
	</g>
	<g>
		<path class="st3" d="M392.75,371.37c-66.75-2.14-83.54-28.98-125.17-30.93c-15.61-0.22-55.79,41.05-46.83,88.17
			c13.3,4.63,47.41-13.08,54.92-21.68c34.69,78.92,80.22,91.93,129,88.46C425.71,486.71,408.72,371.88,392.75,371.37z"/>
	</g>
	<g>
		<path class="st5" d="M276.65,408.06l-1.95-2.28c0.06-0.05,6.13-5.33,11.08-14.56l2.64,1.42
			C283.19,402.4,276.92,407.84,276.65,408.06z"/>
	</g>
	<g>
		<path class="st3" d="M656.81,420.8c47.65-51.69,85.43-80.51,122.72-48.49c-13.88-33.89-6.07-67.81,5.2-76.87
			c12.14-3.85,12.14,31.41,31.22,56.27c19.08,24.86,35.56,54.35,45.96,85.57c10.41,31.22-95.23,59.1-96.61,58.6
			C698.64,481.63,650.33,427.83,656.81,420.8z"/>
	</g>
	<g>
		<path class="st5" d="M809.17,414.33c-14.91-25.4-29.69-39.98-30.63-40.9c-16.36-13.03-36.32-21.72-71.18,2.6l-1.72-2.46
			c36.52-25.47,57.54-16.22,74.83-2.44l0.1,0.09c0.16,0.15,15.65,15.12,31.19,41.59L809.17,414.33z"/>
	</g>
	<g>
		<path class="st3" d="M569.75,347.99c34.32-21.6,61.18-56.74,72.59-71.78c14.66-19.32,32.95-25.86,70.83-19.93
			c18.28,2.86,24.4,7.77,24.99,11.76c-9.38,16.17-29.33,25.88-50.72,25.88c-19.7,24.23,5.2,64.12-23.7,134.65
			c-10.96,26.75-88.08,11.26-107.74-13.56C536.33,390.2,521.07,378.63,569.75,347.99z"/>
	</g>
	<g>
		<path class="st3" d="M392.75,495.88c1.49,2.15,3.15,4.22,4.97,6.22c66.34,28.02,143.32,40.04,211.58,45.14
			c22.55-38.83-39.34-85.67-91.29-84.81c-52.41,0.87-152.99,4.38-152.99,4.38C381.48,485.84,392.75,495.88,392.75,495.88z"/>
	</g>
	<g>
		<path class="st6" d="M561.56,349.95c32.05,20.81,17.65,26.13,32.68,41.98c15.03,15.86,28.55,11.9,46.83,20.77
			c45.73,22.2,106.49-20.77,180.32,64.29c-31.22,52.03-182.06,60.88-216.74,51.62c-34.69-9.25-54.64,9.25-77.04-5.78
			c-22.4-15.03-37.77,12.72-49.17-4.63c-11.39-17.34-51.1-4.63-57.27-13.88c-6.16-9.25-34.35-27.75-28.93-47.41
			c5.42-19.66-13.08-24.36-7.3-42.24c5.78-17.88-26.36-28.81-5.09-42.42C401.13,358.65,561.56,349.95,561.56,349.95z"/>
	</g>
	<g>
		<path class="st3" d="M434.38,195.32c52.9-6.07,94.06,6.33,96.67,6.33c18.51-19.05,34.49-26.07,47.12-29.2
			c18.61-4.6,44.95-9.69,47.55-3.9c-6.95,19.41-10.74,31.65-15.75,55.21c-7.23,33.97-19.62,40.34-24.72,45.1
			c7.11,14.73,1.3,27.9,9.11,34.83c1.73,7.8-13.01,13.88-3.47,16.48c10.41,5.2-9.94,26.91-22.08,36.45
			c-12.14,9.54-54.64,34.69-118.81,31.22c-64.17-3.47-102.82-30.88-94.14-37.39c-0.58-4.19-20.45-11.75-12.53-16.38
			c13.88-7.8-18.29-17.34-4.34-25.15c10.84-6.07-3.6-14.22,7.17-23.84c9.89-8.83,7-31.09,15.38-45.11
			c-12.36-27.75-6.94-53.55-0.87-73.5c6.07-19.95,8.89-33.32,14.74-33.32c5.06,1.01,16.32,13.78,31.31,26.95
			C419.64,171.47,431.78,189.25,434.38,195.32z"/>
	</g>
	<g>
		<path class="st7" d="M442.34,284.21c0,6.55-3.92,11.86-8.75,11.86c-4.83,0-8.75-5.31-8.75-11.86c0-6.55,3.92-11.86,8.75-11.86
			C438.43,272.35,442.34,277.66,442.34,284.21z"/>
	</g>
	<g>
		<ellipse class="st7" cx="507.96" cy="284.21" rx="8.75" ry="11.86"/>
	</g>
	<g>
		<path class="st7" d="M416.75,247.53l-0.55-2.95c18.59-3.47,26.75-14.06,26.83-14.17l2.4,1.8
			C445.08,232.68,436.56,243.83,416.75,247.53z"/>
	</g>
	<g>
		<path class="st7" d="M522.94,249.65c-0.77-0.21-18.99-5.22-26.04-17.59l2.61-1.48c6.44,11.3,24.04,16.13,24.21,16.18
			L522.94,249.65z"/>
	</g>
	<g>
		<path class="st8" d="M377.58,227.84c8.24-13.01,20.38-11.71,20.38-20.81c0-9.11-16.91-27.32-22.98-27.75
			C382.78,199.66,372.81,215.27,377.58,227.84z"/>
	</g>
	<g>
		<path class="st8" d="M582.62,249.24c-3.12,2.71-5.87,0.32-7.87-5.63c-1.67-4.95-4.82-11.03-7.73-12.77
			c-2.91-1.75,4.82-17.02,30.18-25.5C591.52,225.33,592.31,240.86,582.62,249.24z"/>
	</g>
	<g>
		<path class="st7" d="M468.72,323.67c-13.01-8.88-19.95-17.63-1.45-18.5C485.77,304.3,486.35,312.4,468.72,323.67z"/>
	</g>
	<g>
		<path class="st7" d="M468.73,323.67c-1.69,12.14-10.36,14.09-23.79,7.24c4.88,11.67,13.8,19.07,22.13,19.04
			c9.19-0.03,19.1-2.91,24.93-19.39C479.54,338.31,469.77,336.81,468.73,323.67z"/>
	</g>
	<g>
		<path class="st7" d="M433.84,296.07c-0.06-0.02-6.64-2.2-16.65-0.26l-0.57-2.95c10.85-2.1,17.9,0.27,18.2,0.37L433.84,296.07z"/>
	</g>
	<g>
		<path class="st7" d="M522.74,296.66c-0.06-0.02-6.28-2.57-15.24-0.74l-0.6-2.94c9.94-2.02,16.73,0.8,17.02,0.92L522.74,296.66z"/>
	</g>
	<g>
		<path class="st3" d="M946.91,380.04c-13.01-18.21-62.44-2.6-83.25,29.49c-20.81,32.09-43.36,58.1-58.97,59.84
			c-15.61,1.73-23.42-33.82-74.87-42.49c-51.45-8.67-116.79,62.44-127.19,110.14c0,0-1.88,3.97-4,9.38
			c38.53,3.25,74.67,4.23,105.03,4.5c80.85,0.71,133.23-1.18,166.76-11.84c-4.01-29.95,26.39-88.26,37.48-111.34
			C919.16,404.24,951.24,389.58,946.91,380.04z"/>
	</g>
	<g>
		<path class="st5" d="M868.91,539.24c-3.7-27.65,20.9-77.97,34.12-105c1.3-2.66,2.48-5.07,3.5-7.19
			c5.79-12.05,16.91-21.8,25.85-29.63c7.89-6.91,14.71-12.89,13.22-16.64c-4.39-6-12.54-7.1-18.64-6.97
			c-19.13,0.43-47.57,14.21-62.04,36.53c-14.06,21.67-40.55,58.34-60.06,60.51c-6.88,0.77-12.09-4.35-19.31-11.43
			c-10.76-10.55-25.5-25-56.02-31.08c-16.58-3.31-43.87,5.46-60.83,19.55l-1.92-2.31c17.56-14.59,45.97-23.64,63.33-20.18
			c31.4,6.26,47.12,21.68,57.53,31.88c6.63,6.5,11.42,11.19,16.88,10.59c13.36-1.48,34.45-23.05,57.88-59.16
			c15.58-24.02,44.86-37.45,64.49-37.89c9.86-0.23,17.18,2.67,21.24,8.35l0.14,0.25c2.62,5.76-4.32,11.84-13.92,20.26
			c-8.73,7.65-19.59,17.17-25.12,28.67c-1.02,2.12-2.2,4.54-3.51,7.21c-13.08,26.75-37.42,76.54-33.84,103.28L868.91,539.24z"/>
	</g>
	<g>
		
			<rect x="314.04" y="529.49" transform="matrix(0.9608 -0.2772 0.2772 0.9608 -140.0511 109.0193)" class="st5" width="3" height="40.67"/>
	</g>
	<g>
		
			<rect x="179.6" y="475.5" transform="matrix(0.196 -0.9806 0.9806 0.196 -314.4579 570.4716)" class="st5" width="22.11" height="3"/>
	</g>
	<g>
		
			<rect x="376.62" y="558.99" transform="matrix(0.8529 -0.5221 0.5221 0.8529 -235.4468 285.4942)" class="st5" width="24.4" height="3"/>
	</g>
	<g>
		
			<rect x="246.39" y="464.84" transform="matrix(0.5907 -0.8069 0.8069 0.5907 -270.0304 400.3619)" class="st5" width="26.43" height="3"/>
	</g>
	<g>
		
			<rect x="207.72" y="524.47" transform="matrix(0.7624 -0.6471 0.6471 0.7624 -289.4346 263.7223)" class="st5" width="13.33" height="3"/>
	</g>
	<g>
		
			<rect x="302.64" y="604.13" transform="matrix(0.3971 -0.9178 0.9178 0.3971 -388.1281 654.5714)" class="st5" width="3" height="37.13"/>
	</g>
	<g>
		
			<rect x="433.14" y="600.52" transform="matrix(0.9583 -0.2858 0.2858 0.9583 -153.2276 154.0941)" class="st5" width="36.38" height="3"/>
	</g>
	<g>
		
			<rect x="618.39" y="613.3" transform="matrix(0.7847 -0.6198 0.6198 0.7847 -252.5252 518.2841)" class="st5" width="3" height="18.79"/>
	</g>
	<g>
		<rect x="555.33" y="578" class="st5" width="33.82" height="3"/>
	</g>
	<g>
		
			<rect x="749.11" y="619.4" transform="matrix(0.7558 -0.6548 0.6548 0.7558 -231.1164 645.9913)" class="st5" width="3" height="26.96"/>
	</g>
	<g>
		
			<rect x="789.98" y="575.23" transform="matrix(0.7707 -0.6372 0.6372 0.7707 -183.6942 643.0336)" class="st5" width="23.14" height="3"/>
	</g>
	<g>
		
			<rect x="922.82" y="599.89" transform="matrix(0.5557 -0.8314 0.8314 0.5557 -97.4866 1039.9789)" class="st5" width="3" height="22.63"/>
	</g>
	<g>
		
			<rect x="929.55" y="504.12" transform="matrix(0.689 -0.7248 0.7248 0.689 -73.1707 840.7375)" class="st5" width="26.86" height="3"/>
	</g>
	<g>
		
			<rect x="968.66" y="434.25" transform="matrix(0.1728 -0.985 0.985 0.1728 377.6015 1321.1167)" class="st5" width="13.38" height="3"/>
	</g>
	<g>
		
			<rect x="1025.88" y="485.25" transform="matrix(0.5859 -0.8104 0.8104 0.5859 11.4136 1044.1915)" class="st5" width="3" height="51.36"/>
	</g>
	<g>
		
			<rect x="971.47" y="600.52" transform="matrix(0.7491 -0.6625 0.6625 0.7491 -150.0269 807.9635)" class="st5" width="40.14" height="3"/>
	</g>
	<g>
		<rect x="1046.7" y="461.66" class="st5" width="3" height="15.34"/>
	</g>
	<g>
		
			<rect x="839.72" y="595.24" transform="matrix(0.4035 -0.915 0.915 0.4035 -53.2319 1131.5781)" class="st5" width="3" height="22.75"/>
	</g>
	<g>
		
			<rect x="419.33" y="679.1" transform="matrix(0.9047 -0.426 0.426 0.9047 -253.5672 244.9677)" class="st5" width="3" height="20.45"/>
	</g>
	<g>
		<path class="st5" d="M854.52,421.61c-0.06-0.15-5.9-14.67-12.65-26.94l2.63-1.45c6.84,12.43,12.75,27.12,12.81,27.27
			L854.52,421.61z"/>
	</g>
</g>
</svg>
