<?xml version="1.0" encoding="utf-8"?>
<!-- Generator: Adobe Illustrator 24.2.1, SVG Export Plug-In . SVG Version: 6.00 Build 0)  -->
<svg version="1.1" id="Layer_1" xmlns="http://www.w3.org/2000/svg" xmlns:xlink="http://www.w3.org/1999/xlink" x="0px" y="0px"
	 viewBox="0 0 199.84 179.61" style="enable-background:new 0 0 199.84 179.61;" xml:space="preserve">
<style type="text/css">
	.st0{fill:#667A7F;}
	.st1{fill:#125E80;}
	.st2{fill:#EFCAA6;}
	.st3{fill:#C9976D;}
	.st4{fill:#D03E16;}
	.st5{fill:#FECB27;}
	.st6{fill:#F4D9BF;}
	.st7{fill:#492E1C;}
	.st8{fill:#5BB354;}
	.st9{fill:#139876;}
	.st10{fill:#F67D11;}
	.st11{fill:#673121;}
	.st12{fill:#FFFFFF;}
	.st13{fill:#D4A87F;}
	.st14{fill:#C39368;}
	.st15{fill:#F9CBC0;}
	.st16{fill:#D6D3D2;}
	.st17{fill:#FBA9A1;}
	.st18{fill:#FA8680;}
	.st19{fill:#BEA18D;}
	.st20{opacity:0.3;fill:#BEA18D;}
	.st21{fill:#8C7262;}
	.st22{fill:#867264;}
	.st23{fill:#DABDA5;}
	.st24{fill:#CBAD93;}
	.st25{fill:#FCC175;}
	.st26{fill:#BA6833;}
	.st27{fill:#F99F26;}
	.st28{opacity:0.5;fill:#FCC175;}
	.st29{fill:#F6862D;}
	.st30{opacity:0.4;fill:#F3A16D;}
	.st31{fill:#FDCD8B;}
	.st32{fill:#EF87AA;}
	.st33{opacity:0.5;fill:#FDCD8B;}
	.st34{fill:#2F292B;}
	.st35{fill:#FAAAD3;}
	.st36{fill:#67778F;}
	.st37{opacity:0.2;fill:#927C6D;}
	.st38{fill:#492939;}
</style>
<g>
	<g>
		<g>
			<path class="st0" d="M40.18,153.43c0,0-2.79-1.6-4.88,2.61c0,0-0.86,1.35-2.54,5.17c-1.68,3.82-6.99,4.88-7.58,1.01
				c-0.58-3.87,4.06-17.13,7.69-20.66c0,0,1.94-2.27,4.41-0.87c2.46,1.39,6.41,5.27,6.41,5.27L40.18,153.43z"/>
			<path class="st1" d="M52.31,117.27c0,0,5.99,17.62,3.93,23.03c-2.05,5.41-4.99,5.83-9.69,3.81c-2.24-1.15-4.04-1.83-5.54-2.03
				c-3.75,2.19-5.15,7.57-5,12.17c3.3,3.24,26.46,8.02,34.25,4.46c13.43-6.26,1.81-34.88,2.64-36.51
				C73.9,120.25,52.31,117.27,52.31,117.27z"/>
			<path class="st1" d="M72.91,122.2c0.99-1.95-20.6-4.93-20.6-4.93s3.77,11.08,4.3,18.37c3.57-1.78,7.23-3.37,10.8-5.13
				c0.29-0.14,0.62-0.02,0.71,0.29c1.41,4.54,0.63,9.42,0.04,14.04c-0.36,2.85-0.66,6.81-3.14,8.72c-3.3,2.55-7.96,3.04-12,3.31
				c-5.4,0.37-10.88-0.58-16.08-1.94c5.42,3.17,26.06,7.11,33.32,3.79C83.7,152.45,72.08,123.83,72.91,122.2z"/>
			<path class="st0" d="M27.96,153.63c1.04-3.22,2.22-6.5,4.34-9.18c1.17-1.48,2.53-3.17,4.23-4.06c-2.1-0.63-3.66,1.19-3.66,1.19
				c-3.63,3.52-8.27,16.79-7.69,20.66c0.24,1.55,1.23,2.3,2.44,2.41C25.06,162.43,27.16,156.1,27.96,153.63z"/>
		</g>
		<g>
			<path class="st0" d="M28.55,160.99c0,0-3.2-0.36-3.43,4.35c0,0-0.25,1.58-0.26,5.75c-0.01,4.18-4.47,7.26-6.55,3.95
				c-2.08-3.32-3.11-17.33-1.19-22.01c0,0,0.88-2.85,3.69-2.56c2.81,0.29,7.98,2.27,7.98,2.27L28.55,160.99z"/>
			<path class="st0" d="M17.43,166.05c-0.33-3.36-0.56-6.85,0.31-10.15c0.48-1.82,1.06-3.92,2.26-5.41
				c-2.17,0.26-2.88,2.55-2.88,2.55c-1.92,4.68-0.89,18.69,1.19,22.01c0.83,1.33,2.04,1.62,3.2,1.23
				C18.28,175.27,17.68,168.62,17.43,166.05z"/>
			<path class="st1" d="M63.26,111.19l-24.18,5.95c0,0-1.3,19.61-1.03,25.4c0.28,5.78-2.25,7.33-7.37,7.36
				c-2.51-0.16-4.43-0.06-5.89,0.35c-2.57,3.5-1.7,9,0.27,13.16c4.32,1.65,11.27,1.47,18.23-0.09
				c12.86-3.69,12.93-27.64,13.04-29.47c0.13-2.18,8.41-7.13,8.94-10.97C65.96,117.88,63.26,111.19,63.26,111.19z"/>
			<path class="st1" d="M49.68,123.98c4.29,1.39,8.73,2.49,13.22,2.8c1.24-1.33,2.21-2.68,2.38-3.91c0.68-5-2.02-11.68-2.02-11.68
				l-24.18,5.95c0,0-0.01,0.21-0.04,0.58C41.5,120.98,45.82,122.73,49.68,123.98z"/>
			<path class="st1" d="M30.7,151.3c1.25-0.11,3.33-0.82,4.55-0.42c1.01,0.33,1.32,1.34,1.63,2.27c0.46,1.34,0.87,2.7,1.33,4.04
				c0.2-2.67,0.5-5.36,0.29-8.03c-0.11-1.44-0.3-2.86-0.53-4.28c-0.49,3.86-2.95,4.99-7.29,5.01c-2.51-0.16-4.43-0.06-5.89,0.35
				c-0.31,0.42-0.57,0.88-0.78,1.35C26.24,151.57,28.48,151.49,30.7,151.3z"/>
			<path class="st1" d="M57.78,130.65c-1.31,0.83-2.58,1.9-4.2,1.88c-1.47-0.02-3.24-1.26-4.52-1.81c-1.82-0.78-3.61-1.64-5.47-2.29
				c1.51,1.26,3.2,2.38,4.77,3.53c1.28,0.93,3.15,2.05,3.59,3.7c0.62,2.28,0.39,4.85,0.34,7.2c-0.05,2.33-0.16,4.68-0.57,6.99
				c-0.74,4.2-2.55,8.82-5.48,12.16c9.93-6.2,10-26.47,10.1-28.15c0.07-1.08,2.14-2.85,4.28-4.83
				C59.63,129.52,58.68,130.07,57.78,130.65z"/>
		</g>
		<g>
			<g>
				<g>
					<path class="st2" d="M94.65,35.75c-0.24,2.04-0.57,3.29,1.52,3.96c-0.29,0.59-1.81,3.58-4.83,7.49
						c1.52,0.87,3.03,1.77,4.53,2.68c1.61-2.51,3.16-5.24,4.6-8.22c0,0,2.18,0.22,3.59-3.54c0.28-0.76,3.38-1.96,4.51-2.48
						c1.12-0.51,0.51-3.31-4.64,0.1c0,0,1.98-2.46,3.43-4.09c1.46-1.62,1.19-5.52-4.75,1.73c0,0,0.41-2.05,1.55-4.01
						c0.49-0.84,0.97-1.31,1.69-2.57c0.46-0.8,0.35-1.65-0.27-1.78c-0.84-0.17-1.53,0.4-2.55,1.84c-1.15,1.63-2.35,3.89-2.88,5.65
						c0,0,0.47-4.25,1.66-6.71c1.08-2.24,0.25-3.96-1.28-1.93c-0.4,0.53-0.97,1.7-1.46,2.79c-2.35,5.27-2.02,5.52-2.02,5.52
						s-0.06,0.27-0.2,0.7c-0.18-1.39-0.61-3.4-2.02-3.71c-0.8-0.18-1.71-0.12-1.38,0.91C93.78,31.13,94.91,33.64,94.65,35.75z"/>
					<g>
						<path class="st2" d="M94.83,29.18c2.08,0.47,2.02,4.52,2.2,5.03c0.18,0.5,0.54,0.32,1.18,0.46c2.4,0.52,2.72,1.74,2.39,2.88
							l-2.7,2.57c-0.36-0.04-0.82-0.14-1.42-0.3c-2.42-0.66-2.07-1.92-1.82-4.05c0.25-2.12-0.87-4.63-1.2-5.67
							C93.12,29.06,94.03,29,94.83,29.18z"/>
						<path class="st3" d="M100.77,36.68c-0.01-0.09-0.02-0.17-0.04-0.26c0-0.2-0.12-0.38-0.2-0.59c-0.07-0.09-0.15-0.19-0.23-0.28
							c-0.04-0.05-0.08-0.1-0.12-0.15c-0.05-0.04-0.1-0.08-0.15-0.12c-0.1-0.08-0.22-0.16-0.33-0.24c-0.13-0.06-0.26-0.12-0.38-0.19
							c-0.26-0.14-0.55-0.2-0.85-0.3c-0.14-0.05-0.31-0.09-0.46-0.12c-0.17-0.01-0.32-0.03-0.49-0.05
							c-0.15-0.02-0.22-0.05-0.27-0.15c-0.07-0.09-0.08-0.27-0.1-0.42c-0.07-0.69-0.2-1.44-0.4-2.18c-0.21-0.68-0.46-1.42-1-1.98
							c0,0.07,0,0.15,0,0.22c0.43,0.52,0.64,1.18,0.77,1.81c0.15,0.74,0.18,1.47,0.26,2.18c0.03,0.19,0.02,0.38,0.14,0.57
							c0.11,0.22,0.38,0.34,0.55,0.34c0.19,0.02,0.33,0.02,0.48,0.04c0.16,0.02,0.3,0.05,0.44,0.09c0.29,0.08,0.57,0.13,0.81,0.25
							c0.13,0.06,0.24,0.11,0.36,0.16c0.1,0.06,0.2,0.13,0.3,0.19l0.15,0.1c0.04,0.04,0.07,0.08,0.11,0.12
							c0.07,0.08,0.15,0.15,0.21,0.23c0.08,0.18,0.2,0.33,0.22,0.5c0.02,0.08,0.04,0.16,0.06,0.23c0,0.07,0,0.15,0,0.21
							c0.01,0.13,0,0.25-0.02,0.34c-0.02,0.2-0.03,0.29-0.03,0.29l0.04,0.01c0,0,0.04-0.1,0.08-0.28c0.04-0.09,0.05-0.21,0.06-0.36
							C100.76,36.83,100.77,36.76,100.77,36.68z"/>
					</g>
				</g>
				<path class="st4" d="M57.22,87.31C83,63.55,94.3,39.72,94.3,39.72c5.19,2.94,9.03,2.7,9.03,2.7
					C91.76,77.69,77.14,93.51,68.48,93.84C61.32,95.43,55.4,88.98,57.22,87.31z"/>
				<path class="st4" d="M98.95,50.42c-1.16,2.86-2.31,5.73-3.6,8.54c-2.69,5.84-5.41,11.77-8.55,17.39
					c-3.77,6.76-8.72,12.88-15.19,16.78c8.78-3.43,21.45-19.39,31.71-50.71c0,0-0.51,0.03-1.4-0.07
					C101.22,45.14,100.03,47.75,98.95,50.42z"/>
				<path class="st4" d="M68.48,93.84c1.81-0.07,3.88-0.83,6.13-2.28c-0.01-1.73-0.15-3.47-0.49-5.16
					c-0.42-2.11-1.18-4.37-0.84-6.55c0.76-4.84,4.86-8.4,8-11.83c3.88-4.24,7.63-8.86,10.21-14.02c2.12-4.23,3.62-8.68,5.02-13.17
					c-0.71-0.31-1.44-0.67-2.22-1.11c0,0-11.3,23.83-37.08,47.59C55.4,88.98,61.32,95.43,68.48,93.84z"/>
			</g>
			<g>
				<path class="st5" d="M59.85,79.93c-3.33-0.34-5.49-5.18-5.49-5.18c0.4-2.63,0.4-2.63,0.4-2.63l7.87,0.9l-0.53,3.54
					c0,0,0.04,0,0.13-0.01C62.38,77.48,62.63,80.23,59.85,79.93z"/>
				<path class="st5" d="M41.71,93.03c-0.35-9.5,1.56-16.14,11.39-18.07c0.71,2.4,2.71,7.61,6.54,7.39
					c3.45-0.19,4.51-3.33,4.84-5.23c14.3,5.24,11.07,47.8,11.07,47.8s-16.76,2.71-37.83-6.48C37.72,118.43,41.82,103.23,41.71,93.03
					z"/>
				<path class="st5" d="M73.09,99.81c1.41,8.32,2.28,16.87,1.21,25.26c0.81-0.08,1.25-0.15,1.25-0.15s3.2-42.16-10.88-47.72
					C70.21,83.25,71.77,91.98,73.09,99.81z"/>
				<path class="st5" d="M37.72,118.43c11.81,5.16,22.27,6.57,29.18,6.81c-2.47-0.2-4.88-0.62-7.06-1.44
					c-3.16-1.18-5.74-3.4-6.61-6.77c-1.39-5.42,0.07-11.45,0.31-16.94c0.15-3.4,0.21-6.83-0.13-10.22c-0.33-3.33-1.08-6.59-1.53-9.9
					c0,0,0-0.01,0-0.01h0c-0.01-0.04-0.01-0.08-0.02-0.13c-0.08-0.59,0.77-0.59,0.95-0.13c1.31,3.29,4.18,5.87,7.93,4.31
					c2.7-1.12,4.76-3.4,5.14-6.22c-0.45-0.27-0.93-0.5-1.42-0.68c-0.33,1.9-1.39,5.04-4.84,5.23c-3.84,0.22-5.83-4.99-6.54-7.39
					c-9.83,1.93-11.74,8.56-11.39,18.07C41.82,103.23,37.72,118.43,37.72,118.43z"/>
				<path class="st1" d="M59.63,82.35c-3.84,0.22-5.83-4.99-6.54-7.39c0.41-0.08,0.82-0.15,1.26-0.21c0,0,2.17,4.83,5.49,5.18
					c2.78,0.29,2.53-2.46,2.38-3.38c0.29,0,1.07,0.05,2.25,0.56C64.15,79.02,63.09,82.16,59.63,82.35z"/>
			</g>
			<g>
				<path class="st6" d="M59.85,79.93c-3.33-0.34-5.49-5.18-5.49-5.18c0.4-2.63,0.4-2.63,0.4-2.63l7.87,0.9l-0.53,3.54
					c0,0,0.04,0,0.13-0.01C62.38,77.48,62.63,80.23,59.85,79.93z"/>
			</g>
			<g>
				<path class="st6" d="M62.39,74.57l0.23-1.54l-7.87-0.9c0,0,0,0.01-0.35,2.33C56.8,75.74,59.85,75.62,62.39,74.57z"/>
			</g>
			<g>
				<path class="st7" d="M85.04,23.83c0,0,4.39,4.3,5.47,7.29c-7.48-4.13-8.83-4.29-8.83-4.29l3.33,5.11l-1.07-0.6
					c-3.41-2.28-11.23-2.69-15.12-2.31c1.91,0.83,3.02,2.56,3.02,2.56s-11.53,1-14.09,1.39c1.53,1.32,1.92,1.95,1.92,1.95l-7.41-0.2
					c0,0-0.13,0.06-0.38,0.17c0.02-0.08,0.03-0.14,0.06-0.22C71.1,22.38,85.04,23.83,85.04,23.83z"/>
				<g>
					<path class="st8" d="M53.04,2.96c0-0.01,0-0.02,0-0.03c14.4-1.63,26.62,5.13,32,20.9c0,0-1.46-0.15-4.08,0.06
						C80.01,19.21,75.18,3.95,53.04,2.96z"/>
					<path class="st9" d="M37.27,7.72c5.39-2.61,10.71-4.22,15.77-4.79c0,0.01,0,0.02,0,0.03c22.15,0.99,26.97,16.25,27.92,20.93
						c-5.48,0.43-16.05,2.45-29.03,10.78c-0.02,0.08-0.04,0.14-0.06,0.22c-0.79,0.36-2.73,1.32-5.32,2.98
						C35.69,23.18,35.49,13.38,37.27,7.72z"/>
					<path class="st10" d="M22.5,20.98c-2.8,7.54-3.53,19.03,8.02,31.84c-1.69,2.25-3.32,4.73-4.83,7.47
						C19.01,52.44,13.95,35.17,22.5,20.98z"/>
					<path class="st8" d="M22.5,20.98c2.68-4.46,6.7-8.61,12.46-12.08c0.78-0.42,1.55-0.8,2.32-1.18
						c-1.78,5.66-1.58,15.45,9.28,30.15c-4.35,2.8-10.5,7.6-16.04,14.95C18.96,40.01,19.69,28.52,22.5,20.98z"/>
				</g>
				<path class="st7" d="M77.03,22c0,0-10.53-2.26-24.09,8.65c-2.95-8.58,3.07-14.35,8.55-16.33C66.14,12.65,74.15,13.98,77.03,22z"
					/>
				<path class="st1" d="M69.04,22.42l1.38,3.41l-3.65,1.31l-1.37-3.58C65.4,23.56,67.06,22.83,69.04,22.42z"/>
				<path class="st5" d="M65.82,24.64c0,0-3.01,0.85-5.25,2.36c0.46,0.98,1.08,2.14,1.08,2.14l5.04-2.09L65.82,24.64z"/>
				<path class="st6" d="M38.91,60.4c-4.87,3.58-10.12-4.31-6.16-7.33c3.95-3.02,7.21,3.96,7.2,2.53
					c-0.48-5.82,0.79-11.49,1.45-14.02c6.04-4.84,10.85-6.86,10.85-6.86l7.41,0.2c0,0-0.39-0.63-1.92-1.95
					c2.56-0.38,14.09-1.39,14.09-1.39s-1.11-1.72-3.02-2.56c3.89-0.39,11.71,0.03,15.12,2.31c0,0,3.1,5.97,5.91,12.82
					c2.81,6.85-0.92,18.54-13.87,24.7c-12.94,6.16-21.38,6.4-29.34,0.28C46.64,69.14,40.15,63.88,38.91,60.4z"/>
				<g>
					<path class="st7" d="M31.52,69.22c0,0-3.91-3.97-5.62-9.31c4.67-8.36,10.51-14.31,15.5-18.33c-0.67,2.53-1.93,8.2-1.45,14.02
						c0.01,1.43-3.25-5.55-7.2-2.53c-3.96,3.02,1.29,10.91,6.16,7.33c1.23,3.48,7.73,8.74,7.73,8.74c-1.96,1.32-5.27,0.88-6.66,0.61
						c-3.15-1.3-6.78-3.23-8.54-5.74C30.88,67.02,31.52,69.22,31.52,69.22z"/>
					<path class="st8" d="M25.68,60.29c0.07-0.13,0.15-0.26,0.22-0.39c1.71,5.34,5.62,9.31,5.62,9.31s-0.63-2.19-0.07-5.2
						c1.77,2.51,5.39,4.44,8.54,5.74c-0.4-0.08-0.65-0.14-0.65-0.14s-11.52,12.77-18.62,7.41C17.71,73.83,20.46,65.79,25.68,60.29z"
						/>
				</g>
				<g>
					<path class="st11" d="M81.39,45.34c0.54,1.13,1.33,1.81,1.75,1.51c0.42-0.29,0.32-1.44-0.22-2.57
						c-0.54-1.13-1.33-1.8-1.75-1.51C80.75,43.06,80.85,44.21,81.39,45.34z"/>
					<path class="st12" d="M81.85,43.88c0.19,0.32,0.44,0.51,0.56,0.41c0.12-0.1,0.07-0.45-0.12-0.77c-0.19-0.32-0.44-0.5-0.56-0.4
						C81.61,43.21,81.66,43.55,81.85,43.88z"/>
				</g>
				<g>
					<path class="st11" d="M65.99,51.12c0.54,1.13,1.33,1.81,1.75,1.51c0.43-0.29,0.33-1.44-0.22-2.57
						c-0.55-1.13-1.33-1.81-1.75-1.51C65.34,48.85,65.44,50,65.99,51.12z"/>
					<path class="st12" d="M66.44,49.66c0.19,0.32,0.44,0.51,0.56,0.41c0.12-0.1,0.07-0.45-0.12-0.77c-0.19-0.33-0.44-0.5-0.56-0.4
						C66.2,48.99,66.26,49.34,66.44,49.66z"/>
				</g>
				<g>
					<path class="st13" d="M78.63,51.81c0,0,0.1-0.09,0.27-0.27c0.16-0.17,0.43-0.4,0.74-0.66c0.31-0.25,0.7-0.53,1.11-0.62
						c0.2-0.04,0.38-0.03,0.54,0.07c0-0.01,0.23,0.16,0.23,0.2c0.04,0.05,0.08,0.14,0.12,0.24c0.14,0.4,0.1,0.94,0.01,1.41
						c-0.09,0.48-0.24,0.93-0.38,1.31c-0.27,0.77-0.55,1.26-0.55,1.26s0.45-0.36,0.91-1.08c0.23-0.37,0.45-0.82,0.61-1.35
						c0.14-0.53,0.25-1.14,0.04-1.8c-0.06-0.16-0.14-0.32-0.28-0.47c-0.16-0.17-0.16-0.17-0.39-0.32c-0.32-0.2-0.73-0.17-1.02-0.07
						c-0.6,0.2-0.95,0.6-1.23,0.92C78.82,51.27,78.63,51.81,78.63,51.81z"/>
				</g>
				<path class="st7" d="M82.96,35.97c0,0,0.03-0.54-0.25-1.27c-0.14-0.37-0.34-0.8-0.74-1.2c-0.21-0.19-0.47-0.41-0.86-0.51
					c-0.19-0.03-0.42-0.07-0.63-0.01l-0.15,0.04l-0.08,0.02l-0.04,0.01l-0.09,0.04l-0.16,0.08c-0.1,0.05-0.31,0.22-0.43,0.34
					c-0.1,0.11-0.22,0.23-0.29,0.35c-0.17,0.24-0.3,0.48-0.39,0.71c-0.2,0.47-0.29,0.91-0.33,1.3c-0.1,0.77,0.03,1.29,0.03,1.29
					s0.33-0.43,0.72-1.03c0.21-0.3,0.42-0.65,0.66-0.97c0.12-0.17,0.25-0.32,0.37-0.46c0.06-0.08,0.13-0.12,0.18-0.19
					c0.07-0.04,0.03-0.04,0.15-0.1l0.16-0.09l0.01-0.01l0.01,0c-0.03,0.02,0.06-0.03-0.06,0.03l0,0l0,0l0.01,0c0.01,0,0.01,0,0.01,0
					c0.03-0.02,0.05-0.01,0.09-0.02c0.07,0,0.22,0.06,0.36,0.14c0.3,0.18,0.59,0.46,0.86,0.69C82.56,35.61,82.96,35.97,82.96,35.97z
					"/>
				<path class="st7" d="M69.41,39.96c0,0-0.09-0.19-0.29-0.48c-0.2-0.3-0.52-0.7-1-1.12c-0.24-0.21-0.51-0.42-0.83-0.61
					c-0.31-0.19-0.67-0.38-1.07-0.49c-0.2-0.06-0.41-0.13-0.63-0.16l-0.33-0.05l-0.34-0.01c-0.46-0.02-0.93,0.09-1.37,0.25
					l-0.17,0.06l-0.04,0.01l-0.01,0.01l-0.05,0.02l-0.02,0.01l-0.07,0.04l-0.25,0.14c-0.17,0.07-0.38,0.24-0.57,0.39
					c-0.38,0.29-0.64,0.64-0.89,0.99c-0.11,0.18-0.22,0.36-0.3,0.54c-0.07,0.19-0.15,0.37-0.21,0.54c-0.12,0.35-0.19,0.7-0.22,1.01
					c-0.08,0.63-0.02,1.15,0.04,1.51c0.06,0.35,0.14,0.55,0.14,0.55s0.05-0.2,0.14-0.54s0.24-0.81,0.46-1.32
					c0.11-0.26,0.25-0.52,0.4-0.8c0.15-0.27,0.35-0.52,0.54-0.77c0.21-0.24,0.46-0.46,0.7-0.63c0.13-0.08,0.21-0.16,0.41-0.25
					l0.26-0.13l0.07-0.03l0.02-0.01c0.04-0.02-0.05,0.02-0.04,0.02h0h0.01l0.03-0.01l0.12-0.04c0.15-0.05,0.3-0.12,0.46-0.13
					c0.16-0.03,0.31-0.07,0.47-0.07c0.16-0.02,0.32-0.01,0.48,0c0.16,0,0.32,0.02,0.48,0.05c0.64,0.11,1.25,0.35,1.76,0.58
					C68.71,39.51,69.41,39.96,69.41,39.96z"/>
				<path class="st14" d="M35.23,56.59c-0.6-0.35-1.54-0.39-1.91,0.28c-0.03,0.06,0.04,0.13,0.09,0.08
					c0.61-0.52,1.17-0.25,1.74,0.18c0.25,0.19,0.48,0.43,0.68,0.68c0.17,0.21,0.29,0.48,0.47,0.68c0.06,0.07,0.16,0.04,0.19-0.04
					C36.75,57.75,35.74,56.89,35.23,56.59z"/>
				<path class="st15" d="M60.77,55.21c0.15,0.79,1.82,1.14,3.72,0.79c1.91-0.35,3.33-1.28,3.19-2.08c-0.15-0.8-1.82-1.15-3.72-0.8
					C62.05,53.48,60.63,54.41,60.77,55.21z"/>
				<path class="st15" d="M85.67,47.93c0.33,0.53,1.64,0.32,2.92-0.48c1.28-0.8,2.06-1.88,1.72-2.41c-0.33-0.54-1.63-0.32-2.92,0.47
					C86.11,46.31,85.34,47.4,85.67,47.93z"/>
				<path class="st16" d="M40.08,6.38c0,0-23.17,11.57-3.65,39.21c-5.77,6.77-10.75,14.71-10.75,14.71S1.17,26.32,40.08,6.38z"/>
				<g>
					<path class="st16" d="M24.52,61.61c0.37-0.45,0.76-0.89,1.16-1.31c0.07-0.13,0.15-0.26,0.22-0.39
						c1.71,5.34,5.62,9.31,5.62,9.31s-0.63-2.19-0.07-5.2c1.77,2.51,5.39,4.44,8.54,5.74c-0.4-0.08-0.65-0.14-0.65-0.14
						s-10.86,12.04-17.98,7.82c2.61-1.56,5.37-4.28,7.5-7.92C27.34,67.05,25.62,63.77,24.52,61.61z"/>
				</g>
			</g>
			<g>
				<path class="st17" d="M77.67,62.13c-0.64-0.22-1.97,0.8-2.49,1.12c-3.05,1.85-6.89,1.07-9.74-0.79
					c-1.48-0.97-2.94-2.85-4.8-1.92c-1.23,0.61-1.1,2.84-0.9,3.89c0.44,2.34,2.76,3.72,4.76,4.59c2.75,1.19,6.02,0.73,8.63-0.56
					c2.06-1.02,4.52-2.69,4.87-5.18C78.09,62.56,77.95,62.23,77.67,62.13z"/>
				<path class="st18" d="M67.56,65.94c-1.66-2.54-4.37-3.95-6.97-5.37c-1.18,0.64-1.06,2.83-0.86,3.87
					c0.44,2.34,2.76,3.72,4.76,4.59c1.57,0.68,3.32,0.81,5.02,0.56C68.91,68.09,67.97,66.57,67.56,65.94z"/>
				<path class="st12" d="M61.97,63.07c1.29,1.73,3.2,3.18,5.36,3.57c2.95,0.54,5.78-0.6,7.12-3.01c-2.92,1.34-6.39,0.55-9.02-1.16
					c-1.41-0.92-2.8-2.67-4.54-2.03C61.14,61.39,61.42,62.34,61.97,63.07z"/>
			</g>
			<g>
				<g>
					<path class="st2" d="M17.38,35.75c0.25,2.04,0.57,3.29-1.52,3.96c0.29,0.59,1.81,3.58,4.83,7.49
						c-1.52,0.87-3.03,1.77-4.53,2.68c-1.61-2.51-3.16-5.24-4.6-8.22c0,0-2.18,0.22-3.59-3.54c-0.28-0.76-3.38-1.96-4.51-2.48
						c-1.12-0.51-0.51-3.31,4.64,0.1c0,0-1.98-2.46-3.44-4.09c-1.46-1.62-1.19-5.52,4.75,1.73c0,0-0.41-2.05-1.55-4.01
						c-0.49-0.84-0.97-1.31-1.69-2.57c-0.46-0.8-0.35-1.65,0.28-1.78c0.84-0.17,1.53,0.4,2.55,1.84c1.15,1.63,2.35,3.89,2.88,5.65
						c0,0-0.47-4.25-1.66-6.71c-1.09-2.24-0.25-3.96,1.28-1.93c0.4,0.53,0.97,1.7,1.46,2.79c2.35,5.27,2.01,5.52,2.01,5.52
						s0.06,0.27,0.2,0.7c0.18-1.39,0.61-3.4,2.02-3.71c0.8-0.18,1.71-0.12,1.38,0.91C18.26,31.13,17.13,33.64,17.38,35.75z"/>
					<g>
						<path class="st2" d="M17.21,29.18c-2.08,0.47-2.02,4.52-2.2,5.03c-0.18,0.5-0.54,0.32-1.18,0.46
							c-2.4,0.52-2.72,1.74-2.39,2.88l2.7,2.57c0.36-0.04,0.82-0.14,1.42-0.3c2.42-0.66,2.07-1.92,1.82-4.05
							c-0.25-2.12,0.87-4.63,1.2-5.67C18.92,29.06,18.01,29,17.21,29.18z"/>
						<path class="st3" d="M11.26,36.68c0.01-0.09,0.02-0.17,0.04-0.26c0-0.2,0.12-0.38,0.2-0.59c0.07-0.09,0.15-0.19,0.23-0.28
							c0.04-0.05,0.08-0.1,0.12-0.15c0.05-0.04,0.1-0.08,0.15-0.12c0.1-0.08,0.22-0.16,0.33-0.24c0.13-0.06,0.26-0.12,0.38-0.19
							c0.25-0.14,0.55-0.2,0.85-0.3c0.14-0.05,0.31-0.09,0.46-0.12c0.17-0.01,0.32-0.03,0.49-0.05c0.15-0.02,0.22-0.05,0.27-0.15
							c0.07-0.09,0.08-0.27,0.1-0.42c0.07-0.69,0.2-1.44,0.4-2.18c0.21-0.68,0.46-1.42,1-1.98c0,0.07,0,0.15,0,0.22
							c-0.43,0.52-0.64,1.18-0.77,1.81c-0.15,0.74-0.18,1.47-0.26,2.18c-0.03,0.19-0.02,0.38-0.14,0.57
							c-0.1,0.22-0.38,0.34-0.55,0.34c-0.19,0.02-0.33,0.02-0.48,0.04c-0.16,0.02-0.3,0.05-0.44,0.09
							c-0.29,0.08-0.57,0.13-0.81,0.25c-0.13,0.06-0.24,0.11-0.36,0.16c-0.1,0.06-0.2,0.13-0.3,0.19l-0.15,0.1
							c-0.04,0.04-0.07,0.08-0.12,0.12c-0.07,0.08-0.15,0.15-0.21,0.23c-0.08,0.18-0.2,0.33-0.22,0.5
							c-0.02,0.08-0.04,0.16-0.07,0.23c0,0.07,0,0.15,0,0.21c-0.01,0.13,0,0.25,0.02,0.34c0.02,0.2,0.03,0.29,0.03,0.29l-0.04,0.01
							c0,0-0.04-0.1-0.08-0.28c-0.04-0.09-0.05-0.21-0.07-0.36C11.27,36.83,11.27,36.76,11.26,36.68z"/>
					</g>
				</g>
				<path class="st4" d="M47.68,76.91C21.9,53.15,17.74,39.72,17.74,39.72c-5.19,2.94-9.03,2.7-9.03,2.7
					C20.27,77.69,33.04,93.76,41.7,94.09C48.86,95.67,49.49,78.58,47.68,76.91z"/>
				<path class="st4" d="M34.75,65.27c3.59,4.04,7.73,7.72,11.1,11.93c1.92,2.4,2.37,5.09,2.46,7.89c0.48-3.77,0.16-7.45-0.64-8.18
					C21.9,53.15,17.74,39.72,17.74,39.72c-0.27,0.15-0.53,0.29-0.79,0.42C21.47,49.4,27.92,57.59,34.75,65.27z"/>
				<path class="st4" d="M41.7,94.09c2.91,0.64,4.75-1.8,5.77-5.05c-3.38,4.01-8.42-0.22-11.23-3.01
					c-6.07-6.04-10.66-13.94-14.61-21.47c-2.06-3.92-3.98-7.9-5.77-11.95c-1.51-3.41-3.36-6.86-4.36-10.48
					c-1.74,0.35-2.79,0.3-2.79,0.3C20.27,77.69,33.04,93.76,41.7,94.09z"/>
			</g>
		</g>
	</g>
	<g>
		<g>
			<g>
				<g>
					<polygon class="st19" points="106.48,90.17 99.08,60.59 53.63,86.93 68.24,120.48 72.03,176.91 106.48,134.36 173.93,147.35 
						176.1,88.73 					"/>
					<polygon class="st19" points="106.48,90.17 176.1,88.73 173.93,147.35 106.48,134.36 					"/>
					<polygon class="st20" points="106.48,90.17 176.1,88.73 173.93,147.35 106.48,134.36 					"/>
					<polygon class="st19" points="106.48,90.17 176.1,88.73 173.93,147.35 106.48,134.36 					"/>
					<g>
						<polygon class="st21" points="145.25,176.03 178.88,145.02 176.1,88.73 142.01,119.03 						"/>
						<polygon class="st22" points="156.8,82.78 142.01,119.03 176.1,88.73 196.84,56.81 						"/>
						<polygon class="st19" points="157.94,83.54 142.01,119.03 176.1,88.73 196.84,56.81 						"/>
					</g>
					<g>
						<polygon class="st23" points="99.08,60.59 53.63,86.93 68.24,120.48 106.48,90.17 						"/>
						<polygon class="st19" points="99.08,60.59 99.88,82.14 68.24,120.48 106.48,90.17 						"/>
						<polygon class="st23" points="99.08,60.59 53.63,86.93 94.46,67.94 106.48,90.17 						"/>
						<polygon class="st19" points="68.24,120.48 72.03,176.91 106.48,134.36 106.48,90.17 						"/>
					</g>
					<path class="st19" d="M68.24,120.48c0,0,73.95-1.45,73.77-1.44l3.25,57l-73.23,0.67L68.24,120.48z"/>
					<path class="st19" d="M68.24,120.48c0,0,73.95-1.45,73.77-1.44l-8.58,32.8l-63.09-0.2L68.24,120.48z"/>
					<path class="st23" d="M143.17,173.77c0,0-0.98-54.74-1.16-54.74l3.25,57l-73.23,0.67L143.17,173.77z"/>
					<polygon class="st24" points="53.63,86.93 52.43,87.11 68.3,123.49 69.39,122.33 					"/>
					<polygon class="st24" points="99.08,60.59 53.63,86.93 51.91,87.28 					"/>
				</g>
			</g>
			<g>
				<g>
					<g>
						<path class="st25" d="M127.66,121.92c0.81,0.37,1.7,0.62,2.61,0.75c0.67-0.03,1.34-0.08,2-0.17c2.96-0.39,6.07-1.37,8.2-3.56
							c2.45-2.53,3.55-6.17,3.48-9.65c-0.07-3.26-0.85-6.59-2.13-9.59c-0.96-2.25-2.18-4.37-3.18-6.6
							c-1.66-3.68-3.7-9.23,0.12-12.34c1.74-1.42,4.83-2.04,5.86-4.2c0.91-1.91-0.78-2.8-2.43-2.83c-3.76,0.53-7.23,4.67-8.23,7.95
							c-1.33,4.37,0.09,9.34,1.67,13.46c2.11,5.5,6.95,12.33,3.6,18.37c-2.52,4.56-8.41,6-13.23,5.13
							c-0.21-0.04-0.39,0.03-0.53,0.14c-0.17-0.13-0.38-0.04-0.42,0.17C124.84,120.12,126.82,121.53,127.66,121.92z"/>
					</g>
					<g>
						<path class="st26" d="M136.59,85.24c0.05-0.99,0.27-1.95,0.75-2.81c-1.2-0.53-2.51-0.71-3.57-0.08
							c-0.26,1.08-0.36,2.19-0.34,3.31C134.36,85.08,135.51,84.96,136.59,85.24z"/>
						<path class="st26" d="M136.54,97.31c1.06-0.66,2.35-0.97,3.65-1.01c-0.53-1.06-1.07-2.12-1.56-3.2
							c-0.09-0.19-0.17-0.39-0.26-0.59c-1.23-0.13-2.46,0-3.44,0.7c0.22,0.66,0.46,1.3,0.69,1.92
							C135.89,95.84,136.21,96.56,136.54,97.31z"/>
						<path class="st26" d="M143.17,103.74c-0.18-0.71-0.38-1.41-0.62-2.11c-1.2-0.11-2.49,0.48-3.5,1.31c0.15,0.4,0.3,0.8,0.43,1.2
							C140.68,103.64,141.92,103.57,143.17,103.74z"/>
						<path class="st26" d="M141.98,116.96c0.98-1.6,1.58-3.44,1.83-5.31c-0.83-1.09-2.14-1.8-3.48-1.85
							c-0.1,1.25-0.44,2.5-1.11,3.7c-0.07,0.12-0.14,0.23-0.21,0.34C140.28,114.44,141.33,115.64,141.98,116.96z"/>
						<path class="st26" d="M136.05,121.63c0.59-0.21,1.17-0.45,1.73-0.73c-0.58-1.35-1.64-2.52-2.81-3.44
							c-0.35,0.18-0.72,0.34-1.09,0.48C134.79,119.06,135.64,120.26,136.05,121.63z"/>
						<path class="st26" d="M142.18,73.72c-1.23,0.17-2.43,0.74-3.52,1.53c1.36,0.52,2.58,2.19,3.26,3.7
							c1.13-0.61,2.18-1.31,2.7-2.4C145.53,74.64,143.83,73.75,142.18,73.72z"/>
					</g>
					<path class="st25" d="M131.52,105.33c-0.68-1.27-1.03-2.07-3.45-2.66c-0.24-0.06-2.99,0.94-2.99,0.94
						c-0.33-0.72-3.16-16.65-11.69-17.62c-0.08-0.01-0.13,0.02-0.17,0.07c-0.01,0-0.03-0.01-0.05-0.01
						c-0.97-0.19-2.49,1.68-3.15,2.15c-1.86,1.32-4.36,1.64-6.59,1.69c-0.91,0.02-1.83-0.08-2.73-0.16c-0.67-0.07-3-0.18-3.54-0.66
						c-0.18-0.16-0.47-0.08-0.48,0.18c0,0.02,0,0.03,0.01,0.04c-3.49,2.59-4.78,6.65-5.66,10.78c-0.54,2.56-0.38,5.32-0.15,7.91
						c0.05,0.55,0.11,1.09,0.18,1.63c-0.79-0.77-1.81-1.28-2.9-1.14c-2.64,0.33-3.93,3.14-4.27,5.53c-0.7,5,1.76,11.17,5.87,14.5
						c-0.03,0.32-0.01,0.65,0.04,0.99c0.21,1.53,1.83,2.27,3.29,1.97c0.32-0.03,0.62-0.16,0.88-0.41c0.28-0.27,0.44-0.66,0.51-1.1
						c0.01,0.03,0.03,0.05,0.05,0.08c0.55,0.75,1.54,1.11,2.4,0.73c0.09-0.04,0.17-0.1,0.25-0.16c0.42,0.35,1.14,0.51,1.56,0.23
						c0.25-0.17,0.43-0.4,0.53-0.68c0.11,0.13,0.25,0.26,0.42,0.37c0.84,0.52,1.7-0.14,2.17-0.83c0.09-0.13,0.15-0.27,0.21-0.4
						c0.49,0.89,1.3,1.41,2.48,0.75c0.54-0.31,0.8-0.89,0.92-1.5c0.08,0.18,0.17,0.35,0.27,0.52c0.61,0.91,1.81,1.18,2.82,0.83
						c0.41-0.14,0.68-0.42,0.86-0.76c0.52,0.52,1.34,0.7,2.07,0.55c0.46-0.09,0.87-0.36,1.22-0.73c0.2,0.31,0.54,0.51,1.11,0.52
						c0.84,0,1.53-0.4,2.04-1c0.47,0.17,1.09,0.2,1.41,0.19c0.43-0.01,1-0.07,1.49-0.25c0.29,0.38,0.71,0.65,1.25,0.72
						c0.68,0.08,1.61-0.21,2.25-0.74c0.49,0.44,1.01,0.43,1.65,0.3c0.74-0.14,1.64-0.57,2.29-1.17c0.17,0.2,5.31-5.71,6-9.5
						c0.25-1.38,0.4-2.77,0.59-4.16C133.21,110.75,133,108.1,131.52,105.33z"/>
					<path class="st26" d="M116.73,95.42c1.77-0.19,3.41-1,5.09-1.59c-0.37-0.79-0.79-1.56-1.24-2.3
						C119.03,92.53,117.62,93.8,116.73,95.42z"/>
					<path class="st26" d="M123.47,97.95c-0.19-0.56-0.39-1.13-0.62-1.71c-1.15,0.65-2.21,1.45-3.04,2.48
						C121.05,98.83,122.3,98.39,123.47,97.95z"/>
					<path class="st26" d="M126.81,121.53c0.56,0.64,1.21,1.13,1.63,1.91c0.17,0.31,0.32,0.63,0.46,0.96
						c0.48-0.65,0.97-1.37,1.43-2.11C129.31,121.65,128.03,121.49,126.81,121.53z"/>
					<path class="st26" d="M89.39,119.82c-1.63,0.27-3.08,1.35-4.08,2.69c0.43,0.95,0.93,1.87,1.51,2.73
						C87.26,123.29,88.35,121.54,89.39,119.82z"/>
					<path class="st26" d="M87.93,126.67c0.27,0.32,0.55,0.62,0.85,0.92c0.54-1.17,1.24-2.26,1.81-3.42
						C89.43,124.48,88.48,125.62,87.93,126.67z"/>
					<path class="st26" d="M93.33,101.94c0.4-0.97-1.93-0.25-2.23-0.13c-0.12,0.05-0.24,0.1-0.35,0.15
						c-0.05,0.55-0.07,1.1-0.08,1.65c0.27-0.11,0.55-0.23,0.81-0.36C92.04,102.99,93.07,102.57,93.33,101.94z"/>
					<path class="st26" d="M96.16,109.63c-0.09,0.02-0.15-0.01-0.2-0.06c-0.49,0.17-0.98,0.41-1.42,0.64
						c-0.68,0.35-1.88,0.87-2.21,1.63c-0.23,0.54,0.56,0.64,0.93,0.56c0.62-0.13,1.22-0.42,1.75-0.77c0.43-0.29,0.9-0.6,1.22-1.01
						C96.48,110.31,97,109.47,96.16,109.63z"/>
					<path class="st26" d="M96.21,113.42c-0.18,0.08-0.31-0.06-0.32-0.22c-0.33,0.15-0.65,0.36-0.88,0.57
						c-0.17,0.15-0.5,0.49-0.31,0.73c0.17,0.21,0.46,0.36,0.73,0.32c0.5-0.07,0.92-0.54,1.11-0.99c0.06-0.14,0.18-0.38,0.1-0.53
						C96.6,113.23,96.26,113.4,96.21,113.42z"/>
					<path class="st26" d="M113.39,99.39c-0.55-0.14-1.24-0.03-1.7,0.31c-0.07,0.05-0.24,0.18-0.18,0.23
						c0.21,0.17,0.59,0.22,0.85,0.21c0.52-0.01,1.11-0.16,1.56-0.43c0.08-0.05,0.17-0.1,0.23-0.16c0.03-0.03,0.03-0.04,0.04-0.05
						c-0.08-0.09-0.39-0.14-0.58-0.16C113.56,99.39,113.49,99.42,113.39,99.39z"/>
					<path class="st26" d="M113.43,95.71c-0.08,0.02-0.15,0-0.2-0.03c-0.28,0.12-0.56,0.31-0.69,0.57
						c-0.22,0.42,0.38,0.48,0.69,0.43c0.34-0.06,0.76-0.29,0.83-0.66C114.13,95.62,113.71,95.65,113.43,95.71z"/>
					<path class="st26" d="M126.07,111.21c-0.03,0.11-0.13,0.19-0.27,0.16c-0.44-0.09-0.96-0.08-1.38,0.1
						c-0.04,0.02-0.1,0.04-0.14,0.08c0.15,0.13,0.43,0.18,0.6,0.22c0.4,0.09,0.95,0.11,1.23-0.26
						C126.24,111.35,126.19,111.26,126.07,111.21z"/>
					<path class="st26" d="M121.94,117.43c0.14,0.28,0.43,0.47,0.71,0.58c0.29,0.12,0.57,0.2,0.88,0.26
						c0.76,0.14,1.57,0.25,2.34,0.11c0.46-0.08,1.78-0.65,0.89-1.28c-0.36-0.26-0.77-0.38-1.2-0.47c-0.1-0.02-0.15-0.08-0.18-0.16
						c-0.87-0.13-1.81-0.05-2.61,0.23C122.56,116.78,121.75,117.04,121.94,117.43z"/>
					<path class="st26" d="M112.46,105.65c-0.01,0-0.02,0-0.04,0c-0.08-0.01-0.16-0.01-0.24-0.02c-0.05,0-0.09,0-0.13,0
						c-0.66,0.02-1.39,0.29-1.91,0.64c-0.17,0.12-0.74,0.49-0.41,0.72c0.33,0.24,0.78,0.33,1.18,0.35c0.81,0.03,2.03,0,2.67-0.58
						C114.43,106.01,113.24,105.72,112.46,105.65z"/>
					<path class="st26" d="M112.87,110.98c-0.13-0.03-0.19-0.13-0.19-0.24c-1.01-0.19-2.15,0.11-2.99,0.65
						c-0.33,0.21-1.06,0.74-0.36,1.04c0.37,0.16,0.76,0.26,1.16,0.3c0.69,0.07,1.42,0.06,2.1-0.08c0.35-0.07,0.78-0.17,1.06-0.41
						C114.35,111.63,113.43,111.11,112.87,110.98z"/>
					<path class="st26" d="M93.27,106.76c0.56-0.45,1.12-0.9,1.7-1.31c0.54-0.38,1.13-0.72,1.65-1.12c0.49-0.38-1.14-0.45-1.18-0.45
						c-1.42,0.19-3.72,0.99-4.7,2.33c0.04,0.6,0.09,1.19,0.14,1.78c0.01,0.1,0.02,0.2,0.03,0.29c0.02-0.01,0.04-0.02,0.07-0.02
						C91.97,108.16,92.56,107.33,93.27,106.76z"/>
					<path class="st26" d="M88.01,114.01c-1.62,0.36-3.1,1.21-4.2,2.44c0.06,1.24,0.29,2.51,0.65,3.76c0.34-1,0.76-1.98,1.27-2.9
						C86.4,116.13,87.24,115.11,88.01,114.01z"/>
					<path class="st26" d="M127.33,114.17c1.98,1.26,3.55,3.22,4.4,5.43c0.23-0.56,0.4-1.1,0.49-1.61c0.12-0.64,0.21-1.28,0.29-1.92
						C131.33,114.56,129.24,114.31,127.33,114.17z"/>
					<path class="st26" d="M129.35,107.07c-1.24-0.22-2.77-0.42-3.89,0.27c3.35,1.22,6.02,3.21,7.34,6.56
						c0-0.03,0.01-0.05,0.01-0.08c0.25-1.88,0.26-3.59-0.1-5.27C131.76,107.77,130.59,107.29,129.35,107.07z"/>
					<path class="st25" d="M107.29,115.22c-0.11-2.11-0.03-4.25,0.24-6.34c0.43-3.29,1.23-6.54,2.36-9.67
						c-0.45-0.3-0.9-0.58-1.36-0.84c-2.82-1.56-6.19-2.32-9.39-1.64c-2.37,0.51-1.26,4.32-0.25,5.69c0.73,0.99,1.75,1.83,2.02,3.09
						c0.34,1.57,0.43,3.22,0.68,4.81c0.25,1.59,0.5,3.18,0.69,4.78c0.05,0.4,0.09,0.8,0.14,1.22c0.48,2.11,1.02,4.2,1.54,6.3
						c0.55,0.17,1.03,0.62,1.39,1.14c0-0.01,0.01-0.02,0.01-0.02c0.53-0.84,1.46-1.43,1.95-2.23
						C107.68,119.43,107.41,117.31,107.29,115.22z"/>
					<path class="st27" d="M116.04,128.39c1.46-0.43,0.96-4.48,0.56-5.3c-0.46-0.93-1.08-0.86-1.12-1.86
						c-0.04-1.05,0.04-2.11,0.08-3.16c0.09-2.25,0.23-4.48,0.49-6.71c0.15-1.34,0.21-2.66,0.25-4c0.01-0.3,0.02-0.6,0.03-0.89
						c-0.25,1.47-0.46,2.94-0.6,4.44c-0.19,2.13-0.32,4.26-0.5,6.38c-0.09,1.09-0.16,2.18-0.18,3.28c-0.01,0.53-0.2,1.48-0.05,2.12
						C117.17,123.19,117.05,126.38,116.04,128.39z"/>
					<path class="st28" d="M107.22,107.52c-0.3,1.07-0.69,2.07-1.23,2.96c-0.69,1.15-2.06,1.56-3.09,0.51
						c-1.33-1.36-1.48-3.2-1.77-4.99l0.27,2.83c0.41,1.07,1.2,6.65,1.51,8.86c0.44,1.59,0.84,3.19,1.27,4.79
						c0.56,0.12,1,0.47,1.24,1c0.46-0.75,1.14-1.43,1.93-1.77c-0.14-1.48-0.27-2.97-0.37-4.46c-0.27-1.15-0.23-2.45-0.13-3.58
						C106.82,111.62,106.93,109.56,107.22,107.52z"/>
					<path class="st29" d="M97.65,98.55c-0.67,2.28,0.93,4.63,3.06,5.99c-0.21,2.49,0.42,5.3,0.89,7.69
						c0.42,2.13,0.92,4.42,1.67,6.53c-0.13-0.99-1.07-5.84-1.34-7.05c-0.52-2.35-0.44-4.67-0.93-7.02c1.06,0.56,2.53,1.08,3.57,1.02
						c0.04,0,0.08-0.02,0.11-0.04C100.75,104.71,97.67,102.13,97.65,98.55z"/>
				</g>
				<path class="st27" d="M105.66,123.4c-0.02-0.01-0.04-0.02-0.05-0.02c-0.03-0.01-0.06,0.03-0.05,0.06
					c0.01,0.01-0.33,0.77-0.32,0.74c-0.13,0.47-0.22,0.93-0.27,1.42c-0.09,0.95,0.12,2.07,0.64,2.87c0.05,0.07,0.16-0.07,0.14-0.13
					c-0.54-1.48-0.97-3.41-0.1-4.87C105.67,123.45,105.68,123.41,105.66,123.4z"/>
				<path class="st27" d="M95.24,125.88c-0.33-0.35-0.96-0.23-1.37-0.08c-0.54,0.19-1,0.6-1.32,1.07c-0.12-0.06-0.24-0.12-0.38-0.16
					c-0.49-0.17-1.07-0.07-1.42,0.32c-0.17,0.19-0.65,0.81-0.45,0.94c-0.03-0.02-0.09,0.05-0.06,0.08c0.01,0.02,0.03,0.03,0.04,0.04
					c0.04,0.04,0.08-0.03,0.08-0.06c0.21-1.72,2.05-0.97,2.8-0.3c0.65,0.58,1.03,1.39,1.27,2.2c0.02,0.07,0.1-0.03,0.1-0.07
					c-0.16-1.26-0.77-2.37-1.86-2.94c0,0,0,0,0-0.01c0.64-0.68,1.46-1.07,2.37-0.73C95.15,126.23,95.32,125.97,95.24,125.88z"/>
				<path class="st27" d="M126.45,125.21c-0.21-0.48-0.64-0.96-1.14-1.14c-0.59-0.21-1.64-0.27-1.97,0.4
					c-0.35-0.68-1.3-1.12-2.03-1.04c-0.9,0.1-1.73,0.39-2.07,1.3c-0.01,0.04,0.03,0.05,0.04,0.02c0.98-1.56,3.05-1.12,4.01,0.14
					c0,0.56-0.11,1.11-0.27,1.65c-0.05,0.17-0.59,1.51-0.56,1.53c-0.01-0.01-0.03,0.01-0.03,0.02c0,0.01-0.01,0.03-0.01,0.04
					c-0.01,0.03-0.01,0.08,0.03,0.05c0.38-0.21,0.61-0.91,0.74-1.3c0.22-0.63,0.75-1.78,0.31-2.39c0.5-0.38,1.29-0.22,1.8,0.04
					c0.79,0.42,1.04,1.26,0.89,2.09c-0.04,0.19,0.17,0.07,0.2-0.04C126.55,126.13,126.65,125.67,126.45,125.21z"/>
				<path class="st27" d="M102.97,122.31c-0.47,0.11-0.86,0.38-1.15,0.74c-0.36-0.7-1.85-0.11-2.33,0.13
					c-0.64,0.32-1.13,0.74-1.44,1.26c-0.27-0.15-0.56-0.12-0.83,0.01c-0.55-1.15-1.31-2.21-1.88-3.36c-0.6-1.22-1.2-2.44-1.72-3.7
					c-1.17-2.79-1.95-5.7-2.56-8.66c-0.01-0.03-0.05,0.01-0.05,0.04c0.51,2.9,1.05,5.7,2.16,8.45c1.01,2.52,2.18,5.17,3.88,7.33
					c-0.26,0.16-0.49,0.39-0.66,0.59c-0.41,0.48-0.66,1.15-0.72,1.8c-0.04,0.2-0.06,0.39-0.07,0.59c0.01,0.07,0.03,0.14,0.04,0.21
					c0.01,0.37,0.07,0.73,0.19,1.09c0.21,0.6,0.71,1.46,1.28,1.79c0.07,0.04,0.16-0.1,0.1-0.15c-0.89-0.75-1.39-1.87-1.44-3.01
					c0.01-0.12,0.01-0.24,0.03-0.37c0.04-0.42,0.17-0.82,0.38-1.18c0.06-0.11,0.12-0.21,0.19-0.32c0.02-0.05,0.05-0.09,0.08-0.14
					c0.17-0.27,0.52-0.59,0.8-0.74c0.21-0.11,0.45-0.09,0.68-0.07c-0.2,0.4-0.32,0.87-0.34,1.39c0,0.04,0.01,0.06,0.04,0.07
					c0,0.28,0.03,0.57,0.08,0.86c0,0.01,0.01,0.03,0.01,0.05c0.28,1.22,0.9,2.54,1.8,3.09c-0.77-0.89-1.75-2.72-1.71-4.2
					c0.25-1.07,0.67-1.81,1.67-2.35c0.52-0.28,1.32-0.61,1.93-0.39c0.08,0,0.15,0.04,0.19,0.1c0.02,0.01,0.04,0.02,0.05,0.03
					c-0.01,0.01-0.01,0.03-0.02,0.04c0.01,0.03,0.01,0.07,0,0.11c-0.4,1.62-0.6,3.83,0.5,5.23c-0.77-1.68-0.96-3.35-0.35-5.11
					c0.44-0.53,0.93-0.96,1.7-0.93c0.3,0.01,0.58,0.04,0.87,0.1c0.29,0.06,0.47,0.25,0.74,0.31c0.04,0.01,0.07-0.06,0.04-0.08
					C104.51,122.37,103.83,122.12,102.97,122.31z"/>
				<path class="st27" d="M108.87,123.24c-0.02,0.05,0.03,0.05,0.05,0.01c0.38-0.75,1.27-1.23,2.11-1.03
					c0.96,0.23,1.55,0.79,1.86,1.74c0.04,0.12,0.18-0.05,0.16-0.12C112.71,121.72,109.71,121.16,108.87,123.24z"/>
				<path class="st27" d="M108.68,124c0.01-0.04-0.05-0.01-0.05,0.02c-0.3,1.5-0.17,3.05,0.44,4.46c0.03,0.07,0.14-0.06,0.12-0.11
					C108.69,126.96,108.46,125.49,108.68,124z"/>
				<path class="st27" d="M113.21,124.53c-0.01-0.02-0.04,0.01-0.03,0.02c0.09,0.55,0,1.11-0.04,1.67
					c-0.05,0.73-0.09,1.44-0.22,2.16c-0.03,0.16,0.16,0.07,0.18-0.03C113.35,127.18,113.5,125.7,113.21,124.53z"/>
				<path class="st27" d="M114.73,122.61c-0.33,0.06-0.64,0.12-0.93,0.29c-0.23,0.14-0.38,0.37-0.5,0.6
					c-0.03,0.05,0.03,0.06,0.05,0.02c0.33-0.51,0.76-0.63,1.33-0.7C114.77,122.81,114.86,122.59,114.73,122.61z"/>
				<path class="st27" d="M108.7,122.24c-0.14-0.11-0.28-0.22-0.44-0.31c-0.17-0.09-0.36-0.07-0.55-0.1c-0.03,0-0.06,0.05-0.03,0.06
					c0.17,0.06,0.33,0.08,0.49,0.17c0.15,0.09,0.28,0.24,0.4,0.36C108.65,122.48,108.78,122.3,108.7,122.24z"/>
				<path class="st27" d="M123.62,105.53c-1.78,2.48-2.77,4.93-3.3,7.95c-0.56,3.18-0.6,6.32-0.38,9.54
					c0.01,0.18,0.22,0.01,0.22-0.1c0.04-3.05-0.15-6.04,0.39-9.07c0.23-1.29,0.43-2.57,0.8-3.83c0.48-1.64,1.37-3.05,2.31-4.46
					C123.69,105.51,123.65,105.48,123.62,105.53z"/>
				<path class="st30" d="M131.52,105.33c-0.68-1.27-1.03-2.07-3.45-2.66c-0.24-0.06-2.99,0.94-2.99,0.94
					c-0.33-0.72-3.16-16.65-11.69-17.62c-0.08-0.01-0.13,0.02-0.17,0.07c-0.01,0-0.03-0.01-0.05-0.01
					c-0.97-0.19-2.49,1.68-3.15,2.15c-1.86,1.32-4.36,1.64-6.59,1.69c-0.91,0.02-1.83-0.08-2.73-0.16c-0.67-0.07-3-0.18-3.54-0.66
					c-0.18-0.16-0.47-0.08-0.48,0.18c0,0.02,0,0.03,0.01,0.04c-1.11,0.82-2,1.8-2.72,2.88c0.5,0.53,1.18,0.87,1.88,1.1
					c1.49,0.49,3.11,0.73,4.67,0.86c3.88,0.31,7.72-0.23,11.29-1.82c0.49-0.22,2.02-1.31,2.62-0.79c0.72,0.63,0.85,1.74,0.91,2.64
					c0.05,0.73,0.1,1.45,0.15,2.18c0.21,1.43,0.21,2.93,0.26,4.29c0.1,2.55-0.08,5.03-0.37,7.57c-0.31,2.64-0.67,5.28-1.34,7.86
					c-0.33,1.26-0.51,2.59-1.14,3.75c-1.77,3.24-4.25-4.23-4.43-5.12c-0.71-3.42-0.48-6.88-0.27-10.34
					c-0.44,3.18-0.68,6.37-0.84,9.59c-0.12,2.23-0.2,4.43-0.13,6.66c0.04,1.33-1.04,1.78-1.71,2.79c-0.07,0.11-0.26,0.12-0.35,0.03
					c-0.31-0.3-0.55-0.63-0.76-0.98c-0.08,0.02-0.16,0.01-0.21-0.05c-0.08-0.07-0.12-0.13-0.18-0.22c-0.07-0.11-0.04-0.22,0.02-0.3
					c-0.03-0.16-0.07-0.32-0.1-0.48c-0.14-0.41-0.26-0.84-0.36-1.28c-0.37-1.55-0.8-3.09-1.17-4.64c-0.81-3.42-1.41-6.88-1.35-10.41
					c0-0.18,0.16-0.27,0.29-0.26c0-0.01,0-0.02,0-0.02c0.01-0.1,0.12-0.21,0.22-0.2c0.47,0.02,0.93,0.08,1.39,0.16
					c-1.37-0.5-2.64-1.16-3.63-2.36c-0.96-1.16-1.62-2.47-2.02-3.88c0,0.73,0.04,1.45,0.17,2.16c0.28,1.4,1.02,2.62,1.16,4.05
					c0.3,3.06,0.63,6.14,1.37,9.13c0.44,1.78,1.13,3.5,1.52,5.29c0.17,0.78,0.64,2.7-0.49,3.09c-1.23,0.42-2.45-0.98-3.17-1.78
					c-1.36-1.51-2.58-3.15-3.53-4.95c-2.02-3.79-3.08-7.94-3.64-12.16c-0.04,1.56,0.07,3.14,0.2,4.66c0.05,0.55,0.11,1.09,0.18,1.63
					c-0.79-0.77-1.81-1.28-2.9-1.14c-0.68,0.09-1.27,0.34-1.78,0.71c0.32-0.11,0.67-0.14,1.06-0.07c1.47,0.26,2.05,2.46,2.35,3.64
					c0.61,2.4,1.42,4.76,1.8,7.22c0.31,2.04,1.17,7.57-2.63,6.56c-0.75-0.2-1.43-0.59-2.03-1.1c0.82,1.17,1.77,2.22,2.83,3.08
					c-0.03,0.32-0.01,0.65,0.04,0.99c0.21,1.53,1.83,2.27,3.29,1.97c0.32-0.03,0.62-0.16,0.88-0.41c0.28-0.27,0.44-0.66,0.51-1.1
					c0.01,0.03,0.03,0.05,0.05,0.08c0.55,0.75,1.54,1.11,2.4,0.73c0.09-0.04,0.17-0.1,0.25-0.16c0.42,0.35,1.14,0.51,1.56,0.23
					c0.25-0.17,0.43-0.4,0.53-0.68c0.11,0.13,0.25,0.26,0.42,0.37c0.84,0.52,1.7-0.14,2.17-0.83c0.09-0.13,0.15-0.27,0.21-0.4
					c0.49,0.89,1.3,1.41,2.48,0.75c0.54-0.31,0.8-0.89,0.92-1.5c0.08,0.18,0.17,0.35,0.27,0.52c0.61,0.91,1.81,1.18,2.82,0.83
					c0.41-0.14,0.68-0.42,0.86-0.76c0.52,0.52,1.34,0.7,2.07,0.55c0.46-0.09,0.87-0.36,1.22-0.73c0.2,0.31,0.54,0.51,1.11,0.52
					c0.84,0,1.53-0.4,2.04-1c0.47,0.17,1.09,0.2,1.41,0.19c0.43-0.01,1-0.07,1.49-0.25c0.29,0.38,0.71,0.65,1.25,0.72
					c0.68,0.08,1.61-0.21,2.25-0.74c0.49,0.44,1.01,0.43,1.65,0.3c0.74-0.14,1.64-0.57,2.29-1.17c0.17,0.2,5.31-5.71,6-9.5
					c0.25-1.38,0.4-2.77,0.59-4.16C133.21,110.75,133,108.1,131.52,105.33z M97.16,127.8c-0.05,0.12-0.21,0.18-0.33,0.12
					c-0.64-0.33-0.76-1.24-0.34-1.79c0.19-0.25,0.55,0.05,0.39,0.3c0.02,0.01,0.04,0.02,0.06,0.03
					C97.32,126.82,97.37,127.32,97.16,127.8z M100.38,127.78c-0.69,0.82-1.58,0.61-1.9-0.41c-0.25-0.82-0.34-2.2,0.53-2.71
					c0.03-0.02,0.07-0.03,0.1-0.03c0.04-0.04,0.08-0.07,0.12-0.11c0.33-0.24,0.74-0.06,0.99,0.2
					C100.94,125.48,101.05,126.97,100.38,127.78z M102.87,126.64c-1.2-0.03-1.24-2.37-0.26-2.8c0.03-0.03,0.07-0.05,0.13-0.05
					c0.01,0,0.03,0,0.04,0c0.01,0,0.01-0.01,0.02-0.01c0.05-0.01,0.09,0,0.13,0.02C104.03,123.96,104.02,126.67,102.87,126.64z
					 M106.97,127.36c-1.55,0.47-1.85-2.9-0.61-3.72c-0.07-0.12-0.05-0.28,0.12-0.32C108.1,122.93,108.44,126.91,106.97,127.36z
					 M110.77,127.48c-1.82,0.56-2.5-2.98-1.38-4.07c0-0.04,0.02-0.08,0.04-0.12c0.74-1.05,1.72,0.3,2,1.02
					C111.8,125.26,112.08,127.07,110.77,127.48z M115.51,125.93c-0.12,0.38-0.36,0.93-0.86,0.82c-0.41-0.09-0.64-0.61-0.77-0.96
					c-0.23-0.66-0.56-2.3,0.51-2.43c0.01-0.01,0.02-0.03,0.03-0.04c0.48-0.46,1.02-0.17,1.17,0.42
					C115.8,124.48,115.74,125.22,115.51,125.93z M121.07,127.85c-2.54,0.85-2.37-3.41-0.37-3.82c0.77-0.58,1.37,0.42,1.51,1.11
					C122.41,126.12,122.17,127.48,121.07,127.85z M124.55,126.58c-0.54,0.22-0.92-0.36-0.87-0.84c0.05-0.52,0.37-1.16,0.86-1.39
					c0.2-0.09,0.34,0.1,0.32,0.27C125.53,124.96,125.25,126.28,124.55,126.58z M128.44,114.65c-0.9,2.94-2.31,6.93-5.22,8.52
					c-3.74,2.03-3.16-6.45-2.96-7.97c0.33-2.54,0.97-4.86,2.35-7.04c0.85-1.34,2.04-3.44,3.77-3.74c1.15-0.43,2.26,0.32,2.62,1.81
					C129.66,109.05,129.28,111.9,128.44,114.65z"/>
				<g>
					<g>
						<path class="st31" d="M129.3,78.51c-0.93-0.48-1.96-0.81-2.94-1.18c-0.8-0.3-1.58-0.62-2.37-0.92
							c0.58-2.68,0.29-5.29,0.02-7.97c-0.15-1.5-0.4-2.99-0.51-4.49c-0.01-0.22-0.02-0.44-0.02-0.66c0.12-0.42,0.24-0.84,0.35-1.25
							c0.74-2.66,1.8-5.41,2.24-8.12c0.06-0.37-0.34-0.57-0.64-0.54c-1.13,0.14-2.44,0.97-3.48,1.43c-1.35,0.59-2.64,1.37-3.88,2.18
							c-1.62,1.06-3.23,2.32-4.55,3.78c-1.42-1.21-3.42-1.85-5.3-2.3c-1.67-0.4-3.5-0.47-5.19-0.17c-0.94,0.17-1.7,0.46-2.43,0.83
							c-0.31-0.58-0.63-1.16-0.92-1.7c-0.62-1.18-1.3-2.32-1.88-3.53c-0.34-0.7-0.67-1.55-1.22-2.11c-0.3-0.31-0.72-0.15-0.88,0.2
							c-1.47,3.32-2.71,6.94-3.78,10.44c-1.27,1.24-2.72,2.38-3.93,3.5c-1.18,1.08-2.2,2.16-3.04,3.4c-0.66-0.27-1.33-0.52-2-0.77
							c-1.17-0.45-2.77-1.3-4.03-1.26c-0.35,0.01-0.68,0.39-0.46,0.74c1.11,1.76,2.05,3.4,3.31,4.96c-0.09-0.01-0.18-0.03-0.27-0.04
							c-1.08-0.19-2.18-0.52-3.27-0.5c-0.4,0.01-0.74,0.53-0.39,0.85c0.96,0.88,2.16,1.55,3.36,2.19c-0.05,0.02-0.1,0.04-0.16,0.06
							c-0.54,0.22-2.06,0.48-2.02,1.27c0.01,0.21,0.11,0.34,0.3,0.43c0.68,0.31,1.51,0.38,2.24,0.54c0.42,0.09,0.84,0.23,1.27,0.36
							c0.43,3.28,2.04,6.44,4.38,8.77c4.71,4.68,11.03,6.18,17.46,4.99c3.35-0.62,6.57-1.59,9.46-3.43
							c1.74-1.11,3.48-2.44,5.03-3.97c1.85,0.4,3.71,0.93,5.58,1.12c0.24,0.02,0.39-0.25,0.28-0.45c-0.36-0.67-0.98-1.25-1.52-1.81
							c0.31-0.02,0.62-0.03,0.93-0.04c0.88-0.03,3.29-0.64,2.94-0.82c-0.82-0.41-1.52-1.07-2.25-1.61
							c-0.25-0.19-0.52-0.36-0.78-0.54c0.58-0.13,1.16-0.27,1.75-0.37C127.09,79.83,129.59,78.65,129.3,78.51z"/>
						<path class="st26" d="M86.79,69.72c0.76,0.34,1.8,0.92,2.7,0.85c-0.71-1.3-1.68-2.42-2.69-3.51c-0.58,0.6-1.12,1.22-1.6,1.88
							C85.73,69.22,86.25,69.49,86.79,69.72z"/>
						<path class="st26" d="M87.05,78.12c0.33-0.84-2.43,0-2.64,0.09c-0.47,0.2-1,0.42-1.47,0.7c0.13,0.69,0.31,1.37,0.53,2.04
							c0.54-0.32,1.06-0.69,1.56-1.05C85.65,79.47,86.76,78.86,87.05,78.12z"/>
						<path class="st26" d="M85.13,74.51c-0.8-1.41-2.03-2.44-3.13-3.62c-1.1-1.19-2.33-2.24-3.61-3.23
							c-0.05,0.12-0.04,0.26,0.04,0.39c0.96,1.52,1.8,2.97,2.83,4.34C82.36,73.52,83.87,74.71,85.13,74.51z"/>
						<path class="st26" d="M118.97,72.94c1.32,1.42,3.45,1.49,5.23,2.18c0.12-1,0.14-2,0.11-3
							C122.52,71.81,120.52,72.21,118.97,72.94z"/>
						<path class="st26" d="M123.49,83.4c0.29-0.01,0.59-0.03,0.88-0.04c-1.47-0.99-3.6-1.16-5.33-1.06
							c1.06,1.61,3.36,2.09,4.86,3.25c0.27,0.04,0.55,0.08,0.83,0.11c0.24,0.02,0.39-0.25,0.28-0.45
							C124.65,84.54,124.02,83.97,123.49,83.4z"/>
						<path class="st26" d="M129.3,78.51c-0.72-0.37-1.51-0.66-2.28-0.94c-2.19-0.21-4.4-0.38-6.53,0.21
							c1.16,0.54,2.42,0.82,3.65,1.16c1.03,0.29,2.07,0.61,3.13,0.69C128.34,79.22,129.5,78.61,129.3,78.51z"/>
						<path class="st26" d="M99.74,63.65c0.34,1.51,1.6,0.44,2.12-0.51c0.88-1.6,1.55-3.28,2.24-4.97
							c-0.36,0.03-0.72,0.07-1.07,0.13c-0.78,0.14-1.44,0.37-2.06,0.66C100.57,59.95,99.6,63.07,99.74,63.65z"/>
						<path class="st26" d="M104.25,62.54c0.07,0.73,0.43,1.45,1.18,1.39c0.76-0.06,1.36-0.78,2.76-3.42
							c0.32-0.6,0.64-1.19,0.93-1.8c-0.31-0.08-0.61-0.16-0.91-0.23c-0.97-0.23-1.99-0.34-3.01-0.34
							C104.89,59.39,104.12,61.15,104.25,62.54z"/>
						<path class="st26" d="M112.92,60.34c-0.86-0.59-1.87-1.02-2.91-1.36c-0.41,1.35-1.01,3.26-0.22,4.25
							C110.42,64.02,112.03,61.75,112.92,60.34z"/>
						<path class="st32" d="M117.83,60.2c-0.3,0.27-1.21,0.73-1.04,1.24c0.1,0.31,0.62,0.48,0.87,0.61
							c0.44,0.24,0.85,0.53,1.28,0.78c0.43,0.25,0.98,0.5,1.48,0.52c0.14,0.01,0.32-0.07,0.39-0.2c0.42-0.89,1.76-4.94,1.63-5.96
							C122.4,56.97,118.5,59.59,117.83,60.2z"/>
						<path class="st32" d="M96.73,56.42c-0.24,0.84-1.47,4.5-1.92,5.79c-0.08,0.23,0.17,0.37,0.36,0.3
							c0.91-0.35,1.84-1.04,2.67-1.56c0.15-0.09,0.19-0.23,0.18-0.4C97.88,58.97,97.48,53.82,96.73,56.42z"/>
						<path class="st33" d="M81.73,72.97c0.36,0.13,0.71,0.28,1.03,0.45c-0.22-0.37-0.44-0.73-0.67-1.1
							c-0.87-1.36-1.91-2.62-2.71-4.02c-0.21-0.37-0.32-0.7-0.37-0.99c-0.03,0-0.07-0.01-0.1,0c-0.35,0.01-0.68,0.39-0.46,0.74
							C79.54,69.79,80.48,71.42,81.73,72.97z"/>
						<path class="st33" d="M81.16,75.53c0.44,0.03,0.89,0.08,1.33,0.17c-0.03-0.02-0.07-0.05-0.1-0.08
							c-0.1-0.07-0.2-0.21-0.27-0.35c-1.6-0.79-3.4-1.85-4.01-2.78c-0.36,0.08-0.61,0.54-0.29,0.83c0.96,0.88,2.16,1.55,3.36,2.19
							C81.18,75.52,81.17,75.52,81.16,75.53z"/>
					</g>
					<g>
						<path class="st34" d="M97.27,69.67c-0.32,1.05-1.04,1.76-1.61,1.59c-0.57-0.17-0.78-1.17-0.46-2.21
							c0.32-1.05,1.04-1.76,1.61-1.59C97.38,67.63,97.59,68.62,97.27,69.67z"/>
						<path class="st12" d="M96.44,68.51c-0.08,0.27-0.26,0.45-0.41,0.4c-0.14-0.04-0.2-0.3-0.12-0.57c0.08-0.27,0.26-0.45,0.41-0.4
							C96.47,67.99,96.52,68.24,96.44,68.51z"/>
						<path class="st34" d="M106.28,70.71c-0.32,1.05-1.04,1.76-1.61,1.59c-0.57-0.17-0.78-1.16-0.46-2.21
							c0.32-1.05,1.04-1.76,1.61-1.59C106.4,68.67,106.6,69.66,106.28,70.71z"/>
						<path class="st26" d="M101.46,85.76c-0.36,0.54-0.6,1.04-1.14,1.45c-0.71,0.54-1.66,0.49-2.48,0.4
							c-1.25-0.14-2.22-0.99-2.92-1.97c-0.5-1.14-0.87-2.33-1.04-3.57c-0.15-1.12-0.03-2.27,0.25-3.35
							c0.14-0.58,0.49-1.07,0.63-1.62c0.01-0.04-0.04-0.02-0.04,0c-0.15,0.42-0.45,0.79-0.6,1.23c-0.35,1.01-0.49,1.98-0.5,3.04
							c-0.02,1.83,0.62,3.71,1.54,5.28c0,0.01,0,0.02,0,0.02c0.12,1.07,0.28,3.2-1.38,3.06c-0.85-0.07-1.82-0.97-2.2-1.68
							c-0.02-0.03-0.07,0.03-0.06,0.06c0.48,1.08,1.79,2.23,3.03,1.82c0.45-0.15,0.71-0.55,0.86-1.05c0.38,0.81,1.46,1.99,2.48,1.5
							c0.79-0.37,1.12-1.45,0.98-2.31c1.19-0.13,2.28-0.85,2.79-2.25C101.7,85.67,101.55,85.63,101.46,85.76z"/>
						<path class="st35" d="M98.49,89.28c-0.16,0.92-1.04,0.97-1.71,0.68c-0.58-0.26-0.86-0.84-1.36-1.17
							c0.17-0.66,0.16-1.45,0.08-2.01c0.8,0.89,1.95,1.35,3.06,1.31C98.6,88.5,98.56,88.87,98.49,89.28z"/>
						<path class="st26" d="M91.14,82.26c-2.26,0.08-4.37,0.04-6.6,0.52c-2.09,0.45-4.01,1.34-5.83,2.44
							c-0.06,0.04-0.1,0.23,0.01,0.17c1.97-0.98,3.94-1.85,6.1-2.32c2.09-0.45,4.17-0.42,6.28-0.65
							C91.17,82.42,91.24,82.26,91.14,82.26z"/>
						<path class="st26" d="M90.72,83.67c-2.23,0.41-4.21,0.87-6.24,1.94c-1.79,0.94-3.7,2.09-5.18,3.49
							c-0.06,0.06-0.05,0.21,0.05,0.13c1.64-1.24,3.32-2.41,5.12-3.4c2-1.1,4.02-1.61,6.23-2.06
							C90.73,83.75,90.77,83.66,90.72,83.67z"/>
						<path class="st26" d="M90.47,85.11c-3.36,1.7-6.48,4-8.31,7.37c-0.06,0.11,0.06,0.13,0.12,0.05c1.24-1.68,2.33-3.25,3.97-4.57
							c1.34-1.07,2.7-1.97,4.21-2.77C90.5,85.17,90.52,85.09,90.47,85.11z"/>
						<path class="st26" d="M113.59,81.05c-2.2-1.15-4.97-1.39-7.41-1.42c-2.54-0.03-5.31,0.29-7.63,1.39
							c-0.04,0.02-0.06,0.12,0,0.09c4.48-1.96,10.43-1.61,14.9,0.14C113.55,81.28,113.68,81.09,113.59,81.05z"/>
						<path class="st26" d="M113.96,84.46c-4.23-2.46-9.32-2.84-14.08-2.32c-0.04,0-0.08,0.1-0.02,0.09
							c2.42-0.19,4.77-0.21,7.16,0.22c2.4,0.43,4.56,1.27,6.8,2.21C113.92,84.7,114.05,84.51,113.96,84.46z"/>
						<path class="st26" d="M112.76,88.35c-1.9-1.71-4.06-3-6.42-3.95c-2.23-0.89-4.39-0.86-6.74-0.86c-0.04,0-0.08,0.09-0.04,0.09
							c2.23,0.07,4.15,0.14,6.28,0.84c2.52,0.82,4.78,2.34,6.82,4.01C112.72,88.52,112.81,88.39,112.76,88.35z"/>
						<path class="st12" d="M105.43,69.6c-0.08,0.27-0.27,0.45-0.41,0.4c-0.15-0.04-0.2-0.3-0.12-0.56c0.08-0.27,0.27-0.45,0.41-0.4
							C105.46,69.08,105.51,69.33,105.43,69.6z"/>
						<g>
							<path class="st34" d="M92.58,74.48c0,0,4.38-0.19,7.85,1.26c3.47,1.45-4.28,3.83-6.43,2.85
								C91.85,77.61,88.96,74.28,92.58,74.48z"/>
							<path class="st36" d="M92.5,74.78c0,0,2.19-0.09,3.93,0.63c1.74,0.73-2.14,1.92-3.22,1.43
								C92.14,76.34,90.69,74.68,92.5,74.78z"/>
						</g>
					</g>
				</g>
			</g>
			<polygon class="st37" points="142.01,119.03 126.68,146.09 127.05,147.98 			"/>
			<polygon class="st23" points="51.65,145.9 126.68,146.09 142.01,119.03 68.24,120.48 			"/>
			<polygon class="st23" points="51.65,145.9 69.39,122.33 142.01,119.03 68.24,120.48 			"/>
			<polygon class="st24" points="51.65,145.9 51.65,147.98 127.05,147.98 126.68,146.09 			"/>
		</g>
		<g>
			<path class="st38" d="M75.44,132.48c-0.04-0.09-0.13-0.15-0.23-0.19c-0.02-0.36-0.04-0.71-0.07-1.07
				c-0.06-0.95-0.12-1.89-0.19-2.84c-0.02-0.31-0.05-0.62-0.09-0.93c-0.02-0.16-0.04-0.35-0.12-0.49c-0.26-0.48-0.94-0.33-1.27-0.06
				c-0.19,0.16-0.34,0.41-0.49,0.62c-0.17,0.23-0.34,0.47-0.5,0.71c-0.64,0.95-1.19,1.98-1.71,3.02c-0.25,0.49-0.48,0.99-0.72,1.49
				c-0.05,0.02-0.1,0.04-0.15,0.06c-0.18,0.07-0.35,0.18-0.53,0.25c-0.04,0.02-0.06,0.05-0.08,0.09c0,0,0,0,0,0
				c-0.02,0.19,0.22,0.27,0.43,0.29c-0.67,1.46-1.31,2.93-2.02,4.36c-0.12,0.24,0.73,0.3,0.86,0.03c0.76-1.55,1.45-3.14,2.18-4.71
				c0.13-0.06,0.26-0.11,0.4-0.15c0.45-0.14,0.9-0.27,1.36-0.33c0.61-0.08,1.22-0.03,1.84,0.01c0.01,0.13,0.02,0.27,0.03,0.4
				c0.11,1.54,0.23,3.09,0.51,4.61c0.06,0.31,0.93,0.18,0.89-0.08c-0.29-1.61-0.42-3.26-0.53-4.9
				C75.35,132.66,75.49,132.61,75.44,132.48z M72.12,132.2c-0.35,0.04-0.7,0.12-1.04,0.21c0.37-0.79,0.76-1.57,1.17-2.33
				c0.33-0.6,0.68-1.19,1.05-1.76c0.17-0.27,0.36-0.52,0.54-0.78c0.04-0.05,0.07-0.1,0.11-0.15c0.01,0.07,0.02,0.15,0.03,0.22
				c0.04,0.32,0.07,0.65,0.09,0.98c0.09,1.2,0.16,2.41,0.24,3.61C73.58,132.18,72.85,132.12,72.12,132.2z"/>
			<path class="st38" d="M81.72,130.98c0.02-0.98,0.04-1.96,0.06-2.95c0.02-1.23,0.05-2.46,0.05-3.69c0-0.29-0.89-0.26-0.89,0.04
				c0,2.06-0.04,4.13-0.09,6.2c-0.88-0.21-1.84,0.03-2.57,0.65c-0.86,0.73-1.22,2.03-1.22,3.23c0,1.28,0.48,2.51,1.47,3.12
				c0.81,0.5,1.78,0.5,2.66,0.29c0.06-0.02,0.33-0.11,0.31-0.24c0.02-0.03,0.03-0.06,0.04-0.09c0.08-1.23,0.09-2.47,0.12-3.7
				c0.01-0.58,0.03-1.17,0.04-1.75c0.11,0.19,0.2,0.39,0.26,0.59c0.1,0.31,0.96,0.11,0.88-0.12
				C82.62,131.89,82.23,131.34,81.72,130.98z M80.76,134.32c-0.03,1.08-0.04,2.17-0.11,3.25c-0.95,0.11-1.86-0.39-2.34-1.39
				c-0.54-1.13-0.46-2.69,0.03-3.81c0.21-0.47,0.52-0.89,0.92-1.15c0.15-0.1,0.31-0.17,0.46-0.21c0.14-0.04,0.27-0.05,0.43-0.03
				c0.25,0.03,0.48,0.11,0.69,0.23C80.81,132.23,80.78,133.27,80.76,134.32z"/>
			<path class="st38" d="M85.4,131c-0.87,0.74-1.21,2.13-1.25,3.32c-0.04,1.16,0.25,2.5,1.07,3.24c0.7,0.63,1.77,0.58,2.47-0.02
				c0.79-0.68,1.14-1.89,1.23-2.98c0.09-1.21-0.13-2.55-0.9-3.43C87.34,130.35,86.15,130.35,85.4,131z M88.04,134.53
				c-0.06,0.71-0.59,2.81-1.41,3.05c-0.18,0.05-0.37,0.02-0.57-0.14c-0.4-0.31-0.75-1.13-0.88-1.65c-0.3-1.27-0.14-2.77,0.47-3.89
				c0.28-0.5,0.79-1.16,1.35-0.85C87.96,131.6,88.13,133.47,88.04,134.53z"/>
			<path class="st38" d="M94.84,130.07c-0.9-0.43-1.92-0.38-2.88-0.12c0-0.07,0-0.15,0-0.22c0-0.29-0.89-0.28-0.89,0.02
				c0,0.17,0,0.33,0,0.5c-0.21,0.08-0.42,0.18-0.62,0.27c-0.1,0.05-0.3,0.21-0.12,0.31c0.18,0.1,0.44,0.05,0.61-0.03
				c0.04-0.02,0.09-0.04,0.13-0.06c0.01,4.03,0.06,8.07,0.11,12.1c0,0.29,0.89,0.27,0.89-0.02c-0.03-1.96-0.05-3.93-0.07-5.89
				c1.54,0.63,3.4-0.46,4.08-2.2c0.34-0.88,0.41-2.02,0.15-2.95C96.01,130.98,95.5,130.38,94.84,130.07z M95.36,134.31
				c-0.24,1.01-0.9,1.9-1.75,2.25c-0.22,0.09-0.4,0.12-0.65,0.07c-0.34-0.06-0.65-0.24-0.92-0.49c-0.01-0.02-0.03-0.03-0.05-0.04
				c-0.02-1.9-0.03-3.81-0.03-5.71c1.21-0.35,2.56-0.3,3.24,1.13C95.59,132.34,95.57,133.44,95.36,134.31z"/>
			<path class="st38" d="M100.89,136.16c-0.05,0.02-0.1,0.06-0.15,0.1c-0.27,0.27-0.4,0.88-0.6,1.17c-1.07,1.58-1.32-2.8-1.36-3.36
				c-0.06-1.04-0.07-2.09-0.05-3.14c0.43,0.01,0.86,0.02,1.29,0c0.11-0.01,0.34-0.09,0.2-0.25c-0.15-0.16-0.4-0.2-0.59-0.19
				c-0.29,0.02-0.59,0.01-0.88,0c0.06-1.78,0.22-3.56,0.39-5.32c0.03-0.32-0.83-0.54-0.86-0.28c-0.18,1.85-0.34,3.72-0.39,5.59
				c-0.44,0.01-0.87,0.06-1.28,0.23c-0.2,0.08,0.04,0.27,0.12,0.31c0.19,0.09,0.41,0.12,0.61,0.04c0.17-0.07,0.36-0.1,0.54-0.11
				c-0.02,1.08,0,2.16,0.07,3.25c0.05,0.68,0.13,1.36,0.2,2.04c0.06,0.58,0.17,1.18,0.5,1.63c0.36,0.49,1.01,0.7,1.54,0.55
				c0.5-0.14,1.45-1.25,1.38-1.9C101.54,136.2,101.12,136.06,100.89,136.16z"/>
			<path class="st38" d="M115.5,131.49c-0.15-0.46-0.39-0.94-0.77-1.18c-0.41-0.26-0.92-0.26-1.35-0.07
				c-0.55,0.24-0.97,0.83-1.25,1.47c-0.07-0.2-0.16-0.38-0.26-0.56c-0.41-0.7-1.13-0.95-1.84-0.89c-0.67,0.06-1.06,0.61-1.31,1.29
				c-0.03-0.33-0.07-0.66-0.11-0.98c-0.03-0.28-0.9-0.44-0.86-0.12c0.14,1.1,0.21,2.21,0.29,3.31c0.09,1.26,0.06,2.52,0.23,3.77
				c0.04,0.26,0.86,0.42,0.86,0.17c0-1.52-0.08-3.05,0.13-4.56c0.1-0.7,0.25-1.49,0.67-2.04c0.68-0.89,1.23,0.16,1.47,0.87
				c0.58,1.74,0.34,3.85,0.34,5.68c0,0.33,0.87,0.48,0.87,0.23c0-1.37-0.11-2.75-0.08-4.12c0.01-0.67,0.1-1.36,0.34-1.98
				c0.18-0.46,0.72-1.46,1.28-1.09c0.45,0.29,0.56,1.03,0.67,1.56c0.17,0.82,0.23,1.66,0.27,2.5c0.05,0.99,0.06,2.02-0.08,3
				c-0.04,0.26,0.84,0.33,0.89,0.01c0.14-1.03,0.12-2.11,0.07-3.15C115.92,133.58,115.82,132.48,115.5,131.49z M114.05,130.52
				L114.05,130.52c0,0,0.01,0,0.01,0C114.05,130.52,114.05,130.52,114.05,130.52z"/>
			<path class="st38" d="M121.53,131.15c-0.5-0.36-1.11-0.55-1.69-0.43c-0.49,0.1-0.89,0.48-1.2,0.91
				c-0.31,0.44-0.58,1.02-0.76,1.65c-0.03-0.01-0.06-0.02-0.09-0.02c-0.1-0.03-0.44-0.09-0.47,0.09c-0.03,0.19,0.3,0.28,0.4,0.31
				c0.02,0.01,0.04,0.01,0.06,0.02c-0.37,1.63-0.15,3.46,1.31,4.12c1.1,0.49,2.5,0.14,3.29-0.9c0.17-0.23-0.65-0.54-0.82-0.32
				c-0.31,0.41-0.72,0.69-1.16,0.86c-0.35,0.14-0.76,0.19-1.07-0.02c-0.88-0.61-0.91-2.15-0.75-3.18c0.02-0.11,0.04-0.22,0.06-0.33
				c0.48,0.11,0.97,0.2,1.46,0.27c0.77,0.11,1.58,0.19,2.36,0.06c0.04-0.01,0.15-0.04,0.15-0.11
				C122.6,132.98,122.42,131.8,121.53,131.15z M119.87,133.71c-0.38-0.05-0.75-0.12-1.13-0.21c0.1-0.32,0.22-0.62,0.36-0.92
				c0.24-0.51,0.57-1.03,1.02-1.3c0.89-0.55,1.44,0.85,1.56,1.66c0.04,0.29,0.05,0.58,0.06,0.87
				C121.12,133.89,120.48,133.8,119.87,133.71z"/>
			<path class="st38" d="M128.54,136.19c-0.43,0-0.78,0.41-0.78,0.91c0,0.5,0.35,0.91,0.78,0.91c0.43,0,0.78-0.41,0.78-0.91
				C129.33,136.6,128.98,136.19,128.54,136.19z"/>
			<path class="st38" d="M129.02,135.79c0.07-2.29,0.26-4.58,0.31-6.87c0.01-0.38-0.95-0.63-0.95-0.37
				c-0.06,2.29-0.24,4.58-0.31,6.87C128.06,135.81,129.01,136.05,129.02,135.79z"/>
		</g>
	</g>
</g>
</svg>
