<?xml version="1.0" encoding="utf-8"?>
<!-- Generator: Adobe Illustrator 24.2.1, SVG Export Plug-In . SVG Version: 6.00 Build 0)  -->
<svg version="1.1" id="Capa_1" xmlns="http://www.w3.org/2000/svg" xmlns:xlink="http://www.w3.org/1999/xlink" x="0px" y="0px"
	 viewBox="0 0 1366 768" style="enable-background:new 0 0 1366 768;" xml:space="preserve">
<polygon points="2,513 2,228 61.56,228 154.21,379 236.03,228 298,228 298,513 256.49,513 256.49,312 156.62,466 50.13,308 
	52.54,513 "/>
<polygon points="398,228 478,228 575,513 514,513 443,280 367,513 298,513 "/>
<polygon points="843,228 575,228 791,251 575,513 843,513 627,483 843,228 "/>
<polygon points="1110.64,228 842.64,228 1058.64,251 842.64,513 1110.64,513 894.64,483 1110.64,228 "/>
<polygon points="1118,227 1118,512 1373,512 1145.28,491 1145,399 1368,384 1144,367 1141.09,249 1373,227 "/>
</svg>
